G04 MADE WITH FRITZING*
G04 WWW.FRITZING.ORG*
G04 DOUBLE SIDED*
G04 HOLES PLATED*
G04 CONTOUR ON CENTER OF CONTOUR VECTOR*
%ASAXBY*%
%FSLAX23Y23*%
%MOIN*%
%OFA0B0*%
%SFA1.0B1.0*%
%ADD10C,0.010000*%
%ADD11C,0.005000*%
%ADD12R,0.001000X0.001000*%
%LNSILK0*%
G90*
G70*
G54D10*
X395Y737D02*
X995Y737D01*
D02*
X995Y737D02*
X995Y637D01*
D02*
X995Y637D02*
X395Y637D01*
D02*
X395Y637D02*
X395Y737D01*
D02*
X995Y137D02*
X395Y137D01*
D02*
X395Y137D02*
X395Y237D01*
D02*
X395Y237D02*
X995Y237D01*
D02*
X995Y237D02*
X995Y137D01*
G54D11*
D02*
X960Y137D02*
X995Y172D01*
G54D10*
D02*
X2195Y587D02*
X2195Y187D01*
D02*
X2195Y187D02*
X2095Y187D01*
D02*
X2095Y187D02*
X2095Y587D01*
D02*
X2095Y587D02*
X2195Y587D01*
D02*
X545Y337D02*
X45Y337D01*
D02*
X45Y337D02*
X45Y537D01*
D02*
X45Y537D02*
X545Y537D01*
D02*
X545Y537D02*
X545Y337D01*
G54D11*
D02*
X510Y337D02*
X545Y372D01*
G54D10*
D02*
X2095Y587D02*
X2095Y187D01*
D02*
X2095Y187D02*
X1995Y187D01*
D02*
X1995Y187D02*
X1995Y587D01*
D02*
X1995Y587D02*
X2095Y587D01*
D02*
X145Y637D02*
X545Y637D01*
D02*
X545Y637D02*
X545Y537D01*
D02*
X545Y537D02*
X145Y537D01*
D02*
X145Y537D02*
X145Y637D01*
D02*
X145Y337D02*
X545Y337D01*
D02*
X545Y337D02*
X545Y237D01*
D02*
X545Y237D02*
X145Y237D01*
D02*
X145Y237D02*
X145Y337D01*
G54D12*
X0Y1181D02*
X2754Y1181D01*
X0Y1180D02*
X2754Y1180D01*
X0Y1179D02*
X2754Y1179D01*
X0Y1178D02*
X2754Y1178D01*
X0Y1177D02*
X2754Y1177D01*
X0Y1176D02*
X2754Y1176D01*
X0Y1175D02*
X2754Y1175D01*
X0Y1174D02*
X2754Y1174D01*
X0Y1173D02*
X7Y1173D01*
X2747Y1173D02*
X2754Y1173D01*
X0Y1172D02*
X7Y1172D01*
X2747Y1172D02*
X2754Y1172D01*
X0Y1171D02*
X7Y1171D01*
X2747Y1171D02*
X2754Y1171D01*
X0Y1170D02*
X7Y1170D01*
X2747Y1170D02*
X2754Y1170D01*
X0Y1169D02*
X7Y1169D01*
X2747Y1169D02*
X2754Y1169D01*
X0Y1168D02*
X7Y1168D01*
X2747Y1168D02*
X2754Y1168D01*
X0Y1167D02*
X7Y1167D01*
X2747Y1167D02*
X2754Y1167D01*
X0Y1166D02*
X7Y1166D01*
X2747Y1166D02*
X2754Y1166D01*
X0Y1165D02*
X7Y1165D01*
X2747Y1165D02*
X2754Y1165D01*
X0Y1164D02*
X7Y1164D01*
X2747Y1164D02*
X2754Y1164D01*
X0Y1163D02*
X7Y1163D01*
X2747Y1163D02*
X2754Y1163D01*
X0Y1162D02*
X7Y1162D01*
X2747Y1162D02*
X2754Y1162D01*
X0Y1161D02*
X7Y1161D01*
X2747Y1161D02*
X2754Y1161D01*
X0Y1160D02*
X7Y1160D01*
X2747Y1160D02*
X2754Y1160D01*
X0Y1159D02*
X7Y1159D01*
X2747Y1159D02*
X2754Y1159D01*
X0Y1158D02*
X7Y1158D01*
X2747Y1158D02*
X2754Y1158D01*
X0Y1157D02*
X7Y1157D01*
X2747Y1157D02*
X2754Y1157D01*
X0Y1156D02*
X7Y1156D01*
X2747Y1156D02*
X2754Y1156D01*
X0Y1155D02*
X7Y1155D01*
X2747Y1155D02*
X2754Y1155D01*
X0Y1154D02*
X7Y1154D01*
X2747Y1154D02*
X2754Y1154D01*
X0Y1153D02*
X7Y1153D01*
X2747Y1153D02*
X2754Y1153D01*
X0Y1152D02*
X7Y1152D01*
X2747Y1152D02*
X2754Y1152D01*
X0Y1151D02*
X7Y1151D01*
X2747Y1151D02*
X2754Y1151D01*
X0Y1150D02*
X7Y1150D01*
X2747Y1150D02*
X2754Y1150D01*
X0Y1149D02*
X7Y1149D01*
X2747Y1149D02*
X2754Y1149D01*
X0Y1148D02*
X7Y1148D01*
X2747Y1148D02*
X2754Y1148D01*
X0Y1147D02*
X7Y1147D01*
X2747Y1147D02*
X2754Y1147D01*
X0Y1146D02*
X7Y1146D01*
X2747Y1146D02*
X2754Y1146D01*
X0Y1145D02*
X7Y1145D01*
X2747Y1145D02*
X2754Y1145D01*
X0Y1144D02*
X7Y1144D01*
X2747Y1144D02*
X2754Y1144D01*
X0Y1143D02*
X7Y1143D01*
X2747Y1143D02*
X2754Y1143D01*
X0Y1142D02*
X7Y1142D01*
X2747Y1142D02*
X2754Y1142D01*
X0Y1141D02*
X7Y1141D01*
X2747Y1141D02*
X2754Y1141D01*
X0Y1140D02*
X7Y1140D01*
X2747Y1140D02*
X2754Y1140D01*
X0Y1139D02*
X7Y1139D01*
X2747Y1139D02*
X2754Y1139D01*
X0Y1138D02*
X7Y1138D01*
X2747Y1138D02*
X2754Y1138D01*
X0Y1137D02*
X7Y1137D01*
X2747Y1137D02*
X2754Y1137D01*
X0Y1136D02*
X7Y1136D01*
X2747Y1136D02*
X2754Y1136D01*
X0Y1135D02*
X7Y1135D01*
X2747Y1135D02*
X2754Y1135D01*
X0Y1134D02*
X7Y1134D01*
X2747Y1134D02*
X2754Y1134D01*
X0Y1133D02*
X7Y1133D01*
X2747Y1133D02*
X2754Y1133D01*
X0Y1132D02*
X7Y1132D01*
X2747Y1132D02*
X2754Y1132D01*
X0Y1131D02*
X7Y1131D01*
X2747Y1131D02*
X2754Y1131D01*
X0Y1130D02*
X7Y1130D01*
X2747Y1130D02*
X2754Y1130D01*
X0Y1129D02*
X7Y1129D01*
X2747Y1129D02*
X2754Y1129D01*
X0Y1128D02*
X7Y1128D01*
X2747Y1128D02*
X2754Y1128D01*
X0Y1127D02*
X7Y1127D01*
X2747Y1127D02*
X2754Y1127D01*
X0Y1126D02*
X7Y1126D01*
X2747Y1126D02*
X2754Y1126D01*
X0Y1125D02*
X7Y1125D01*
X2747Y1125D02*
X2754Y1125D01*
X0Y1124D02*
X7Y1124D01*
X2747Y1124D02*
X2754Y1124D01*
X0Y1123D02*
X7Y1123D01*
X2747Y1123D02*
X2754Y1123D01*
X0Y1122D02*
X7Y1122D01*
X2747Y1122D02*
X2754Y1122D01*
X0Y1121D02*
X7Y1121D01*
X2747Y1121D02*
X2754Y1121D01*
X0Y1120D02*
X7Y1120D01*
X2747Y1120D02*
X2754Y1120D01*
X0Y1119D02*
X7Y1119D01*
X2747Y1119D02*
X2754Y1119D01*
X0Y1118D02*
X7Y1118D01*
X2747Y1118D02*
X2754Y1118D01*
X0Y1117D02*
X7Y1117D01*
X2747Y1117D02*
X2754Y1117D01*
X0Y1116D02*
X7Y1116D01*
X2747Y1116D02*
X2754Y1116D01*
X0Y1115D02*
X7Y1115D01*
X2747Y1115D02*
X2754Y1115D01*
X0Y1114D02*
X7Y1114D01*
X2747Y1114D02*
X2754Y1114D01*
X0Y1113D02*
X7Y1113D01*
X2747Y1113D02*
X2754Y1113D01*
X0Y1112D02*
X7Y1112D01*
X2747Y1112D02*
X2754Y1112D01*
X0Y1111D02*
X7Y1111D01*
X2747Y1111D02*
X2754Y1111D01*
X0Y1110D02*
X7Y1110D01*
X2747Y1110D02*
X2754Y1110D01*
X0Y1109D02*
X7Y1109D01*
X2747Y1109D02*
X2754Y1109D01*
X0Y1108D02*
X7Y1108D01*
X2747Y1108D02*
X2754Y1108D01*
X0Y1107D02*
X7Y1107D01*
X2747Y1107D02*
X2754Y1107D01*
X0Y1106D02*
X7Y1106D01*
X2747Y1106D02*
X2754Y1106D01*
X0Y1105D02*
X7Y1105D01*
X2747Y1105D02*
X2754Y1105D01*
X0Y1104D02*
X7Y1104D01*
X2747Y1104D02*
X2754Y1104D01*
X0Y1103D02*
X7Y1103D01*
X2747Y1103D02*
X2754Y1103D01*
X0Y1102D02*
X7Y1102D01*
X2747Y1102D02*
X2754Y1102D01*
X0Y1101D02*
X7Y1101D01*
X2747Y1101D02*
X2754Y1101D01*
X0Y1100D02*
X7Y1100D01*
X2747Y1100D02*
X2754Y1100D01*
X0Y1099D02*
X7Y1099D01*
X2747Y1099D02*
X2754Y1099D01*
X0Y1098D02*
X7Y1098D01*
X2747Y1098D02*
X2754Y1098D01*
X0Y1097D02*
X7Y1097D01*
X2747Y1097D02*
X2754Y1097D01*
X0Y1096D02*
X7Y1096D01*
X2747Y1096D02*
X2754Y1096D01*
X0Y1095D02*
X7Y1095D01*
X2747Y1095D02*
X2754Y1095D01*
X0Y1094D02*
X7Y1094D01*
X2747Y1094D02*
X2754Y1094D01*
X0Y1093D02*
X7Y1093D01*
X2747Y1093D02*
X2754Y1093D01*
X0Y1092D02*
X7Y1092D01*
X2747Y1092D02*
X2754Y1092D01*
X0Y1091D02*
X7Y1091D01*
X2747Y1091D02*
X2754Y1091D01*
X0Y1090D02*
X7Y1090D01*
X2747Y1090D02*
X2754Y1090D01*
X0Y1089D02*
X7Y1089D01*
X2747Y1089D02*
X2754Y1089D01*
X0Y1088D02*
X7Y1088D01*
X2747Y1088D02*
X2754Y1088D01*
X0Y1087D02*
X7Y1087D01*
X2747Y1087D02*
X2754Y1087D01*
X0Y1086D02*
X7Y1086D01*
X2747Y1086D02*
X2754Y1086D01*
X0Y1085D02*
X7Y1085D01*
X2747Y1085D02*
X2754Y1085D01*
X0Y1084D02*
X7Y1084D01*
X2747Y1084D02*
X2754Y1084D01*
X0Y1083D02*
X7Y1083D01*
X2747Y1083D02*
X2754Y1083D01*
X0Y1082D02*
X7Y1082D01*
X2747Y1082D02*
X2754Y1082D01*
X0Y1081D02*
X7Y1081D01*
X2747Y1081D02*
X2754Y1081D01*
X0Y1080D02*
X7Y1080D01*
X2747Y1080D02*
X2754Y1080D01*
X0Y1079D02*
X7Y1079D01*
X2747Y1079D02*
X2754Y1079D01*
X0Y1078D02*
X7Y1078D01*
X2747Y1078D02*
X2754Y1078D01*
X0Y1077D02*
X7Y1077D01*
X2747Y1077D02*
X2754Y1077D01*
X0Y1076D02*
X7Y1076D01*
X2747Y1076D02*
X2754Y1076D01*
X0Y1075D02*
X7Y1075D01*
X2747Y1075D02*
X2754Y1075D01*
X0Y1074D02*
X7Y1074D01*
X2747Y1074D02*
X2754Y1074D01*
X0Y1073D02*
X7Y1073D01*
X2747Y1073D02*
X2754Y1073D01*
X0Y1072D02*
X7Y1072D01*
X2747Y1072D02*
X2754Y1072D01*
X0Y1071D02*
X7Y1071D01*
X2747Y1071D02*
X2754Y1071D01*
X0Y1070D02*
X7Y1070D01*
X2747Y1070D02*
X2754Y1070D01*
X0Y1069D02*
X7Y1069D01*
X2747Y1069D02*
X2754Y1069D01*
X0Y1068D02*
X7Y1068D01*
X2747Y1068D02*
X2754Y1068D01*
X0Y1067D02*
X7Y1067D01*
X2747Y1067D02*
X2754Y1067D01*
X0Y1066D02*
X7Y1066D01*
X2747Y1066D02*
X2754Y1066D01*
X0Y1065D02*
X7Y1065D01*
X2747Y1065D02*
X2754Y1065D01*
X0Y1064D02*
X7Y1064D01*
X2747Y1064D02*
X2754Y1064D01*
X0Y1063D02*
X7Y1063D01*
X2747Y1063D02*
X2754Y1063D01*
X0Y1062D02*
X7Y1062D01*
X2747Y1062D02*
X2754Y1062D01*
X0Y1061D02*
X7Y1061D01*
X2747Y1061D02*
X2754Y1061D01*
X0Y1060D02*
X7Y1060D01*
X2747Y1060D02*
X2754Y1060D01*
X0Y1059D02*
X7Y1059D01*
X2747Y1059D02*
X2754Y1059D01*
X0Y1058D02*
X7Y1058D01*
X2747Y1058D02*
X2754Y1058D01*
X0Y1057D02*
X7Y1057D01*
X2747Y1057D02*
X2754Y1057D01*
X0Y1056D02*
X7Y1056D01*
X2747Y1056D02*
X2754Y1056D01*
X0Y1055D02*
X7Y1055D01*
X2747Y1055D02*
X2754Y1055D01*
X0Y1054D02*
X7Y1054D01*
X2747Y1054D02*
X2754Y1054D01*
X0Y1053D02*
X7Y1053D01*
X2747Y1053D02*
X2754Y1053D01*
X0Y1052D02*
X7Y1052D01*
X2747Y1052D02*
X2754Y1052D01*
X0Y1051D02*
X7Y1051D01*
X2747Y1051D02*
X2754Y1051D01*
X0Y1050D02*
X7Y1050D01*
X2747Y1050D02*
X2754Y1050D01*
X0Y1049D02*
X7Y1049D01*
X2747Y1049D02*
X2754Y1049D01*
X0Y1048D02*
X7Y1048D01*
X2747Y1048D02*
X2754Y1048D01*
X0Y1047D02*
X7Y1047D01*
X2747Y1047D02*
X2754Y1047D01*
X0Y1046D02*
X7Y1046D01*
X2747Y1046D02*
X2754Y1046D01*
X0Y1045D02*
X7Y1045D01*
X2747Y1045D02*
X2754Y1045D01*
X0Y1044D02*
X7Y1044D01*
X2747Y1044D02*
X2754Y1044D01*
X0Y1043D02*
X7Y1043D01*
X2747Y1043D02*
X2754Y1043D01*
X0Y1042D02*
X7Y1042D01*
X2747Y1042D02*
X2754Y1042D01*
X0Y1041D02*
X7Y1041D01*
X2747Y1041D02*
X2754Y1041D01*
X0Y1040D02*
X7Y1040D01*
X2747Y1040D02*
X2754Y1040D01*
X0Y1039D02*
X7Y1039D01*
X2747Y1039D02*
X2754Y1039D01*
X0Y1038D02*
X7Y1038D01*
X2747Y1038D02*
X2754Y1038D01*
X0Y1037D02*
X7Y1037D01*
X2747Y1037D02*
X2754Y1037D01*
X0Y1036D02*
X7Y1036D01*
X2747Y1036D02*
X2754Y1036D01*
X0Y1035D02*
X7Y1035D01*
X2747Y1035D02*
X2754Y1035D01*
X0Y1034D02*
X7Y1034D01*
X2747Y1034D02*
X2754Y1034D01*
X0Y1033D02*
X7Y1033D01*
X2747Y1033D02*
X2754Y1033D01*
X0Y1032D02*
X7Y1032D01*
X2747Y1032D02*
X2754Y1032D01*
X0Y1031D02*
X7Y1031D01*
X2747Y1031D02*
X2754Y1031D01*
X0Y1030D02*
X7Y1030D01*
X2747Y1030D02*
X2754Y1030D01*
X0Y1029D02*
X7Y1029D01*
X2747Y1029D02*
X2754Y1029D01*
X0Y1028D02*
X7Y1028D01*
X2747Y1028D02*
X2754Y1028D01*
X0Y1027D02*
X7Y1027D01*
X2747Y1027D02*
X2754Y1027D01*
X0Y1026D02*
X7Y1026D01*
X2747Y1026D02*
X2754Y1026D01*
X0Y1025D02*
X7Y1025D01*
X2747Y1025D02*
X2754Y1025D01*
X0Y1024D02*
X7Y1024D01*
X2747Y1024D02*
X2754Y1024D01*
X0Y1023D02*
X7Y1023D01*
X2747Y1023D02*
X2754Y1023D01*
X0Y1022D02*
X7Y1022D01*
X2747Y1022D02*
X2754Y1022D01*
X0Y1021D02*
X7Y1021D01*
X2747Y1021D02*
X2754Y1021D01*
X0Y1020D02*
X7Y1020D01*
X2747Y1020D02*
X2754Y1020D01*
X0Y1019D02*
X7Y1019D01*
X2747Y1019D02*
X2754Y1019D01*
X0Y1018D02*
X7Y1018D01*
X2747Y1018D02*
X2754Y1018D01*
X0Y1017D02*
X7Y1017D01*
X2747Y1017D02*
X2754Y1017D01*
X0Y1016D02*
X7Y1016D01*
X2747Y1016D02*
X2754Y1016D01*
X0Y1015D02*
X7Y1015D01*
X2747Y1015D02*
X2754Y1015D01*
X0Y1014D02*
X7Y1014D01*
X2747Y1014D02*
X2754Y1014D01*
X0Y1013D02*
X7Y1013D01*
X2747Y1013D02*
X2754Y1013D01*
X0Y1012D02*
X7Y1012D01*
X2747Y1012D02*
X2754Y1012D01*
X0Y1011D02*
X7Y1011D01*
X2747Y1011D02*
X2754Y1011D01*
X0Y1010D02*
X7Y1010D01*
X2747Y1010D02*
X2754Y1010D01*
X0Y1009D02*
X7Y1009D01*
X2747Y1009D02*
X2754Y1009D01*
X0Y1008D02*
X7Y1008D01*
X2747Y1008D02*
X2754Y1008D01*
X0Y1007D02*
X7Y1007D01*
X2747Y1007D02*
X2754Y1007D01*
X0Y1006D02*
X7Y1006D01*
X2747Y1006D02*
X2754Y1006D01*
X0Y1005D02*
X7Y1005D01*
X2747Y1005D02*
X2754Y1005D01*
X0Y1004D02*
X7Y1004D01*
X2747Y1004D02*
X2754Y1004D01*
X0Y1003D02*
X7Y1003D01*
X2747Y1003D02*
X2754Y1003D01*
X0Y1002D02*
X7Y1002D01*
X2747Y1002D02*
X2754Y1002D01*
X0Y1001D02*
X7Y1001D01*
X2747Y1001D02*
X2754Y1001D01*
X0Y1000D02*
X7Y1000D01*
X2747Y1000D02*
X2754Y1000D01*
X0Y999D02*
X7Y999D01*
X2747Y999D02*
X2754Y999D01*
X0Y998D02*
X7Y998D01*
X2747Y998D02*
X2754Y998D01*
X0Y997D02*
X7Y997D01*
X2747Y997D02*
X2754Y997D01*
X0Y996D02*
X7Y996D01*
X2747Y996D02*
X2754Y996D01*
X0Y995D02*
X7Y995D01*
X2747Y995D02*
X2754Y995D01*
X0Y994D02*
X7Y994D01*
X2747Y994D02*
X2754Y994D01*
X0Y993D02*
X7Y993D01*
X2747Y993D02*
X2754Y993D01*
X0Y992D02*
X7Y992D01*
X2747Y992D02*
X2754Y992D01*
X0Y991D02*
X7Y991D01*
X2747Y991D02*
X2754Y991D01*
X0Y990D02*
X7Y990D01*
X2747Y990D02*
X2754Y990D01*
X0Y989D02*
X7Y989D01*
X2747Y989D02*
X2754Y989D01*
X0Y988D02*
X7Y988D01*
X2747Y988D02*
X2754Y988D01*
X0Y987D02*
X7Y987D01*
X2747Y987D02*
X2754Y987D01*
X0Y986D02*
X7Y986D01*
X2747Y986D02*
X2754Y986D01*
X0Y985D02*
X7Y985D01*
X2747Y985D02*
X2754Y985D01*
X0Y984D02*
X7Y984D01*
X2747Y984D02*
X2754Y984D01*
X0Y983D02*
X7Y983D01*
X2747Y983D02*
X2754Y983D01*
X0Y982D02*
X7Y982D01*
X2747Y982D02*
X2754Y982D01*
X0Y981D02*
X7Y981D01*
X2747Y981D02*
X2754Y981D01*
X0Y980D02*
X7Y980D01*
X2747Y980D02*
X2754Y980D01*
X0Y979D02*
X7Y979D01*
X2747Y979D02*
X2754Y979D01*
X0Y978D02*
X7Y978D01*
X2747Y978D02*
X2754Y978D01*
X0Y977D02*
X7Y977D01*
X2747Y977D02*
X2754Y977D01*
X0Y976D02*
X7Y976D01*
X2747Y976D02*
X2754Y976D01*
X0Y975D02*
X7Y975D01*
X2747Y975D02*
X2754Y975D01*
X0Y974D02*
X7Y974D01*
X2747Y974D02*
X2754Y974D01*
X0Y973D02*
X7Y973D01*
X2747Y973D02*
X2754Y973D01*
X0Y972D02*
X7Y972D01*
X2747Y972D02*
X2754Y972D01*
X0Y971D02*
X7Y971D01*
X2747Y971D02*
X2754Y971D01*
X0Y970D02*
X7Y970D01*
X2747Y970D02*
X2754Y970D01*
X0Y969D02*
X7Y969D01*
X2747Y969D02*
X2754Y969D01*
X0Y968D02*
X7Y968D01*
X2747Y968D02*
X2754Y968D01*
X0Y967D02*
X7Y967D01*
X2747Y967D02*
X2754Y967D01*
X0Y966D02*
X7Y966D01*
X2747Y966D02*
X2754Y966D01*
X0Y965D02*
X7Y965D01*
X2747Y965D02*
X2754Y965D01*
X0Y964D02*
X7Y964D01*
X2747Y964D02*
X2754Y964D01*
X0Y963D02*
X7Y963D01*
X2747Y963D02*
X2754Y963D01*
X0Y962D02*
X7Y962D01*
X2747Y962D02*
X2754Y962D01*
X0Y961D02*
X7Y961D01*
X2747Y961D02*
X2754Y961D01*
X0Y960D02*
X7Y960D01*
X2747Y960D02*
X2754Y960D01*
X0Y959D02*
X7Y959D01*
X2747Y959D02*
X2754Y959D01*
X0Y958D02*
X7Y958D01*
X2747Y958D02*
X2754Y958D01*
X0Y957D02*
X7Y957D01*
X2747Y957D02*
X2754Y957D01*
X0Y956D02*
X7Y956D01*
X2747Y956D02*
X2754Y956D01*
X0Y955D02*
X7Y955D01*
X2747Y955D02*
X2754Y955D01*
X0Y954D02*
X7Y954D01*
X2747Y954D02*
X2754Y954D01*
X0Y953D02*
X7Y953D01*
X2747Y953D02*
X2754Y953D01*
X0Y952D02*
X7Y952D01*
X2747Y952D02*
X2754Y952D01*
X0Y951D02*
X7Y951D01*
X2747Y951D02*
X2754Y951D01*
X0Y950D02*
X7Y950D01*
X2747Y950D02*
X2754Y950D01*
X0Y949D02*
X7Y949D01*
X2747Y949D02*
X2754Y949D01*
X0Y948D02*
X7Y948D01*
X2747Y948D02*
X2754Y948D01*
X0Y947D02*
X7Y947D01*
X2747Y947D02*
X2754Y947D01*
X0Y946D02*
X7Y946D01*
X2747Y946D02*
X2754Y946D01*
X0Y945D02*
X7Y945D01*
X2747Y945D02*
X2754Y945D01*
X0Y944D02*
X7Y944D01*
X2747Y944D02*
X2754Y944D01*
X0Y943D02*
X7Y943D01*
X2747Y943D02*
X2754Y943D01*
X0Y942D02*
X7Y942D01*
X2747Y942D02*
X2754Y942D01*
X0Y941D02*
X7Y941D01*
X2747Y941D02*
X2754Y941D01*
X0Y940D02*
X7Y940D01*
X2747Y940D02*
X2754Y940D01*
X0Y939D02*
X7Y939D01*
X2747Y939D02*
X2754Y939D01*
X0Y938D02*
X7Y938D01*
X2747Y938D02*
X2754Y938D01*
X0Y937D02*
X7Y937D01*
X2747Y937D02*
X2754Y937D01*
X0Y936D02*
X7Y936D01*
X2747Y936D02*
X2754Y936D01*
X0Y935D02*
X7Y935D01*
X2747Y935D02*
X2754Y935D01*
X0Y934D02*
X7Y934D01*
X2747Y934D02*
X2754Y934D01*
X0Y933D02*
X7Y933D01*
X2747Y933D02*
X2754Y933D01*
X0Y932D02*
X7Y932D01*
X2747Y932D02*
X2754Y932D01*
X0Y931D02*
X7Y931D01*
X2747Y931D02*
X2754Y931D01*
X0Y930D02*
X7Y930D01*
X2747Y930D02*
X2754Y930D01*
X0Y929D02*
X7Y929D01*
X2747Y929D02*
X2754Y929D01*
X0Y928D02*
X7Y928D01*
X2747Y928D02*
X2754Y928D01*
X0Y927D02*
X7Y927D01*
X2747Y927D02*
X2754Y927D01*
X0Y926D02*
X7Y926D01*
X2747Y926D02*
X2754Y926D01*
X0Y925D02*
X7Y925D01*
X2747Y925D02*
X2754Y925D01*
X0Y924D02*
X7Y924D01*
X2747Y924D02*
X2754Y924D01*
X0Y923D02*
X7Y923D01*
X2747Y923D02*
X2754Y923D01*
X0Y922D02*
X7Y922D01*
X2747Y922D02*
X2754Y922D01*
X0Y921D02*
X7Y921D01*
X2747Y921D02*
X2754Y921D01*
X0Y920D02*
X7Y920D01*
X2747Y920D02*
X2754Y920D01*
X0Y919D02*
X7Y919D01*
X2747Y919D02*
X2754Y919D01*
X0Y918D02*
X7Y918D01*
X2747Y918D02*
X2754Y918D01*
X0Y917D02*
X7Y917D01*
X2747Y917D02*
X2754Y917D01*
X0Y916D02*
X7Y916D01*
X2747Y916D02*
X2754Y916D01*
X0Y915D02*
X7Y915D01*
X2747Y915D02*
X2754Y915D01*
X0Y914D02*
X7Y914D01*
X2747Y914D02*
X2754Y914D01*
X0Y913D02*
X7Y913D01*
X2747Y913D02*
X2754Y913D01*
X0Y912D02*
X7Y912D01*
X2747Y912D02*
X2754Y912D01*
X0Y911D02*
X7Y911D01*
X2747Y911D02*
X2754Y911D01*
X0Y910D02*
X7Y910D01*
X2747Y910D02*
X2754Y910D01*
X0Y909D02*
X7Y909D01*
X2747Y909D02*
X2754Y909D01*
X0Y908D02*
X7Y908D01*
X2747Y908D02*
X2754Y908D01*
X0Y907D02*
X7Y907D01*
X2747Y907D02*
X2754Y907D01*
X0Y906D02*
X7Y906D01*
X2747Y906D02*
X2754Y906D01*
X0Y905D02*
X7Y905D01*
X2747Y905D02*
X2754Y905D01*
X0Y904D02*
X7Y904D01*
X2747Y904D02*
X2754Y904D01*
X0Y903D02*
X7Y903D01*
X2747Y903D02*
X2754Y903D01*
X0Y902D02*
X7Y902D01*
X2747Y902D02*
X2754Y902D01*
X0Y901D02*
X7Y901D01*
X2747Y901D02*
X2754Y901D01*
X0Y900D02*
X7Y900D01*
X2747Y900D02*
X2754Y900D01*
X0Y899D02*
X7Y899D01*
X2747Y899D02*
X2754Y899D01*
X0Y898D02*
X7Y898D01*
X2747Y898D02*
X2754Y898D01*
X0Y897D02*
X7Y897D01*
X2747Y897D02*
X2754Y897D01*
X0Y896D02*
X7Y896D01*
X2747Y896D02*
X2754Y896D01*
X0Y895D02*
X7Y895D01*
X2747Y895D02*
X2754Y895D01*
X0Y894D02*
X7Y894D01*
X2747Y894D02*
X2754Y894D01*
X0Y893D02*
X7Y893D01*
X2747Y893D02*
X2754Y893D01*
X0Y892D02*
X7Y892D01*
X2747Y892D02*
X2754Y892D01*
X0Y891D02*
X7Y891D01*
X2747Y891D02*
X2754Y891D01*
X0Y890D02*
X7Y890D01*
X2747Y890D02*
X2754Y890D01*
X0Y889D02*
X7Y889D01*
X2747Y889D02*
X2754Y889D01*
X0Y888D02*
X7Y888D01*
X2747Y888D02*
X2754Y888D01*
X0Y887D02*
X7Y887D01*
X183Y887D02*
X215Y887D01*
X238Y887D02*
X241Y887D01*
X2747Y887D02*
X2754Y887D01*
X0Y886D02*
X7Y886D01*
X183Y886D02*
X216Y886D01*
X237Y886D02*
X242Y886D01*
X2747Y886D02*
X2754Y886D01*
X0Y885D02*
X7Y885D01*
X183Y885D02*
X216Y885D01*
X236Y885D02*
X242Y885D01*
X2747Y885D02*
X2754Y885D01*
X0Y884D02*
X7Y884D01*
X183Y884D02*
X216Y884D01*
X236Y884D02*
X242Y884D01*
X2747Y884D02*
X2754Y884D01*
X0Y883D02*
X7Y883D01*
X183Y883D02*
X216Y883D01*
X236Y883D02*
X242Y883D01*
X2747Y883D02*
X2754Y883D01*
X0Y882D02*
X7Y882D01*
X183Y882D02*
X216Y882D01*
X236Y882D02*
X242Y882D01*
X2747Y882D02*
X2754Y882D01*
X0Y881D02*
X7Y881D01*
X183Y881D02*
X216Y881D01*
X236Y881D02*
X242Y881D01*
X2747Y881D02*
X2754Y881D01*
X0Y880D02*
X7Y880D01*
X183Y880D02*
X189Y880D01*
X211Y880D02*
X216Y880D01*
X236Y880D02*
X242Y880D01*
X2747Y880D02*
X2754Y880D01*
X0Y879D02*
X7Y879D01*
X183Y879D02*
X189Y879D01*
X211Y879D02*
X215Y879D01*
X236Y879D02*
X242Y879D01*
X2747Y879D02*
X2754Y879D01*
X0Y878D02*
X7Y878D01*
X183Y878D02*
X189Y878D01*
X213Y878D02*
X214Y878D01*
X236Y878D02*
X242Y878D01*
X2747Y878D02*
X2754Y878D01*
X0Y877D02*
X7Y877D01*
X183Y877D02*
X189Y877D01*
X236Y877D02*
X242Y877D01*
X2747Y877D02*
X2754Y877D01*
X0Y876D02*
X7Y876D01*
X183Y876D02*
X189Y876D01*
X236Y876D02*
X242Y876D01*
X2747Y876D02*
X2754Y876D01*
X0Y875D02*
X7Y875D01*
X183Y875D02*
X189Y875D01*
X236Y875D02*
X242Y875D01*
X2747Y875D02*
X2754Y875D01*
X0Y874D02*
X7Y874D01*
X183Y874D02*
X189Y874D01*
X236Y874D02*
X242Y874D01*
X2747Y874D02*
X2754Y874D01*
X0Y873D02*
X7Y873D01*
X183Y873D02*
X189Y873D01*
X236Y873D02*
X242Y873D01*
X2747Y873D02*
X2754Y873D01*
X0Y872D02*
X7Y872D01*
X183Y872D02*
X189Y872D01*
X236Y872D02*
X242Y872D01*
X2747Y872D02*
X2754Y872D01*
X0Y871D02*
X7Y871D01*
X183Y871D02*
X189Y871D01*
X236Y871D02*
X242Y871D01*
X2747Y871D02*
X2754Y871D01*
X0Y870D02*
X7Y870D01*
X183Y870D02*
X189Y870D01*
X236Y870D02*
X242Y870D01*
X2747Y870D02*
X2754Y870D01*
X0Y869D02*
X7Y869D01*
X183Y869D02*
X189Y869D01*
X236Y869D02*
X242Y869D01*
X2747Y869D02*
X2754Y869D01*
X0Y868D02*
X7Y868D01*
X183Y868D02*
X189Y868D01*
X236Y868D02*
X242Y868D01*
X2747Y868D02*
X2754Y868D01*
X0Y867D02*
X7Y867D01*
X183Y867D02*
X190Y867D01*
X236Y867D02*
X242Y867D01*
X2747Y867D02*
X2754Y867D01*
X0Y866D02*
X7Y866D01*
X183Y866D02*
X191Y866D01*
X236Y866D02*
X242Y866D01*
X2747Y866D02*
X2754Y866D01*
X0Y865D02*
X7Y865D01*
X183Y865D02*
X192Y865D01*
X236Y865D02*
X242Y865D01*
X2747Y865D02*
X2754Y865D01*
X0Y864D02*
X7Y864D01*
X184Y864D02*
X194Y864D01*
X236Y864D02*
X242Y864D01*
X2747Y864D02*
X2754Y864D01*
X0Y863D02*
X7Y863D01*
X185Y863D02*
X195Y863D01*
X236Y863D02*
X242Y863D01*
X2747Y863D02*
X2754Y863D01*
X0Y862D02*
X7Y862D01*
X186Y862D02*
X196Y862D01*
X236Y862D02*
X242Y862D01*
X2747Y862D02*
X2754Y862D01*
X0Y861D02*
X7Y861D01*
X187Y861D02*
X197Y861D01*
X236Y861D02*
X242Y861D01*
X2747Y861D02*
X2754Y861D01*
X0Y860D02*
X7Y860D01*
X189Y860D02*
X198Y860D01*
X236Y860D02*
X242Y860D01*
X2747Y860D02*
X2754Y860D01*
X0Y859D02*
X7Y859D01*
X190Y859D02*
X199Y859D01*
X236Y859D02*
X242Y859D01*
X2747Y859D02*
X2754Y859D01*
X0Y858D02*
X7Y858D01*
X191Y858D02*
X201Y858D01*
X236Y858D02*
X242Y858D01*
X259Y858D02*
X261Y858D01*
X2747Y858D02*
X2754Y858D01*
X0Y857D02*
X7Y857D01*
X192Y857D02*
X202Y857D01*
X236Y857D02*
X242Y857D01*
X258Y857D02*
X262Y857D01*
X2747Y857D02*
X2754Y857D01*
X0Y856D02*
X7Y856D01*
X193Y856D02*
X202Y856D01*
X236Y856D02*
X242Y856D01*
X257Y856D02*
X263Y856D01*
X2747Y856D02*
X2754Y856D01*
X0Y855D02*
X7Y855D01*
X194Y855D02*
X202Y855D01*
X236Y855D02*
X242Y855D01*
X257Y855D02*
X263Y855D01*
X2747Y855D02*
X2754Y855D01*
X0Y854D02*
X7Y854D01*
X196Y854D02*
X203Y854D01*
X236Y854D02*
X242Y854D01*
X257Y854D02*
X263Y854D01*
X2747Y854D02*
X2754Y854D01*
X0Y853D02*
X7Y853D01*
X196Y853D02*
X203Y853D01*
X236Y853D02*
X242Y853D01*
X257Y853D02*
X263Y853D01*
X2747Y853D02*
X2754Y853D01*
X0Y852D02*
X7Y852D01*
X196Y852D02*
X203Y852D01*
X236Y852D02*
X242Y852D01*
X257Y852D02*
X263Y852D01*
X2747Y852D02*
X2754Y852D01*
X0Y851D02*
X7Y851D01*
X196Y851D02*
X203Y851D01*
X236Y851D02*
X242Y851D01*
X257Y851D02*
X263Y851D01*
X2747Y851D02*
X2754Y851D01*
X0Y850D02*
X7Y850D01*
X196Y850D02*
X203Y850D01*
X236Y850D02*
X242Y850D01*
X257Y850D02*
X263Y850D01*
X2747Y850D02*
X2754Y850D01*
X0Y849D02*
X7Y849D01*
X196Y849D02*
X203Y849D01*
X236Y849D02*
X242Y849D01*
X257Y849D02*
X263Y849D01*
X2747Y849D02*
X2754Y849D01*
X0Y848D02*
X7Y848D01*
X196Y848D02*
X203Y848D01*
X236Y848D02*
X242Y848D01*
X257Y848D02*
X263Y848D01*
X2747Y848D02*
X2754Y848D01*
X0Y847D02*
X7Y847D01*
X196Y847D02*
X203Y847D01*
X236Y847D02*
X242Y847D01*
X257Y847D02*
X263Y847D01*
X2747Y847D02*
X2754Y847D01*
X0Y846D02*
X7Y846D01*
X196Y846D02*
X203Y846D01*
X236Y846D02*
X242Y846D01*
X257Y846D02*
X263Y846D01*
X2747Y846D02*
X2754Y846D01*
X0Y845D02*
X7Y845D01*
X196Y845D02*
X203Y845D01*
X236Y845D02*
X242Y845D01*
X257Y845D02*
X263Y845D01*
X2747Y845D02*
X2754Y845D01*
X0Y844D02*
X7Y844D01*
X196Y844D02*
X203Y844D01*
X236Y844D02*
X242Y844D01*
X257Y844D02*
X263Y844D01*
X2747Y844D02*
X2754Y844D01*
X0Y843D02*
X7Y843D01*
X196Y843D02*
X203Y843D01*
X236Y843D02*
X243Y843D01*
X257Y843D02*
X263Y843D01*
X2747Y843D02*
X2754Y843D01*
X0Y842D02*
X7Y842D01*
X196Y842D02*
X203Y842D01*
X237Y842D02*
X243Y842D01*
X256Y842D02*
X263Y842D01*
X2747Y842D02*
X2754Y842D01*
X0Y841D02*
X7Y841D01*
X196Y841D02*
X203Y841D01*
X237Y841D02*
X244Y841D01*
X255Y841D02*
X263Y841D01*
X2747Y841D02*
X2754Y841D01*
X0Y840D02*
X7Y840D01*
X196Y840D02*
X203Y840D01*
X237Y840D02*
X262Y840D01*
X2747Y840D02*
X2754Y840D01*
X0Y839D02*
X7Y839D01*
X196Y839D02*
X203Y839D01*
X238Y839D02*
X262Y839D01*
X2747Y839D02*
X2754Y839D01*
X0Y838D02*
X7Y838D01*
X196Y838D02*
X203Y838D01*
X238Y838D02*
X261Y838D01*
X2747Y838D02*
X2754Y838D01*
X0Y837D02*
X7Y837D01*
X197Y837D02*
X202Y837D01*
X239Y837D02*
X260Y837D01*
X2747Y837D02*
X2754Y837D01*
X0Y836D02*
X7Y836D01*
X197Y836D02*
X202Y836D01*
X240Y836D02*
X259Y836D01*
X2747Y836D02*
X2754Y836D01*
X0Y835D02*
X7Y835D01*
X197Y835D02*
X202Y835D01*
X242Y835D02*
X258Y835D01*
X2747Y835D02*
X2754Y835D01*
X0Y834D02*
X7Y834D01*
X198Y834D02*
X200Y834D01*
X244Y834D02*
X255Y834D01*
X2747Y834D02*
X2754Y834D01*
X0Y833D02*
X7Y833D01*
X2747Y833D02*
X2754Y833D01*
X0Y832D02*
X7Y832D01*
X2747Y832D02*
X2754Y832D01*
X0Y831D02*
X7Y831D01*
X2747Y831D02*
X2754Y831D01*
X0Y830D02*
X7Y830D01*
X2747Y830D02*
X2754Y830D01*
X0Y829D02*
X7Y829D01*
X2747Y829D02*
X2754Y829D01*
X0Y828D02*
X7Y828D01*
X2747Y828D02*
X2754Y828D01*
X0Y827D02*
X7Y827D01*
X2747Y827D02*
X2754Y827D01*
X0Y826D02*
X7Y826D01*
X2747Y826D02*
X2754Y826D01*
X0Y825D02*
X7Y825D01*
X2747Y825D02*
X2754Y825D01*
X0Y824D02*
X7Y824D01*
X2747Y824D02*
X2754Y824D01*
X0Y823D02*
X7Y823D01*
X2747Y823D02*
X2754Y823D01*
X0Y822D02*
X7Y822D01*
X2747Y822D02*
X2754Y822D01*
X0Y821D02*
X7Y821D01*
X2747Y821D02*
X2754Y821D01*
X0Y820D02*
X7Y820D01*
X2747Y820D02*
X2754Y820D01*
X0Y819D02*
X7Y819D01*
X2747Y819D02*
X2754Y819D01*
X0Y818D02*
X7Y818D01*
X2747Y818D02*
X2754Y818D01*
X0Y817D02*
X7Y817D01*
X2747Y817D02*
X2754Y817D01*
X0Y816D02*
X7Y816D01*
X2747Y816D02*
X2754Y816D01*
X0Y815D02*
X7Y815D01*
X2747Y815D02*
X2754Y815D01*
X0Y814D02*
X7Y814D01*
X2747Y814D02*
X2754Y814D01*
X0Y813D02*
X7Y813D01*
X2747Y813D02*
X2754Y813D01*
X0Y812D02*
X7Y812D01*
X2747Y812D02*
X2754Y812D01*
X0Y811D02*
X7Y811D01*
X2747Y811D02*
X2754Y811D01*
X0Y810D02*
X7Y810D01*
X2747Y810D02*
X2754Y810D01*
X0Y809D02*
X7Y809D01*
X2747Y809D02*
X2754Y809D01*
X0Y808D02*
X7Y808D01*
X2747Y808D02*
X2754Y808D01*
X0Y807D02*
X7Y807D01*
X2747Y807D02*
X2754Y807D01*
X0Y806D02*
X7Y806D01*
X2747Y806D02*
X2754Y806D01*
X0Y805D02*
X7Y805D01*
X2747Y805D02*
X2754Y805D01*
X0Y804D02*
X7Y804D01*
X2747Y804D02*
X2754Y804D01*
X0Y803D02*
X7Y803D01*
X2747Y803D02*
X2754Y803D01*
X0Y802D02*
X7Y802D01*
X2747Y802D02*
X2754Y802D01*
X0Y801D02*
X7Y801D01*
X2747Y801D02*
X2754Y801D01*
X0Y800D02*
X7Y800D01*
X2747Y800D02*
X2754Y800D01*
X0Y799D02*
X7Y799D01*
X2747Y799D02*
X2754Y799D01*
X0Y798D02*
X7Y798D01*
X2747Y798D02*
X2754Y798D01*
X0Y797D02*
X7Y797D01*
X2747Y797D02*
X2754Y797D01*
X0Y796D02*
X7Y796D01*
X2747Y796D02*
X2754Y796D01*
X0Y795D02*
X7Y795D01*
X2747Y795D02*
X2754Y795D01*
X0Y794D02*
X7Y794D01*
X2747Y794D02*
X2754Y794D01*
X0Y793D02*
X7Y793D01*
X2747Y793D02*
X2754Y793D01*
X0Y792D02*
X7Y792D01*
X2747Y792D02*
X2754Y792D01*
X0Y791D02*
X7Y791D01*
X2747Y791D02*
X2754Y791D01*
X0Y790D02*
X7Y790D01*
X2747Y790D02*
X2754Y790D01*
X0Y789D02*
X7Y789D01*
X2747Y789D02*
X2754Y789D01*
X0Y788D02*
X7Y788D01*
X2747Y788D02*
X2754Y788D01*
X0Y787D02*
X7Y787D01*
X84Y787D02*
X109Y787D01*
X138Y787D02*
X141Y787D01*
X2747Y787D02*
X2754Y787D01*
X0Y786D02*
X7Y786D01*
X83Y786D02*
X109Y786D01*
X137Y786D02*
X142Y786D01*
X2747Y786D02*
X2754Y786D01*
X0Y785D02*
X7Y785D01*
X83Y785D02*
X109Y785D01*
X137Y785D02*
X142Y785D01*
X2747Y785D02*
X2754Y785D01*
X0Y784D02*
X7Y784D01*
X83Y784D02*
X109Y784D01*
X136Y784D02*
X142Y784D01*
X2747Y784D02*
X2754Y784D01*
X0Y783D02*
X7Y783D01*
X83Y783D02*
X109Y783D01*
X136Y783D02*
X142Y783D01*
X2747Y783D02*
X2754Y783D01*
X0Y782D02*
X7Y782D01*
X84Y782D02*
X109Y782D01*
X136Y782D02*
X142Y782D01*
X2747Y782D02*
X2754Y782D01*
X0Y781D02*
X7Y781D01*
X85Y781D02*
X109Y781D01*
X136Y781D02*
X142Y781D01*
X2747Y781D02*
X2754Y781D01*
X0Y780D02*
X7Y780D01*
X103Y780D02*
X109Y780D01*
X136Y780D02*
X142Y780D01*
X2747Y780D02*
X2754Y780D01*
X0Y779D02*
X7Y779D01*
X103Y779D02*
X109Y779D01*
X136Y779D02*
X142Y779D01*
X2747Y779D02*
X2754Y779D01*
X0Y778D02*
X7Y778D01*
X103Y778D02*
X109Y778D01*
X136Y778D02*
X142Y778D01*
X2747Y778D02*
X2754Y778D01*
X0Y777D02*
X7Y777D01*
X103Y777D02*
X109Y777D01*
X136Y777D02*
X142Y777D01*
X2747Y777D02*
X2754Y777D01*
X0Y776D02*
X7Y776D01*
X103Y776D02*
X109Y776D01*
X136Y776D02*
X142Y776D01*
X2747Y776D02*
X2754Y776D01*
X0Y775D02*
X7Y775D01*
X103Y775D02*
X109Y775D01*
X136Y775D02*
X142Y775D01*
X2747Y775D02*
X2754Y775D01*
X0Y774D02*
X7Y774D01*
X103Y774D02*
X109Y774D01*
X136Y774D02*
X142Y774D01*
X2747Y774D02*
X2754Y774D01*
X0Y773D02*
X7Y773D01*
X103Y773D02*
X109Y773D01*
X136Y773D02*
X142Y773D01*
X2747Y773D02*
X2754Y773D01*
X0Y772D02*
X7Y772D01*
X103Y772D02*
X109Y772D01*
X136Y772D02*
X142Y772D01*
X2747Y772D02*
X2754Y772D01*
X0Y771D02*
X7Y771D01*
X103Y771D02*
X109Y771D01*
X136Y771D02*
X142Y771D01*
X2747Y771D02*
X2754Y771D01*
X0Y770D02*
X7Y770D01*
X103Y770D02*
X109Y770D01*
X136Y770D02*
X142Y770D01*
X2747Y770D02*
X2754Y770D01*
X0Y769D02*
X7Y769D01*
X103Y769D02*
X109Y769D01*
X136Y769D02*
X142Y769D01*
X2747Y769D02*
X2754Y769D01*
X0Y768D02*
X7Y768D01*
X103Y768D02*
X109Y768D01*
X136Y768D02*
X142Y768D01*
X2747Y768D02*
X2754Y768D01*
X0Y767D02*
X7Y767D01*
X103Y767D02*
X109Y767D01*
X136Y767D02*
X142Y767D01*
X2747Y767D02*
X2754Y767D01*
X0Y766D02*
X7Y766D01*
X103Y766D02*
X109Y766D01*
X136Y766D02*
X142Y766D01*
X2747Y766D02*
X2754Y766D01*
X0Y765D02*
X7Y765D01*
X103Y765D02*
X109Y765D01*
X136Y765D02*
X142Y765D01*
X2747Y765D02*
X2754Y765D01*
X0Y764D02*
X7Y764D01*
X88Y764D02*
X109Y764D01*
X136Y764D02*
X142Y764D01*
X2747Y764D02*
X2754Y764D01*
X0Y763D02*
X7Y763D01*
X86Y763D02*
X109Y763D01*
X136Y763D02*
X142Y763D01*
X2747Y763D02*
X2754Y763D01*
X0Y762D02*
X7Y762D01*
X85Y762D02*
X109Y762D01*
X136Y762D02*
X142Y762D01*
X2747Y762D02*
X2754Y762D01*
X0Y761D02*
X7Y761D01*
X84Y761D02*
X109Y761D01*
X136Y761D02*
X142Y761D01*
X2747Y761D02*
X2754Y761D01*
X0Y760D02*
X7Y760D01*
X83Y760D02*
X109Y760D01*
X136Y760D02*
X142Y760D01*
X2747Y760D02*
X2754Y760D01*
X0Y759D02*
X7Y759D01*
X83Y759D02*
X109Y759D01*
X136Y759D02*
X142Y759D01*
X2747Y759D02*
X2754Y759D01*
X0Y758D02*
X7Y758D01*
X83Y758D02*
X109Y758D01*
X136Y758D02*
X142Y758D01*
X159Y758D02*
X161Y758D01*
X2747Y758D02*
X2754Y758D01*
X0Y757D02*
X7Y757D01*
X83Y757D02*
X89Y757D01*
X136Y757D02*
X142Y757D01*
X158Y757D02*
X162Y757D01*
X2747Y757D02*
X2754Y757D01*
X0Y756D02*
X7Y756D01*
X83Y756D02*
X89Y756D01*
X136Y756D02*
X142Y756D01*
X157Y756D02*
X163Y756D01*
X2747Y756D02*
X2754Y756D01*
X0Y755D02*
X7Y755D01*
X83Y755D02*
X89Y755D01*
X136Y755D02*
X142Y755D01*
X157Y755D02*
X163Y755D01*
X2747Y755D02*
X2754Y755D01*
X0Y754D02*
X7Y754D01*
X83Y754D02*
X89Y754D01*
X136Y754D02*
X142Y754D01*
X157Y754D02*
X163Y754D01*
X2747Y754D02*
X2754Y754D01*
X0Y753D02*
X7Y753D01*
X83Y753D02*
X89Y753D01*
X136Y753D02*
X142Y753D01*
X157Y753D02*
X163Y753D01*
X2747Y753D02*
X2754Y753D01*
X0Y752D02*
X7Y752D01*
X83Y752D02*
X89Y752D01*
X136Y752D02*
X142Y752D01*
X157Y752D02*
X163Y752D01*
X2747Y752D02*
X2754Y752D01*
X0Y751D02*
X7Y751D01*
X83Y751D02*
X89Y751D01*
X136Y751D02*
X142Y751D01*
X157Y751D02*
X163Y751D01*
X2747Y751D02*
X2754Y751D01*
X0Y750D02*
X7Y750D01*
X83Y750D02*
X89Y750D01*
X136Y750D02*
X142Y750D01*
X157Y750D02*
X163Y750D01*
X2747Y750D02*
X2754Y750D01*
X0Y749D02*
X7Y749D01*
X83Y749D02*
X89Y749D01*
X136Y749D02*
X142Y749D01*
X157Y749D02*
X163Y749D01*
X2747Y749D02*
X2754Y749D01*
X0Y748D02*
X7Y748D01*
X83Y748D02*
X89Y748D01*
X136Y748D02*
X142Y748D01*
X157Y748D02*
X163Y748D01*
X2747Y748D02*
X2754Y748D01*
X0Y747D02*
X7Y747D01*
X83Y747D02*
X89Y747D01*
X136Y747D02*
X142Y747D01*
X157Y747D02*
X163Y747D01*
X2747Y747D02*
X2754Y747D01*
X0Y746D02*
X7Y746D01*
X83Y746D02*
X89Y746D01*
X136Y746D02*
X142Y746D01*
X157Y746D02*
X163Y746D01*
X2747Y746D02*
X2754Y746D01*
X0Y745D02*
X7Y745D01*
X83Y745D02*
X89Y745D01*
X136Y745D02*
X142Y745D01*
X157Y745D02*
X163Y745D01*
X2747Y745D02*
X2754Y745D01*
X0Y744D02*
X7Y744D01*
X83Y744D02*
X89Y744D01*
X136Y744D02*
X142Y744D01*
X157Y744D02*
X163Y744D01*
X2747Y744D02*
X2754Y744D01*
X0Y743D02*
X7Y743D01*
X83Y743D02*
X89Y743D01*
X112Y743D02*
X115Y743D01*
X136Y743D02*
X143Y743D01*
X157Y743D02*
X163Y743D01*
X2747Y743D02*
X2754Y743D01*
X0Y742D02*
X7Y742D01*
X83Y742D02*
X89Y742D01*
X109Y742D02*
X116Y742D01*
X137Y742D02*
X143Y742D01*
X156Y742D02*
X163Y742D01*
X2747Y742D02*
X2754Y742D01*
X0Y741D02*
X7Y741D01*
X83Y741D02*
X89Y741D01*
X107Y741D02*
X116Y741D01*
X137Y741D02*
X144Y741D01*
X155Y741D02*
X163Y741D01*
X2747Y741D02*
X2754Y741D01*
X0Y740D02*
X7Y740D01*
X83Y740D02*
X116Y740D01*
X137Y740D02*
X162Y740D01*
X2747Y740D02*
X2754Y740D01*
X0Y739D02*
X7Y739D01*
X83Y739D02*
X116Y739D01*
X138Y739D02*
X162Y739D01*
X428Y739D02*
X428Y739D01*
X2747Y739D02*
X2754Y739D01*
X0Y738D02*
X7Y738D01*
X83Y738D02*
X116Y738D01*
X138Y738D02*
X161Y738D01*
X427Y738D02*
X429Y738D01*
X2747Y738D02*
X2754Y738D01*
X0Y737D02*
X7Y737D01*
X84Y737D02*
X115Y737D01*
X139Y737D02*
X160Y737D01*
X426Y737D02*
X430Y737D01*
X2747Y737D02*
X2754Y737D01*
X0Y736D02*
X7Y736D01*
X85Y736D02*
X112Y736D01*
X140Y736D02*
X159Y736D01*
X425Y736D02*
X431Y736D01*
X2747Y736D02*
X2754Y736D01*
X0Y735D02*
X7Y735D01*
X86Y735D02*
X110Y735D01*
X142Y735D02*
X158Y735D01*
X424Y735D02*
X430Y735D01*
X2747Y735D02*
X2754Y735D01*
X0Y734D02*
X7Y734D01*
X88Y734D02*
X107Y734D01*
X144Y734D02*
X155Y734D01*
X423Y734D02*
X429Y734D01*
X2747Y734D02*
X2754Y734D01*
X0Y733D02*
X7Y733D01*
X422Y733D02*
X428Y733D01*
X2747Y733D02*
X2754Y733D01*
X0Y732D02*
X7Y732D01*
X421Y732D02*
X427Y732D01*
X2747Y732D02*
X2754Y732D01*
X0Y731D02*
X7Y731D01*
X420Y731D02*
X426Y731D01*
X2747Y731D02*
X2754Y731D01*
X0Y730D02*
X7Y730D01*
X419Y730D02*
X425Y730D01*
X2747Y730D02*
X2754Y730D01*
X0Y729D02*
X7Y729D01*
X418Y729D02*
X424Y729D01*
X2747Y729D02*
X2754Y729D01*
X0Y728D02*
X7Y728D01*
X417Y728D02*
X423Y728D01*
X2747Y728D02*
X2754Y728D01*
X0Y727D02*
X7Y727D01*
X416Y727D02*
X422Y727D01*
X2747Y727D02*
X2754Y727D01*
X0Y726D02*
X7Y726D01*
X415Y726D02*
X421Y726D01*
X2747Y726D02*
X2754Y726D01*
X0Y725D02*
X7Y725D01*
X414Y725D02*
X420Y725D01*
X2747Y725D02*
X2754Y725D01*
X0Y724D02*
X7Y724D01*
X413Y724D02*
X419Y724D01*
X2747Y724D02*
X2754Y724D01*
X0Y723D02*
X7Y723D01*
X412Y723D02*
X418Y723D01*
X2747Y723D02*
X2754Y723D01*
X0Y722D02*
X7Y722D01*
X411Y722D02*
X416Y722D01*
X2747Y722D02*
X2754Y722D01*
X0Y721D02*
X7Y721D01*
X410Y721D02*
X415Y721D01*
X2747Y721D02*
X2754Y721D01*
X0Y720D02*
X7Y720D01*
X409Y720D02*
X414Y720D01*
X2747Y720D02*
X2754Y720D01*
X0Y719D02*
X7Y719D01*
X408Y719D02*
X413Y719D01*
X2747Y719D02*
X2754Y719D01*
X0Y718D02*
X7Y718D01*
X407Y718D02*
X412Y718D01*
X2747Y718D02*
X2754Y718D01*
X0Y717D02*
X7Y717D01*
X406Y717D02*
X411Y717D01*
X2747Y717D02*
X2754Y717D01*
X0Y716D02*
X7Y716D01*
X405Y716D02*
X410Y716D01*
X2747Y716D02*
X2754Y716D01*
X0Y715D02*
X7Y715D01*
X404Y715D02*
X410Y715D01*
X2747Y715D02*
X2754Y715D01*
X0Y714D02*
X7Y714D01*
X403Y714D02*
X409Y714D01*
X2747Y714D02*
X2754Y714D01*
X0Y713D02*
X7Y713D01*
X402Y713D02*
X408Y713D01*
X2747Y713D02*
X2754Y713D01*
X0Y712D02*
X7Y712D01*
X401Y712D02*
X407Y712D01*
X2747Y712D02*
X2754Y712D01*
X0Y711D02*
X7Y711D01*
X400Y711D02*
X406Y711D01*
X2747Y711D02*
X2754Y711D01*
X0Y710D02*
X7Y710D01*
X399Y710D02*
X405Y710D01*
X2747Y710D02*
X2754Y710D01*
X0Y709D02*
X7Y709D01*
X398Y709D02*
X404Y709D01*
X2747Y709D02*
X2754Y709D01*
X0Y708D02*
X7Y708D01*
X397Y708D02*
X403Y708D01*
X2747Y708D02*
X2754Y708D01*
X0Y707D02*
X7Y707D01*
X396Y707D02*
X402Y707D01*
X2747Y707D02*
X2754Y707D01*
X0Y706D02*
X7Y706D01*
X395Y706D02*
X401Y706D01*
X2747Y706D02*
X2754Y706D01*
X0Y705D02*
X7Y705D01*
X394Y705D02*
X400Y705D01*
X2747Y705D02*
X2754Y705D01*
X0Y704D02*
X7Y704D01*
X394Y704D02*
X399Y704D01*
X2747Y704D02*
X2754Y704D01*
X0Y703D02*
X7Y703D01*
X395Y703D02*
X398Y703D01*
X2747Y703D02*
X2754Y703D01*
X0Y702D02*
X7Y702D01*
X396Y702D02*
X397Y702D01*
X2747Y702D02*
X2754Y702D01*
X0Y701D02*
X7Y701D01*
X2747Y701D02*
X2754Y701D01*
X0Y700D02*
X7Y700D01*
X2747Y700D02*
X2754Y700D01*
X0Y699D02*
X7Y699D01*
X2747Y699D02*
X2754Y699D01*
X0Y698D02*
X7Y698D01*
X2747Y698D02*
X2754Y698D01*
X0Y697D02*
X7Y697D01*
X2747Y697D02*
X2754Y697D01*
X0Y696D02*
X7Y696D01*
X2747Y696D02*
X2754Y696D01*
X0Y695D02*
X7Y695D01*
X2747Y695D02*
X2754Y695D01*
X0Y694D02*
X7Y694D01*
X2747Y694D02*
X2754Y694D01*
X0Y693D02*
X7Y693D01*
X2747Y693D02*
X2754Y693D01*
X0Y692D02*
X7Y692D01*
X2747Y692D02*
X2754Y692D01*
X0Y691D02*
X7Y691D01*
X2747Y691D02*
X2754Y691D01*
X0Y690D02*
X7Y690D01*
X2747Y690D02*
X2754Y690D01*
X0Y689D02*
X7Y689D01*
X2747Y689D02*
X2754Y689D01*
X0Y688D02*
X7Y688D01*
X2747Y688D02*
X2754Y688D01*
X0Y687D02*
X7Y687D01*
X2747Y687D02*
X2754Y687D01*
X0Y686D02*
X7Y686D01*
X2747Y686D02*
X2754Y686D01*
X0Y685D02*
X7Y685D01*
X2747Y685D02*
X2754Y685D01*
X0Y684D02*
X7Y684D01*
X2747Y684D02*
X2754Y684D01*
X0Y683D02*
X7Y683D01*
X2747Y683D02*
X2754Y683D01*
X0Y682D02*
X7Y682D01*
X2747Y682D02*
X2754Y682D01*
X0Y681D02*
X7Y681D01*
X2747Y681D02*
X2754Y681D01*
X0Y680D02*
X7Y680D01*
X2747Y680D02*
X2754Y680D01*
X0Y679D02*
X7Y679D01*
X2747Y679D02*
X2754Y679D01*
X0Y678D02*
X7Y678D01*
X2747Y678D02*
X2754Y678D01*
X0Y677D02*
X7Y677D01*
X2747Y677D02*
X2754Y677D01*
X0Y676D02*
X7Y676D01*
X2747Y676D02*
X2754Y676D01*
X0Y675D02*
X7Y675D01*
X2747Y675D02*
X2754Y675D01*
X0Y674D02*
X7Y674D01*
X2747Y674D02*
X2754Y674D01*
X0Y673D02*
X7Y673D01*
X2747Y673D02*
X2754Y673D01*
X0Y672D02*
X7Y672D01*
X2747Y672D02*
X2754Y672D01*
X0Y671D02*
X7Y671D01*
X2747Y671D02*
X2754Y671D01*
X0Y670D02*
X7Y670D01*
X2747Y670D02*
X2754Y670D01*
X0Y669D02*
X7Y669D01*
X2747Y669D02*
X2754Y669D01*
X0Y668D02*
X7Y668D01*
X2747Y668D02*
X2754Y668D01*
X0Y667D02*
X7Y667D01*
X2747Y667D02*
X2754Y667D01*
X0Y666D02*
X7Y666D01*
X2747Y666D02*
X2754Y666D01*
X0Y665D02*
X7Y665D01*
X2747Y665D02*
X2754Y665D01*
X0Y664D02*
X7Y664D01*
X2747Y664D02*
X2754Y664D01*
X0Y663D02*
X7Y663D01*
X2747Y663D02*
X2754Y663D01*
X0Y662D02*
X7Y662D01*
X2747Y662D02*
X2754Y662D01*
X0Y661D02*
X7Y661D01*
X2747Y661D02*
X2754Y661D01*
X0Y660D02*
X7Y660D01*
X2747Y660D02*
X2754Y660D01*
X0Y659D02*
X7Y659D01*
X2747Y659D02*
X2754Y659D01*
X0Y658D02*
X7Y658D01*
X2747Y658D02*
X2754Y658D01*
X0Y657D02*
X7Y657D01*
X2747Y657D02*
X2754Y657D01*
X0Y656D02*
X7Y656D01*
X2747Y656D02*
X2754Y656D01*
X0Y655D02*
X7Y655D01*
X2747Y655D02*
X2754Y655D01*
X0Y654D02*
X7Y654D01*
X2747Y654D02*
X2754Y654D01*
X0Y653D02*
X7Y653D01*
X2747Y653D02*
X2754Y653D01*
X0Y652D02*
X7Y652D01*
X2747Y652D02*
X2754Y652D01*
X0Y651D02*
X7Y651D01*
X2747Y651D02*
X2754Y651D01*
X0Y650D02*
X7Y650D01*
X2747Y650D02*
X2754Y650D01*
X0Y649D02*
X7Y649D01*
X2747Y649D02*
X2754Y649D01*
X0Y648D02*
X7Y648D01*
X2747Y648D02*
X2754Y648D01*
X0Y647D02*
X7Y647D01*
X2747Y647D02*
X2754Y647D01*
X0Y646D02*
X7Y646D01*
X2747Y646D02*
X2754Y646D01*
X0Y645D02*
X7Y645D01*
X2747Y645D02*
X2754Y645D01*
X0Y644D02*
X7Y644D01*
X2747Y644D02*
X2754Y644D01*
X0Y643D02*
X7Y643D01*
X2747Y643D02*
X2754Y643D01*
X0Y642D02*
X7Y642D01*
X2747Y642D02*
X2754Y642D01*
X0Y641D02*
X7Y641D01*
X2747Y641D02*
X2754Y641D01*
X0Y640D02*
X7Y640D01*
X2747Y640D02*
X2754Y640D01*
X0Y639D02*
X7Y639D01*
X178Y639D02*
X178Y639D01*
X2747Y639D02*
X2754Y639D01*
X0Y638D02*
X7Y638D01*
X177Y638D02*
X179Y638D01*
X2747Y638D02*
X2754Y638D01*
X0Y637D02*
X7Y637D01*
X176Y637D02*
X180Y637D01*
X2747Y637D02*
X2754Y637D01*
X0Y636D02*
X7Y636D01*
X175Y636D02*
X181Y636D01*
X2747Y636D02*
X2754Y636D01*
X0Y635D02*
X7Y635D01*
X174Y635D02*
X180Y635D01*
X2747Y635D02*
X2754Y635D01*
X0Y634D02*
X7Y634D01*
X173Y634D02*
X179Y634D01*
X2747Y634D02*
X2754Y634D01*
X0Y633D02*
X7Y633D01*
X172Y633D02*
X178Y633D01*
X2747Y633D02*
X2754Y633D01*
X0Y632D02*
X7Y632D01*
X171Y632D02*
X177Y632D01*
X2747Y632D02*
X2754Y632D01*
X0Y631D02*
X7Y631D01*
X170Y631D02*
X176Y631D01*
X2747Y631D02*
X2754Y631D01*
X0Y630D02*
X7Y630D01*
X169Y630D02*
X175Y630D01*
X2747Y630D02*
X2754Y630D01*
X0Y629D02*
X7Y629D01*
X168Y629D02*
X174Y629D01*
X2747Y629D02*
X2754Y629D01*
X0Y628D02*
X7Y628D01*
X167Y628D02*
X173Y628D01*
X2747Y628D02*
X2754Y628D01*
X0Y627D02*
X7Y627D01*
X166Y627D02*
X172Y627D01*
X2747Y627D02*
X2754Y627D01*
X0Y626D02*
X7Y626D01*
X165Y626D02*
X171Y626D01*
X2747Y626D02*
X2754Y626D01*
X0Y625D02*
X7Y625D01*
X164Y625D02*
X170Y625D01*
X2747Y625D02*
X2754Y625D01*
X0Y624D02*
X7Y624D01*
X163Y624D02*
X169Y624D01*
X2747Y624D02*
X2754Y624D01*
X0Y623D02*
X7Y623D01*
X162Y623D02*
X168Y623D01*
X2747Y623D02*
X2754Y623D01*
X0Y622D02*
X7Y622D01*
X161Y622D02*
X167Y622D01*
X2747Y622D02*
X2754Y622D01*
X0Y621D02*
X7Y621D01*
X160Y621D02*
X165Y621D01*
X2747Y621D02*
X2754Y621D01*
X0Y620D02*
X7Y620D01*
X159Y620D02*
X164Y620D01*
X2747Y620D02*
X2754Y620D01*
X0Y619D02*
X7Y619D01*
X158Y619D02*
X163Y619D01*
X2747Y619D02*
X2754Y619D01*
X0Y618D02*
X7Y618D01*
X157Y618D02*
X162Y618D01*
X2747Y618D02*
X2754Y618D01*
X0Y617D02*
X7Y617D01*
X156Y617D02*
X161Y617D01*
X2747Y617D02*
X2754Y617D01*
X0Y616D02*
X7Y616D01*
X155Y616D02*
X161Y616D01*
X2747Y616D02*
X2754Y616D01*
X0Y615D02*
X7Y615D01*
X154Y615D02*
X160Y615D01*
X2747Y615D02*
X2754Y615D01*
X0Y614D02*
X7Y614D01*
X153Y614D02*
X159Y614D01*
X2747Y614D02*
X2754Y614D01*
X0Y613D02*
X7Y613D01*
X152Y613D02*
X158Y613D01*
X2747Y613D02*
X2754Y613D01*
X0Y612D02*
X7Y612D01*
X151Y612D02*
X157Y612D01*
X2747Y612D02*
X2754Y612D01*
X0Y611D02*
X7Y611D01*
X150Y611D02*
X156Y611D01*
X2747Y611D02*
X2754Y611D01*
X0Y610D02*
X7Y610D01*
X149Y610D02*
X155Y610D01*
X2747Y610D02*
X2754Y610D01*
X0Y609D02*
X7Y609D01*
X148Y609D02*
X154Y609D01*
X2747Y609D02*
X2754Y609D01*
X0Y608D02*
X7Y608D01*
X147Y608D02*
X153Y608D01*
X2747Y608D02*
X2754Y608D01*
X0Y607D02*
X7Y607D01*
X146Y607D02*
X152Y607D01*
X2747Y607D02*
X2754Y607D01*
X0Y606D02*
X7Y606D01*
X145Y606D02*
X151Y606D01*
X335Y606D02*
X342Y606D01*
X2747Y606D02*
X2754Y606D01*
X0Y605D02*
X7Y605D01*
X144Y605D02*
X150Y605D01*
X336Y605D02*
X344Y605D01*
X2747Y605D02*
X2754Y605D01*
X0Y604D02*
X7Y604D01*
X144Y604D02*
X149Y604D01*
X336Y604D02*
X345Y604D01*
X2747Y604D02*
X2754Y604D01*
X0Y603D02*
X7Y603D01*
X145Y603D02*
X148Y603D01*
X337Y603D02*
X346Y603D01*
X2747Y603D02*
X2754Y603D01*
X0Y602D02*
X7Y602D01*
X146Y602D02*
X147Y602D01*
X337Y602D02*
X347Y602D01*
X2747Y602D02*
X2754Y602D01*
X0Y601D02*
X7Y601D01*
X337Y601D02*
X347Y601D01*
X2747Y601D02*
X2754Y601D01*
X0Y600D02*
X7Y600D01*
X337Y600D02*
X348Y600D01*
X2747Y600D02*
X2754Y600D01*
X0Y599D02*
X7Y599D01*
X341Y599D02*
X348Y599D01*
X2747Y599D02*
X2754Y599D01*
X0Y598D02*
X7Y598D01*
X342Y598D02*
X348Y598D01*
X2747Y598D02*
X2754Y598D01*
X0Y597D02*
X7Y597D01*
X342Y597D02*
X348Y597D01*
X2747Y597D02*
X2754Y597D01*
X0Y596D02*
X7Y596D01*
X343Y596D02*
X349Y596D01*
X2747Y596D02*
X2754Y596D01*
X0Y595D02*
X7Y595D01*
X343Y595D02*
X349Y595D01*
X2747Y595D02*
X2754Y595D01*
X0Y594D02*
X7Y594D01*
X343Y594D02*
X349Y594D01*
X2747Y594D02*
X2754Y594D01*
X0Y593D02*
X7Y593D01*
X343Y593D02*
X349Y593D01*
X2747Y593D02*
X2754Y593D01*
X0Y592D02*
X7Y592D01*
X343Y592D02*
X349Y592D01*
X2747Y592D02*
X2754Y592D01*
X0Y591D02*
X7Y591D01*
X343Y591D02*
X349Y591D01*
X2747Y591D02*
X2754Y591D01*
X0Y590D02*
X7Y590D01*
X343Y590D02*
X349Y590D01*
X2747Y590D02*
X2754Y590D01*
X0Y589D02*
X7Y589D01*
X342Y589D02*
X349Y589D01*
X2061Y589D02*
X2061Y589D01*
X2161Y589D02*
X2161Y589D01*
X2747Y589D02*
X2754Y589D01*
X0Y588D02*
X7Y588D01*
X342Y588D02*
X348Y588D01*
X2060Y588D02*
X2062Y588D01*
X2160Y588D02*
X2162Y588D01*
X2747Y588D02*
X2754Y588D01*
X0Y587D02*
X7Y587D01*
X239Y587D02*
X241Y587D01*
X341Y587D02*
X348Y587D01*
X2059Y587D02*
X2063Y587D01*
X2159Y587D02*
X2163Y587D01*
X2747Y587D02*
X2754Y587D01*
X0Y586D02*
X7Y586D01*
X239Y586D02*
X242Y586D01*
X339Y586D02*
X348Y586D01*
X2058Y586D02*
X2064Y586D01*
X2158Y586D02*
X2164Y586D01*
X2747Y586D02*
X2754Y586D01*
X0Y585D02*
X7Y585D01*
X239Y585D02*
X242Y585D01*
X339Y585D02*
X348Y585D01*
X2059Y585D02*
X2065Y585D01*
X2159Y585D02*
X2165Y585D01*
X2747Y585D02*
X2754Y585D01*
X0Y584D02*
X7Y584D01*
X239Y584D02*
X242Y584D01*
X339Y584D02*
X347Y584D01*
X2060Y584D02*
X2066Y584D01*
X2160Y584D02*
X2166Y584D01*
X2747Y584D02*
X2754Y584D01*
X0Y583D02*
X7Y583D01*
X239Y583D02*
X242Y583D01*
X339Y583D02*
X346Y583D01*
X2061Y583D02*
X2067Y583D01*
X2161Y583D02*
X2167Y583D01*
X2747Y583D02*
X2754Y583D01*
X0Y582D02*
X7Y582D01*
X239Y582D02*
X242Y582D01*
X339Y582D02*
X345Y582D01*
X2062Y582D02*
X2068Y582D01*
X2162Y582D02*
X2168Y582D01*
X2747Y582D02*
X2754Y582D01*
X0Y581D02*
X7Y581D01*
X239Y581D02*
X242Y581D01*
X339Y581D02*
X344Y581D01*
X2063Y581D02*
X2069Y581D01*
X2163Y581D02*
X2169Y581D01*
X2747Y581D02*
X2754Y581D01*
X0Y580D02*
X7Y580D01*
X238Y580D02*
X242Y580D01*
X338Y580D02*
X343Y580D01*
X2064Y580D02*
X2070Y580D01*
X2164Y580D02*
X2170Y580D01*
X2747Y580D02*
X2754Y580D01*
X0Y579D02*
X7Y579D01*
X238Y579D02*
X242Y579D01*
X338Y579D02*
X338Y579D01*
X2065Y579D02*
X2071Y579D01*
X2165Y579D02*
X2171Y579D01*
X2747Y579D02*
X2754Y579D01*
X0Y578D02*
X7Y578D01*
X238Y578D02*
X242Y578D01*
X2066Y578D02*
X2072Y578D01*
X2166Y578D02*
X2172Y578D01*
X2747Y578D02*
X2754Y578D01*
X0Y577D02*
X7Y577D01*
X238Y577D02*
X242Y577D01*
X2067Y577D02*
X2073Y577D01*
X2167Y577D02*
X2173Y577D01*
X2747Y577D02*
X2754Y577D01*
X0Y576D02*
X7Y576D01*
X238Y576D02*
X242Y576D01*
X2068Y576D02*
X2074Y576D01*
X2168Y576D02*
X2174Y576D01*
X2747Y576D02*
X2754Y576D01*
X0Y575D02*
X7Y575D01*
X237Y575D02*
X242Y575D01*
X2069Y575D02*
X2075Y575D01*
X2169Y575D02*
X2175Y575D01*
X2747Y575D02*
X2754Y575D01*
X0Y574D02*
X7Y574D01*
X237Y574D02*
X242Y574D01*
X2070Y574D02*
X2076Y574D01*
X2170Y574D02*
X2176Y574D01*
X2747Y574D02*
X2754Y574D01*
X0Y573D02*
X7Y573D01*
X237Y573D02*
X242Y573D01*
X2071Y573D02*
X2077Y573D01*
X2171Y573D02*
X2177Y573D01*
X2747Y573D02*
X2754Y573D01*
X0Y572D02*
X7Y572D01*
X236Y572D02*
X242Y572D01*
X2072Y572D02*
X2078Y572D01*
X2172Y572D02*
X2178Y572D01*
X2747Y572D02*
X2754Y572D01*
X0Y571D02*
X7Y571D01*
X236Y571D02*
X242Y571D01*
X2074Y571D02*
X2079Y571D01*
X2174Y571D02*
X2179Y571D01*
X2747Y571D02*
X2754Y571D01*
X0Y570D02*
X7Y570D01*
X236Y570D02*
X242Y570D01*
X2075Y570D02*
X2080Y570D01*
X2175Y570D02*
X2180Y570D01*
X2747Y570D02*
X2754Y570D01*
X0Y569D02*
X7Y569D01*
X236Y569D02*
X242Y569D01*
X2076Y569D02*
X2081Y569D01*
X2176Y569D02*
X2181Y569D01*
X2747Y569D02*
X2754Y569D01*
X0Y568D02*
X7Y568D01*
X236Y568D02*
X242Y568D01*
X2077Y568D02*
X2082Y568D01*
X2177Y568D02*
X2182Y568D01*
X2747Y568D02*
X2754Y568D01*
X0Y567D02*
X7Y567D01*
X236Y567D02*
X242Y567D01*
X2078Y567D02*
X2083Y567D01*
X2178Y567D02*
X2183Y567D01*
X2747Y567D02*
X2754Y567D01*
X0Y566D02*
X7Y566D01*
X236Y566D02*
X242Y566D01*
X2079Y566D02*
X2084Y566D01*
X2178Y566D02*
X2184Y566D01*
X2747Y566D02*
X2754Y566D01*
X0Y565D02*
X7Y565D01*
X236Y565D02*
X242Y565D01*
X2079Y565D02*
X2085Y565D01*
X2179Y565D02*
X2185Y565D01*
X2747Y565D02*
X2754Y565D01*
X0Y564D02*
X7Y564D01*
X236Y564D02*
X242Y564D01*
X2080Y564D02*
X2086Y564D01*
X2180Y564D02*
X2186Y564D01*
X2747Y564D02*
X2754Y564D01*
X0Y563D02*
X7Y563D01*
X236Y563D02*
X242Y563D01*
X2081Y563D02*
X2087Y563D01*
X2181Y563D02*
X2187Y563D01*
X2747Y563D02*
X2754Y563D01*
X0Y562D02*
X7Y562D01*
X236Y562D02*
X242Y562D01*
X2082Y562D02*
X2088Y562D01*
X2182Y562D02*
X2188Y562D01*
X2747Y562D02*
X2754Y562D01*
X0Y561D02*
X7Y561D01*
X236Y561D02*
X242Y561D01*
X2083Y561D02*
X2089Y561D01*
X2183Y561D02*
X2189Y561D01*
X2747Y561D02*
X2754Y561D01*
X0Y560D02*
X7Y560D01*
X236Y560D02*
X242Y560D01*
X2084Y560D02*
X2090Y560D01*
X2184Y560D02*
X2190Y560D01*
X2747Y560D02*
X2754Y560D01*
X0Y559D02*
X7Y559D01*
X236Y559D02*
X242Y559D01*
X344Y559D02*
X347Y559D01*
X2085Y559D02*
X2091Y559D01*
X2185Y559D02*
X2191Y559D01*
X2747Y559D02*
X2754Y559D01*
X0Y558D02*
X7Y558D01*
X236Y558D02*
X242Y558D01*
X259Y558D02*
X261Y558D01*
X343Y558D02*
X348Y558D01*
X2086Y558D02*
X2092Y558D01*
X2186Y558D02*
X2192Y558D01*
X2747Y558D02*
X2754Y558D01*
X0Y557D02*
X7Y557D01*
X236Y557D02*
X242Y557D01*
X258Y557D02*
X262Y557D01*
X343Y557D02*
X348Y557D01*
X2087Y557D02*
X2093Y557D01*
X2187Y557D02*
X2193Y557D01*
X2747Y557D02*
X2754Y557D01*
X0Y556D02*
X7Y556D01*
X236Y556D02*
X242Y556D01*
X257Y556D02*
X263Y556D01*
X343Y556D02*
X349Y556D01*
X2088Y556D02*
X2094Y556D01*
X2188Y556D02*
X2194Y556D01*
X2747Y556D02*
X2754Y556D01*
X0Y555D02*
X7Y555D01*
X236Y555D02*
X242Y555D01*
X257Y555D02*
X263Y555D01*
X343Y555D02*
X349Y555D01*
X2089Y555D02*
X2095Y555D01*
X2189Y555D02*
X2195Y555D01*
X2747Y555D02*
X2754Y555D01*
X0Y554D02*
X7Y554D01*
X236Y554D02*
X242Y554D01*
X257Y554D02*
X263Y554D01*
X343Y554D02*
X349Y554D01*
X2090Y554D02*
X2095Y554D01*
X2190Y554D02*
X2195Y554D01*
X2747Y554D02*
X2754Y554D01*
X0Y553D02*
X7Y553D01*
X236Y553D02*
X242Y553D01*
X257Y553D02*
X263Y553D01*
X343Y553D02*
X349Y553D01*
X2091Y553D02*
X2094Y553D01*
X2191Y553D02*
X2194Y553D01*
X2747Y553D02*
X2754Y553D01*
X0Y552D02*
X7Y552D01*
X236Y552D02*
X242Y552D01*
X257Y552D02*
X263Y552D01*
X343Y552D02*
X349Y552D01*
X2092Y552D02*
X2093Y552D01*
X2192Y552D02*
X2193Y552D01*
X2747Y552D02*
X2754Y552D01*
X0Y551D02*
X7Y551D01*
X236Y551D02*
X242Y551D01*
X257Y551D02*
X263Y551D01*
X343Y551D02*
X349Y551D01*
X2747Y551D02*
X2754Y551D01*
X0Y550D02*
X7Y550D01*
X236Y550D02*
X242Y550D01*
X257Y550D02*
X263Y550D01*
X343Y550D02*
X349Y550D01*
X2747Y550D02*
X2754Y550D01*
X0Y549D02*
X7Y549D01*
X216Y549D02*
X216Y549D01*
X236Y549D02*
X242Y549D01*
X257Y549D02*
X263Y549D01*
X343Y549D02*
X349Y549D01*
X2747Y549D02*
X2754Y549D01*
X0Y548D02*
X7Y548D01*
X214Y548D02*
X216Y548D01*
X236Y548D02*
X242Y548D01*
X257Y548D02*
X263Y548D01*
X343Y548D02*
X349Y548D01*
X2747Y548D02*
X2754Y548D01*
X0Y547D02*
X7Y547D01*
X211Y547D02*
X216Y547D01*
X236Y547D02*
X242Y547D01*
X257Y547D02*
X263Y547D01*
X343Y547D02*
X349Y547D01*
X2747Y547D02*
X2754Y547D01*
X0Y546D02*
X7Y546D01*
X210Y546D02*
X216Y546D01*
X236Y546D02*
X242Y546D01*
X257Y546D02*
X263Y546D01*
X308Y546D02*
X349Y546D01*
X2747Y546D02*
X2754Y546D01*
X0Y545D02*
X7Y545D01*
X183Y545D02*
X185Y545D01*
X210Y545D02*
X216Y545D01*
X236Y545D02*
X242Y545D01*
X257Y545D02*
X263Y545D01*
X305Y545D02*
X349Y545D01*
X2747Y545D02*
X2754Y545D01*
X0Y544D02*
X7Y544D01*
X183Y544D02*
X189Y544D01*
X210Y544D02*
X216Y544D01*
X236Y544D02*
X242Y544D01*
X257Y544D02*
X263Y544D01*
X296Y544D02*
X349Y544D01*
X2747Y544D02*
X2754Y544D01*
X0Y543D02*
X7Y543D01*
X183Y543D02*
X189Y543D01*
X210Y543D02*
X216Y543D01*
X236Y543D02*
X243Y543D01*
X257Y543D02*
X263Y543D01*
X295Y543D02*
X349Y543D01*
X2747Y543D02*
X2754Y543D01*
X0Y542D02*
X7Y542D01*
X183Y542D02*
X189Y542D01*
X210Y542D02*
X216Y542D01*
X237Y542D02*
X243Y542D01*
X256Y542D02*
X263Y542D01*
X295Y542D02*
X349Y542D01*
X2747Y542D02*
X2754Y542D01*
X0Y541D02*
X7Y541D01*
X183Y541D02*
X189Y541D01*
X210Y541D02*
X216Y541D01*
X237Y541D02*
X244Y541D01*
X255Y541D02*
X263Y541D01*
X295Y541D02*
X349Y541D01*
X2747Y541D02*
X2754Y541D01*
X0Y540D02*
X7Y540D01*
X183Y540D02*
X216Y540D01*
X237Y540D02*
X262Y540D01*
X295Y540D02*
X349Y540D01*
X2747Y540D02*
X2754Y540D01*
X0Y539D02*
X7Y539D01*
X183Y539D02*
X216Y539D01*
X238Y539D02*
X262Y539D01*
X342Y539D02*
X349Y539D01*
X2747Y539D02*
X2754Y539D01*
X0Y538D02*
X7Y538D01*
X183Y538D02*
X216Y538D01*
X238Y538D02*
X261Y538D01*
X343Y538D02*
X349Y538D01*
X2747Y538D02*
X2754Y538D01*
X0Y537D02*
X7Y537D01*
X184Y537D02*
X215Y537D01*
X239Y537D02*
X260Y537D01*
X343Y537D02*
X349Y537D01*
X2747Y537D02*
X2754Y537D01*
X0Y536D02*
X7Y536D01*
X185Y536D02*
X214Y536D01*
X240Y536D02*
X259Y536D01*
X343Y536D02*
X349Y536D01*
X2747Y536D02*
X2754Y536D01*
X0Y535D02*
X7Y535D01*
X186Y535D02*
X213Y535D01*
X242Y535D02*
X258Y535D01*
X343Y535D02*
X349Y535D01*
X2747Y535D02*
X2754Y535D01*
X0Y534D02*
X7Y534D01*
X188Y534D02*
X211Y534D01*
X244Y534D02*
X255Y534D01*
X343Y534D02*
X349Y534D01*
X2747Y534D02*
X2754Y534D01*
X0Y533D02*
X7Y533D01*
X343Y533D02*
X349Y533D01*
X2747Y533D02*
X2754Y533D01*
X0Y532D02*
X7Y532D01*
X327Y532D02*
X349Y532D01*
X2747Y532D02*
X2754Y532D01*
X0Y531D02*
X7Y531D01*
X326Y531D02*
X349Y531D01*
X2747Y531D02*
X2754Y531D01*
X0Y530D02*
X7Y530D01*
X325Y530D02*
X349Y530D01*
X2747Y530D02*
X2754Y530D01*
X0Y529D02*
X7Y529D01*
X325Y529D02*
X349Y529D01*
X2747Y529D02*
X2754Y529D01*
X0Y528D02*
X7Y528D01*
X325Y528D02*
X348Y528D01*
X2747Y528D02*
X2754Y528D01*
X0Y527D02*
X7Y527D01*
X325Y527D02*
X348Y527D01*
X2747Y527D02*
X2754Y527D01*
X0Y526D02*
X7Y526D01*
X326Y526D02*
X347Y526D01*
X2747Y526D02*
X2754Y526D01*
X0Y525D02*
X7Y525D01*
X2747Y525D02*
X2754Y525D01*
X0Y524D02*
X7Y524D01*
X2747Y524D02*
X2754Y524D01*
X0Y523D02*
X7Y523D01*
X2747Y523D02*
X2754Y523D01*
X0Y522D02*
X7Y522D01*
X2747Y522D02*
X2754Y522D01*
X0Y521D02*
X7Y521D01*
X2747Y521D02*
X2754Y521D01*
X0Y520D02*
X7Y520D01*
X2747Y520D02*
X2754Y520D01*
X0Y519D02*
X7Y519D01*
X2747Y519D02*
X2754Y519D01*
X0Y518D02*
X7Y518D01*
X2747Y518D02*
X2754Y518D01*
X0Y517D02*
X7Y517D01*
X2747Y517D02*
X2754Y517D01*
X0Y516D02*
X7Y516D01*
X2747Y516D02*
X2754Y516D01*
X0Y515D02*
X7Y515D01*
X2747Y515D02*
X2754Y515D01*
X0Y514D02*
X7Y514D01*
X2747Y514D02*
X2754Y514D01*
X0Y513D02*
X7Y513D01*
X2747Y513D02*
X2754Y513D01*
X0Y512D02*
X7Y512D01*
X2747Y512D02*
X2754Y512D01*
X0Y511D02*
X7Y511D01*
X2747Y511D02*
X2754Y511D01*
X0Y510D02*
X7Y510D01*
X2747Y510D02*
X2754Y510D01*
X0Y509D02*
X7Y509D01*
X2747Y509D02*
X2754Y509D01*
X0Y508D02*
X7Y508D01*
X2747Y508D02*
X2754Y508D01*
X0Y507D02*
X7Y507D01*
X2747Y507D02*
X2754Y507D01*
X0Y506D02*
X7Y506D01*
X2747Y506D02*
X2754Y506D01*
X0Y505D02*
X7Y505D01*
X2747Y505D02*
X2754Y505D01*
X0Y504D02*
X7Y504D01*
X2747Y504D02*
X2754Y504D01*
X0Y503D02*
X7Y503D01*
X2747Y503D02*
X2754Y503D01*
X0Y502D02*
X7Y502D01*
X2747Y502D02*
X2754Y502D01*
X0Y501D02*
X7Y501D01*
X2747Y501D02*
X2754Y501D01*
X0Y500D02*
X7Y500D01*
X2747Y500D02*
X2754Y500D01*
X0Y499D02*
X7Y499D01*
X2747Y499D02*
X2754Y499D01*
X0Y498D02*
X7Y498D01*
X2747Y498D02*
X2754Y498D01*
X0Y497D02*
X7Y497D01*
X2747Y497D02*
X2754Y497D01*
X0Y496D02*
X7Y496D01*
X2747Y496D02*
X2754Y496D01*
X0Y495D02*
X7Y495D01*
X2747Y495D02*
X2754Y495D01*
X0Y494D02*
X7Y494D01*
X2747Y494D02*
X2754Y494D01*
X0Y493D02*
X7Y493D01*
X2747Y493D02*
X2754Y493D01*
X0Y492D02*
X7Y492D01*
X2747Y492D02*
X2754Y492D01*
X0Y491D02*
X7Y491D01*
X2747Y491D02*
X2754Y491D01*
X0Y490D02*
X7Y490D01*
X2747Y490D02*
X2754Y490D01*
X0Y489D02*
X7Y489D01*
X2747Y489D02*
X2754Y489D01*
X0Y488D02*
X7Y488D01*
X2747Y488D02*
X2754Y488D01*
X0Y487D02*
X7Y487D01*
X2747Y487D02*
X2754Y487D01*
X0Y486D02*
X7Y486D01*
X2747Y486D02*
X2754Y486D01*
X0Y485D02*
X7Y485D01*
X2747Y485D02*
X2754Y485D01*
X0Y484D02*
X7Y484D01*
X2747Y484D02*
X2754Y484D01*
X0Y483D02*
X7Y483D01*
X2747Y483D02*
X2754Y483D01*
X0Y482D02*
X7Y482D01*
X2747Y482D02*
X2754Y482D01*
X0Y481D02*
X7Y481D01*
X2747Y481D02*
X2754Y481D01*
X0Y480D02*
X7Y480D01*
X2747Y480D02*
X2754Y480D01*
X0Y479D02*
X7Y479D01*
X2747Y479D02*
X2754Y479D01*
X0Y478D02*
X7Y478D01*
X2747Y478D02*
X2754Y478D01*
X0Y477D02*
X7Y477D01*
X2747Y477D02*
X2754Y477D01*
X0Y476D02*
X7Y476D01*
X2747Y476D02*
X2754Y476D01*
X0Y475D02*
X7Y475D01*
X2747Y475D02*
X2754Y475D01*
X0Y474D02*
X7Y474D01*
X2747Y474D02*
X2754Y474D01*
X0Y473D02*
X7Y473D01*
X2747Y473D02*
X2754Y473D01*
X0Y472D02*
X7Y472D01*
X2747Y472D02*
X2754Y472D01*
X0Y471D02*
X7Y471D01*
X2747Y471D02*
X2754Y471D01*
X0Y470D02*
X7Y470D01*
X2747Y470D02*
X2754Y470D01*
X0Y469D02*
X7Y469D01*
X2747Y469D02*
X2754Y469D01*
X0Y468D02*
X7Y468D01*
X2747Y468D02*
X2754Y468D01*
X0Y467D02*
X7Y467D01*
X2747Y467D02*
X2754Y467D01*
X0Y466D02*
X7Y466D01*
X2747Y466D02*
X2754Y466D01*
X0Y465D02*
X7Y465D01*
X2747Y465D02*
X2754Y465D01*
X0Y464D02*
X7Y464D01*
X2747Y464D02*
X2754Y464D01*
X0Y463D02*
X7Y463D01*
X2747Y463D02*
X2754Y463D01*
X0Y462D02*
X7Y462D01*
X2747Y462D02*
X2754Y462D01*
X0Y461D02*
X7Y461D01*
X2747Y461D02*
X2754Y461D01*
X0Y460D02*
X7Y460D01*
X2747Y460D02*
X2754Y460D01*
X0Y459D02*
X7Y459D01*
X2747Y459D02*
X2754Y459D01*
X0Y458D02*
X7Y458D01*
X2747Y458D02*
X2754Y458D01*
X0Y457D02*
X7Y457D01*
X2747Y457D02*
X2754Y457D01*
X0Y456D02*
X7Y456D01*
X2747Y456D02*
X2754Y456D01*
X0Y455D02*
X7Y455D01*
X2747Y455D02*
X2754Y455D01*
X0Y454D02*
X7Y454D01*
X2747Y454D02*
X2754Y454D01*
X0Y453D02*
X7Y453D01*
X2747Y453D02*
X2754Y453D01*
X0Y452D02*
X7Y452D01*
X2747Y452D02*
X2754Y452D01*
X0Y451D02*
X7Y451D01*
X2747Y451D02*
X2754Y451D01*
X0Y450D02*
X7Y450D01*
X2747Y450D02*
X2754Y450D01*
X0Y449D02*
X7Y449D01*
X2747Y449D02*
X2754Y449D01*
X0Y448D02*
X7Y448D01*
X2747Y448D02*
X2754Y448D01*
X0Y447D02*
X7Y447D01*
X2747Y447D02*
X2754Y447D01*
X0Y446D02*
X7Y446D01*
X2747Y446D02*
X2754Y446D01*
X0Y445D02*
X7Y445D01*
X2747Y445D02*
X2754Y445D01*
X0Y444D02*
X7Y444D01*
X2747Y444D02*
X2754Y444D01*
X0Y443D02*
X7Y443D01*
X2747Y443D02*
X2754Y443D01*
X0Y442D02*
X7Y442D01*
X2747Y442D02*
X2754Y442D01*
X0Y441D02*
X7Y441D01*
X2747Y441D02*
X2754Y441D01*
X0Y440D02*
X7Y440D01*
X2747Y440D02*
X2754Y440D01*
X0Y439D02*
X7Y439D01*
X2747Y439D02*
X2754Y439D01*
X0Y438D02*
X7Y438D01*
X2747Y438D02*
X2754Y438D01*
X0Y437D02*
X7Y437D01*
X2747Y437D02*
X2754Y437D01*
X0Y436D02*
X7Y436D01*
X2747Y436D02*
X2754Y436D01*
X0Y435D02*
X7Y435D01*
X2747Y435D02*
X2754Y435D01*
X0Y434D02*
X7Y434D01*
X2747Y434D02*
X2754Y434D01*
X0Y433D02*
X7Y433D01*
X2747Y433D02*
X2754Y433D01*
X0Y432D02*
X7Y432D01*
X2747Y432D02*
X2754Y432D01*
X0Y431D02*
X7Y431D01*
X2747Y431D02*
X2754Y431D01*
X0Y430D02*
X7Y430D01*
X2747Y430D02*
X2754Y430D01*
X0Y429D02*
X7Y429D01*
X2747Y429D02*
X2754Y429D01*
X0Y428D02*
X7Y428D01*
X2747Y428D02*
X2754Y428D01*
X0Y427D02*
X7Y427D01*
X2747Y427D02*
X2754Y427D01*
X0Y426D02*
X7Y426D01*
X2747Y426D02*
X2754Y426D01*
X0Y425D02*
X7Y425D01*
X2747Y425D02*
X2754Y425D01*
X0Y424D02*
X7Y424D01*
X2747Y424D02*
X2754Y424D01*
X0Y423D02*
X7Y423D01*
X2747Y423D02*
X2754Y423D01*
X0Y422D02*
X7Y422D01*
X2747Y422D02*
X2754Y422D01*
X0Y421D02*
X7Y421D01*
X2747Y421D02*
X2754Y421D01*
X0Y420D02*
X7Y420D01*
X2747Y420D02*
X2754Y420D01*
X0Y419D02*
X7Y419D01*
X2747Y419D02*
X2754Y419D01*
X0Y418D02*
X7Y418D01*
X2747Y418D02*
X2754Y418D01*
X0Y417D02*
X7Y417D01*
X2747Y417D02*
X2754Y417D01*
X0Y416D02*
X7Y416D01*
X2747Y416D02*
X2754Y416D01*
X0Y415D02*
X7Y415D01*
X2747Y415D02*
X2754Y415D01*
X0Y414D02*
X7Y414D01*
X2747Y414D02*
X2754Y414D01*
X0Y413D02*
X7Y413D01*
X2747Y413D02*
X2754Y413D01*
X0Y412D02*
X7Y412D01*
X2747Y412D02*
X2754Y412D01*
X0Y411D02*
X7Y411D01*
X2747Y411D02*
X2754Y411D01*
X0Y410D02*
X7Y410D01*
X2747Y410D02*
X2754Y410D01*
X0Y409D02*
X7Y409D01*
X2747Y409D02*
X2754Y409D01*
X0Y408D02*
X7Y408D01*
X2747Y408D02*
X2754Y408D01*
X0Y407D02*
X7Y407D01*
X2747Y407D02*
X2754Y407D01*
X0Y406D02*
X7Y406D01*
X2747Y406D02*
X2754Y406D01*
X0Y405D02*
X7Y405D01*
X2747Y405D02*
X2754Y405D01*
X0Y404D02*
X7Y404D01*
X2747Y404D02*
X2754Y404D01*
X0Y403D02*
X7Y403D01*
X2747Y403D02*
X2754Y403D01*
X0Y402D02*
X7Y402D01*
X2747Y402D02*
X2754Y402D01*
X0Y401D02*
X7Y401D01*
X2747Y401D02*
X2754Y401D01*
X0Y400D02*
X7Y400D01*
X2747Y400D02*
X2754Y400D01*
X0Y399D02*
X7Y399D01*
X2747Y399D02*
X2754Y399D01*
X0Y398D02*
X7Y398D01*
X2747Y398D02*
X2754Y398D01*
X0Y397D02*
X7Y397D01*
X2747Y397D02*
X2754Y397D01*
X0Y396D02*
X7Y396D01*
X2747Y396D02*
X2754Y396D01*
X0Y395D02*
X7Y395D01*
X2747Y395D02*
X2754Y395D01*
X0Y394D02*
X7Y394D01*
X2747Y394D02*
X2754Y394D01*
X0Y393D02*
X7Y393D01*
X2747Y393D02*
X2754Y393D01*
X0Y392D02*
X7Y392D01*
X2747Y392D02*
X2754Y392D01*
X0Y391D02*
X7Y391D01*
X2747Y391D02*
X2754Y391D01*
X0Y390D02*
X7Y390D01*
X2747Y390D02*
X2754Y390D01*
X0Y389D02*
X7Y389D01*
X2747Y389D02*
X2754Y389D01*
X0Y388D02*
X7Y388D01*
X2747Y388D02*
X2754Y388D01*
X0Y387D02*
X7Y387D01*
X2747Y387D02*
X2754Y387D01*
X0Y386D02*
X7Y386D01*
X2747Y386D02*
X2754Y386D01*
X0Y385D02*
X7Y385D01*
X2747Y385D02*
X2754Y385D01*
X0Y384D02*
X7Y384D01*
X2747Y384D02*
X2754Y384D01*
X0Y383D02*
X7Y383D01*
X2747Y383D02*
X2754Y383D01*
X0Y382D02*
X7Y382D01*
X2747Y382D02*
X2754Y382D01*
X0Y381D02*
X7Y381D01*
X2747Y381D02*
X2754Y381D01*
X0Y380D02*
X7Y380D01*
X2747Y380D02*
X2754Y380D01*
X0Y379D02*
X7Y379D01*
X2747Y379D02*
X2754Y379D01*
X0Y378D02*
X7Y378D01*
X2747Y378D02*
X2754Y378D01*
X0Y377D02*
X7Y377D01*
X2747Y377D02*
X2754Y377D01*
X0Y376D02*
X7Y376D01*
X2747Y376D02*
X2754Y376D01*
X0Y375D02*
X7Y375D01*
X2747Y375D02*
X2754Y375D01*
X0Y374D02*
X7Y374D01*
X2747Y374D02*
X2754Y374D01*
X0Y373D02*
X7Y373D01*
X2747Y373D02*
X2754Y373D01*
X0Y372D02*
X7Y372D01*
X2747Y372D02*
X2754Y372D01*
X0Y371D02*
X7Y371D01*
X2747Y371D02*
X2754Y371D01*
X0Y370D02*
X7Y370D01*
X2747Y370D02*
X2754Y370D01*
X0Y369D02*
X7Y369D01*
X2747Y369D02*
X2754Y369D01*
X0Y368D02*
X7Y368D01*
X2747Y368D02*
X2754Y368D01*
X0Y367D02*
X7Y367D01*
X2747Y367D02*
X2754Y367D01*
X0Y366D02*
X7Y366D01*
X2747Y366D02*
X2754Y366D01*
X0Y365D02*
X7Y365D01*
X2747Y365D02*
X2754Y365D01*
X0Y364D02*
X7Y364D01*
X2747Y364D02*
X2754Y364D01*
X0Y363D02*
X7Y363D01*
X2747Y363D02*
X2754Y363D01*
X0Y362D02*
X7Y362D01*
X2747Y362D02*
X2754Y362D01*
X0Y361D02*
X7Y361D01*
X2747Y361D02*
X2754Y361D01*
X0Y360D02*
X7Y360D01*
X2747Y360D02*
X2754Y360D01*
X0Y359D02*
X7Y359D01*
X2747Y359D02*
X2754Y359D01*
X0Y358D02*
X7Y358D01*
X2747Y358D02*
X2754Y358D01*
X0Y357D02*
X7Y357D01*
X2747Y357D02*
X2754Y357D01*
X0Y356D02*
X7Y356D01*
X2747Y356D02*
X2754Y356D01*
X0Y355D02*
X7Y355D01*
X2747Y355D02*
X2754Y355D01*
X0Y354D02*
X7Y354D01*
X2747Y354D02*
X2754Y354D01*
X0Y353D02*
X7Y353D01*
X2747Y353D02*
X2754Y353D01*
X0Y352D02*
X7Y352D01*
X1047Y352D02*
X1066Y352D01*
X1073Y352D02*
X1092Y352D01*
X2747Y352D02*
X2754Y352D01*
X0Y351D02*
X7Y351D01*
X1045Y351D02*
X1068Y351D01*
X1071Y351D02*
X1094Y351D01*
X2747Y351D02*
X2754Y351D01*
X0Y350D02*
X7Y350D01*
X1044Y350D02*
X1095Y350D01*
X2747Y350D02*
X2754Y350D01*
X0Y349D02*
X7Y349D01*
X1044Y349D02*
X1095Y349D01*
X2747Y349D02*
X2754Y349D01*
X0Y348D02*
X7Y348D01*
X1043Y348D02*
X1096Y348D01*
X2747Y348D02*
X2754Y348D01*
X0Y347D02*
X7Y347D01*
X1043Y347D02*
X1096Y347D01*
X2747Y347D02*
X2754Y347D01*
X0Y346D02*
X7Y346D01*
X1043Y346D02*
X1096Y346D01*
X2747Y346D02*
X2754Y346D01*
X0Y345D02*
X7Y345D01*
X1043Y345D02*
X1049Y345D01*
X1065Y345D02*
X1074Y345D01*
X1090Y345D02*
X1096Y345D01*
X2747Y345D02*
X2754Y345D01*
X0Y344D02*
X7Y344D01*
X1043Y344D02*
X1049Y344D01*
X1066Y344D02*
X1073Y344D01*
X1090Y344D02*
X1096Y344D01*
X2747Y344D02*
X2754Y344D01*
X0Y343D02*
X7Y343D01*
X1043Y343D02*
X1049Y343D01*
X1066Y343D02*
X1073Y343D01*
X1090Y343D02*
X1096Y343D01*
X2747Y343D02*
X2754Y343D01*
X0Y342D02*
X7Y342D01*
X1043Y342D02*
X1049Y342D01*
X1067Y342D02*
X1073Y342D01*
X1090Y342D02*
X1096Y342D01*
X2747Y342D02*
X2754Y342D01*
X0Y341D02*
X7Y341D01*
X1043Y341D02*
X1049Y341D01*
X1067Y341D02*
X1073Y341D01*
X1090Y341D02*
X1096Y341D01*
X2747Y341D02*
X2754Y341D01*
X0Y340D02*
X7Y340D01*
X1043Y340D02*
X1049Y340D01*
X1067Y340D02*
X1073Y340D01*
X1090Y340D02*
X1096Y340D01*
X2747Y340D02*
X2754Y340D01*
X0Y339D02*
X7Y339D01*
X178Y339D02*
X178Y339D01*
X1043Y339D02*
X1049Y339D01*
X1067Y339D02*
X1073Y339D01*
X1090Y339D02*
X1096Y339D01*
X2747Y339D02*
X2754Y339D01*
X0Y338D02*
X7Y338D01*
X177Y338D02*
X179Y338D01*
X1043Y338D02*
X1049Y338D01*
X1067Y338D02*
X1073Y338D01*
X1090Y338D02*
X1096Y338D01*
X2747Y338D02*
X2754Y338D01*
X0Y337D02*
X7Y337D01*
X176Y337D02*
X180Y337D01*
X1043Y337D02*
X1049Y337D01*
X1067Y337D02*
X1073Y337D01*
X1090Y337D02*
X1096Y337D01*
X2747Y337D02*
X2754Y337D01*
X0Y336D02*
X7Y336D01*
X175Y336D02*
X181Y336D01*
X1043Y336D02*
X1049Y336D01*
X1067Y336D02*
X1073Y336D01*
X1090Y336D02*
X1096Y336D01*
X2747Y336D02*
X2754Y336D01*
X0Y335D02*
X7Y335D01*
X174Y335D02*
X180Y335D01*
X1043Y335D02*
X1049Y335D01*
X1067Y335D02*
X1073Y335D01*
X1090Y335D02*
X1096Y335D01*
X2747Y335D02*
X2754Y335D01*
X0Y334D02*
X7Y334D01*
X173Y334D02*
X179Y334D01*
X1043Y334D02*
X1049Y334D01*
X1067Y334D02*
X1073Y334D01*
X1090Y334D02*
X1096Y334D01*
X2747Y334D02*
X2754Y334D01*
X0Y333D02*
X7Y333D01*
X172Y333D02*
X178Y333D01*
X1043Y333D02*
X1049Y333D01*
X1067Y333D02*
X1073Y333D01*
X1090Y333D02*
X1096Y333D01*
X2747Y333D02*
X2754Y333D01*
X0Y332D02*
X7Y332D01*
X171Y332D02*
X177Y332D01*
X1043Y332D02*
X1049Y332D01*
X1067Y332D02*
X1073Y332D01*
X1090Y332D02*
X1096Y332D01*
X2747Y332D02*
X2754Y332D01*
X0Y331D02*
X7Y331D01*
X170Y331D02*
X176Y331D01*
X1043Y331D02*
X1049Y331D01*
X1067Y331D02*
X1073Y331D01*
X1090Y331D02*
X1096Y331D01*
X2747Y331D02*
X2754Y331D01*
X0Y330D02*
X7Y330D01*
X169Y330D02*
X175Y330D01*
X1043Y330D02*
X1049Y330D01*
X1067Y330D02*
X1073Y330D01*
X1090Y330D02*
X1096Y330D01*
X2747Y330D02*
X2754Y330D01*
X0Y329D02*
X7Y329D01*
X168Y329D02*
X174Y329D01*
X1043Y329D02*
X1049Y329D01*
X1067Y329D02*
X1073Y329D01*
X1090Y329D02*
X1096Y329D01*
X2747Y329D02*
X2754Y329D01*
X0Y328D02*
X7Y328D01*
X167Y328D02*
X173Y328D01*
X1043Y328D02*
X1049Y328D01*
X1067Y328D02*
X1072Y328D01*
X1090Y328D02*
X1096Y328D01*
X2747Y328D02*
X2754Y328D01*
X0Y327D02*
X7Y327D01*
X166Y327D02*
X172Y327D01*
X1043Y327D02*
X1049Y327D01*
X1067Y327D02*
X1072Y327D01*
X1090Y327D02*
X1096Y327D01*
X2747Y327D02*
X2754Y327D01*
X0Y326D02*
X7Y326D01*
X165Y326D02*
X171Y326D01*
X1043Y326D02*
X1049Y326D01*
X1068Y326D02*
X1071Y326D01*
X1090Y326D02*
X1096Y326D01*
X2747Y326D02*
X2754Y326D01*
X0Y325D02*
X7Y325D01*
X164Y325D02*
X170Y325D01*
X1043Y325D02*
X1049Y325D01*
X1090Y325D02*
X1096Y325D01*
X2747Y325D02*
X2754Y325D01*
X0Y324D02*
X7Y324D01*
X163Y324D02*
X169Y324D01*
X1043Y324D02*
X1049Y324D01*
X1090Y324D02*
X1096Y324D01*
X2747Y324D02*
X2754Y324D01*
X0Y323D02*
X7Y323D01*
X162Y323D02*
X168Y323D01*
X1043Y323D02*
X1049Y323D01*
X1090Y323D02*
X1096Y323D01*
X2747Y323D02*
X2754Y323D01*
X0Y322D02*
X7Y322D01*
X161Y322D02*
X167Y322D01*
X1043Y322D02*
X1049Y322D01*
X1090Y322D02*
X1096Y322D01*
X2747Y322D02*
X2754Y322D01*
X0Y321D02*
X7Y321D01*
X160Y321D02*
X165Y321D01*
X1043Y321D02*
X1049Y321D01*
X1090Y321D02*
X1096Y321D01*
X2747Y321D02*
X2754Y321D01*
X0Y320D02*
X7Y320D01*
X159Y320D02*
X164Y320D01*
X1043Y320D02*
X1048Y320D01*
X1091Y320D02*
X1096Y320D01*
X2747Y320D02*
X2754Y320D01*
X0Y319D02*
X7Y319D01*
X158Y319D02*
X163Y319D01*
X1044Y319D02*
X1048Y319D01*
X1092Y319D02*
X1095Y319D01*
X2747Y319D02*
X2754Y319D01*
X0Y318D02*
X7Y318D01*
X157Y318D02*
X162Y318D01*
X2747Y318D02*
X2754Y318D01*
X0Y317D02*
X7Y317D01*
X156Y317D02*
X161Y317D01*
X2747Y317D02*
X2754Y317D01*
X0Y316D02*
X7Y316D01*
X155Y316D02*
X160Y316D01*
X2747Y316D02*
X2754Y316D01*
X0Y315D02*
X7Y315D01*
X154Y315D02*
X160Y315D01*
X2747Y315D02*
X2754Y315D01*
X0Y314D02*
X7Y314D01*
X153Y314D02*
X159Y314D01*
X2747Y314D02*
X2754Y314D01*
X0Y313D02*
X7Y313D01*
X152Y313D02*
X158Y313D01*
X2747Y313D02*
X2754Y313D01*
X0Y312D02*
X7Y312D01*
X151Y312D02*
X157Y312D01*
X2747Y312D02*
X2754Y312D01*
X0Y311D02*
X7Y311D01*
X150Y311D02*
X156Y311D01*
X2747Y311D02*
X2754Y311D01*
X0Y310D02*
X7Y310D01*
X149Y310D02*
X155Y310D01*
X2747Y310D02*
X2754Y310D01*
X0Y309D02*
X7Y309D01*
X148Y309D02*
X154Y309D01*
X2747Y309D02*
X2754Y309D01*
X0Y308D02*
X7Y308D01*
X147Y308D02*
X153Y308D01*
X2747Y308D02*
X2754Y308D01*
X0Y307D02*
X7Y307D01*
X146Y307D02*
X152Y307D01*
X2747Y307D02*
X2754Y307D01*
X0Y306D02*
X7Y306D01*
X145Y306D02*
X151Y306D01*
X1776Y306D02*
X1791Y306D01*
X1876Y306D02*
X1891Y306D01*
X2747Y306D02*
X2754Y306D01*
X0Y305D02*
X7Y305D01*
X144Y305D02*
X150Y305D01*
X1775Y305D02*
X1793Y305D01*
X1875Y305D02*
X1893Y305D01*
X2747Y305D02*
X2754Y305D01*
X0Y304D02*
X7Y304D01*
X144Y304D02*
X149Y304D01*
X1775Y304D02*
X1794Y304D01*
X1874Y304D02*
X1894Y304D01*
X2747Y304D02*
X2754Y304D01*
X0Y303D02*
X7Y303D01*
X145Y303D02*
X148Y303D01*
X1774Y303D02*
X1795Y303D01*
X1874Y303D02*
X1895Y303D01*
X2747Y303D02*
X2754Y303D01*
X0Y302D02*
X7Y302D01*
X146Y302D02*
X147Y302D01*
X1775Y302D02*
X1796Y302D01*
X1875Y302D02*
X1896Y302D01*
X2747Y302D02*
X2754Y302D01*
X0Y301D02*
X7Y301D01*
X1775Y301D02*
X1797Y301D01*
X1875Y301D02*
X1897Y301D01*
X2747Y301D02*
X2754Y301D01*
X0Y300D02*
X7Y300D01*
X1777Y300D02*
X1797Y300D01*
X1877Y300D02*
X1897Y300D01*
X2747Y300D02*
X2754Y300D01*
X0Y299D02*
X7Y299D01*
X1052Y299D02*
X1093Y299D01*
X1791Y299D02*
X1798Y299D01*
X1891Y299D02*
X1898Y299D01*
X2747Y299D02*
X2754Y299D01*
X0Y298D02*
X7Y298D01*
X1049Y298D02*
X1095Y298D01*
X1792Y298D02*
X1798Y298D01*
X1891Y298D02*
X1898Y298D01*
X2747Y298D02*
X2754Y298D01*
X0Y297D02*
X7Y297D01*
X1047Y297D02*
X1096Y297D01*
X1792Y297D02*
X1798Y297D01*
X1892Y297D02*
X1898Y297D01*
X2747Y297D02*
X2754Y297D01*
X0Y296D02*
X7Y296D01*
X1046Y296D02*
X1096Y296D01*
X1792Y296D02*
X1798Y296D01*
X1892Y296D02*
X1898Y296D01*
X2747Y296D02*
X2754Y296D01*
X0Y295D02*
X7Y295D01*
X1045Y295D02*
X1096Y295D01*
X1792Y295D02*
X1798Y295D01*
X1892Y295D02*
X1898Y295D01*
X2747Y295D02*
X2754Y295D01*
X0Y294D02*
X7Y294D01*
X1044Y294D02*
X1096Y294D01*
X1792Y294D02*
X1798Y294D01*
X1892Y294D02*
X1898Y294D01*
X2747Y294D02*
X2754Y294D01*
X0Y293D02*
X7Y293D01*
X1044Y293D02*
X1095Y293D01*
X1792Y293D02*
X1798Y293D01*
X1892Y293D02*
X1898Y293D01*
X2747Y293D02*
X2754Y293D01*
X0Y292D02*
X7Y292D01*
X1044Y292D02*
X1052Y292D01*
X1792Y292D02*
X1798Y292D01*
X1892Y292D02*
X1898Y292D01*
X2747Y292D02*
X2754Y292D01*
X0Y291D02*
X7Y291D01*
X1043Y291D02*
X1050Y291D01*
X1792Y291D02*
X1798Y291D01*
X1892Y291D02*
X1898Y291D01*
X2747Y291D02*
X2754Y291D01*
X0Y290D02*
X7Y290D01*
X1043Y290D02*
X1049Y290D01*
X1792Y290D02*
X1798Y290D01*
X1892Y290D02*
X1898Y290D01*
X2747Y290D02*
X2754Y290D01*
X0Y289D02*
X7Y289D01*
X1043Y289D02*
X1049Y289D01*
X1792Y289D02*
X1798Y289D01*
X1892Y289D02*
X1898Y289D01*
X2747Y289D02*
X2754Y289D01*
X0Y288D02*
X7Y288D01*
X1043Y288D02*
X1049Y288D01*
X1792Y288D02*
X1798Y288D01*
X1892Y288D02*
X1898Y288D01*
X2747Y288D02*
X2754Y288D01*
X0Y287D02*
X7Y287D01*
X1043Y287D02*
X1049Y287D01*
X1791Y287D02*
X1798Y287D01*
X1891Y287D02*
X1898Y287D01*
X2747Y287D02*
X2754Y287D01*
X0Y286D02*
X7Y286D01*
X1043Y286D02*
X1049Y286D01*
X1749Y286D02*
X1797Y286D01*
X1848Y286D02*
X1897Y286D01*
X2747Y286D02*
X2754Y286D01*
X0Y285D02*
X7Y285D01*
X1043Y285D02*
X1049Y285D01*
X1746Y285D02*
X1797Y285D01*
X1846Y285D02*
X1897Y285D01*
X2747Y285D02*
X2754Y285D01*
X0Y284D02*
X7Y284D01*
X1043Y284D02*
X1049Y284D01*
X1745Y284D02*
X1796Y284D01*
X1845Y284D02*
X1896Y284D01*
X2747Y284D02*
X2754Y284D01*
X0Y283D02*
X7Y283D01*
X1043Y283D02*
X1049Y283D01*
X1745Y283D02*
X1796Y283D01*
X1845Y283D02*
X1896Y283D01*
X2747Y283D02*
X2754Y283D01*
X0Y282D02*
X7Y282D01*
X1043Y282D02*
X1049Y282D01*
X1745Y282D02*
X1795Y282D01*
X1845Y282D02*
X1895Y282D01*
X2747Y282D02*
X2754Y282D01*
X0Y281D02*
X7Y281D01*
X1043Y281D02*
X1049Y281D01*
X1745Y281D02*
X1794Y281D01*
X1845Y281D02*
X1894Y281D01*
X2747Y281D02*
X2754Y281D01*
X0Y280D02*
X7Y280D01*
X1043Y280D02*
X1050Y280D01*
X1746Y280D02*
X1792Y280D01*
X1846Y280D02*
X1892Y280D01*
X2747Y280D02*
X2754Y280D01*
X0Y279D02*
X7Y279D01*
X1043Y279D02*
X1051Y279D01*
X1749Y279D02*
X1788Y279D01*
X1848Y279D02*
X1888Y279D01*
X2747Y279D02*
X2754Y279D01*
X0Y278D02*
X7Y278D01*
X1044Y278D02*
X1065Y278D01*
X2747Y278D02*
X2754Y278D01*
X0Y277D02*
X7Y277D01*
X1044Y277D02*
X1066Y277D01*
X2747Y277D02*
X2754Y277D01*
X0Y276D02*
X7Y276D01*
X1045Y276D02*
X1066Y276D01*
X2747Y276D02*
X2754Y276D01*
X0Y275D02*
X7Y275D01*
X1046Y275D02*
X1067Y275D01*
X2747Y275D02*
X2754Y275D01*
X0Y274D02*
X7Y274D01*
X1047Y274D02*
X1066Y274D01*
X2747Y274D02*
X2754Y274D01*
X0Y273D02*
X7Y273D01*
X1048Y273D02*
X1066Y273D01*
X2747Y273D02*
X2754Y273D01*
X0Y272D02*
X7Y272D01*
X1050Y272D02*
X1065Y272D01*
X2747Y272D02*
X2754Y272D01*
X0Y271D02*
X7Y271D01*
X2747Y271D02*
X2754Y271D01*
X0Y270D02*
X7Y270D01*
X2747Y270D02*
X2754Y270D01*
X0Y269D02*
X7Y269D01*
X2747Y269D02*
X2754Y269D01*
X0Y268D02*
X7Y268D01*
X2747Y268D02*
X2754Y268D01*
X0Y267D02*
X7Y267D01*
X2747Y267D02*
X2754Y267D01*
X0Y266D02*
X7Y266D01*
X2747Y266D02*
X2754Y266D01*
X0Y265D02*
X7Y265D01*
X2747Y265D02*
X2754Y265D01*
X0Y264D02*
X7Y264D01*
X2747Y264D02*
X2754Y264D01*
X0Y263D02*
X7Y263D01*
X2747Y263D02*
X2754Y263D01*
X0Y262D02*
X7Y262D01*
X2747Y262D02*
X2754Y262D01*
X0Y261D02*
X7Y261D01*
X2747Y261D02*
X2754Y261D01*
X0Y260D02*
X7Y260D01*
X2747Y260D02*
X2754Y260D01*
X0Y259D02*
X7Y259D01*
X1746Y259D02*
X1797Y259D01*
X2747Y259D02*
X2754Y259D01*
X0Y258D02*
X7Y258D01*
X1745Y258D02*
X1798Y258D01*
X1847Y258D02*
X1880Y258D01*
X2747Y258D02*
X2754Y258D01*
X0Y257D02*
X7Y257D01*
X1745Y257D02*
X1798Y257D01*
X1846Y257D02*
X1880Y257D01*
X2747Y257D02*
X2754Y257D01*
X0Y256D02*
X7Y256D01*
X1745Y256D02*
X1798Y256D01*
X1845Y256D02*
X1880Y256D01*
X2747Y256D02*
X2754Y256D01*
X0Y255D02*
X7Y255D01*
X1745Y255D02*
X1798Y255D01*
X1845Y255D02*
X1880Y255D01*
X2747Y255D02*
X2754Y255D01*
X0Y254D02*
X7Y254D01*
X1745Y254D02*
X1798Y254D01*
X1845Y254D02*
X1880Y254D01*
X2747Y254D02*
X2754Y254D01*
X0Y253D02*
X7Y253D01*
X1745Y253D02*
X1798Y253D01*
X1845Y253D02*
X1880Y253D01*
X2747Y253D02*
X2754Y253D01*
X0Y252D02*
X7Y252D01*
X1745Y252D02*
X1751Y252D01*
X1774Y252D02*
X1780Y252D01*
X1792Y252D02*
X1798Y252D01*
X1846Y252D02*
X1880Y252D01*
X2747Y252D02*
X2754Y252D01*
X0Y251D02*
X7Y251D01*
X1746Y251D02*
X1750Y251D01*
X1774Y251D02*
X1780Y251D01*
X1792Y251D02*
X1798Y251D01*
X1874Y251D02*
X1880Y251D01*
X2747Y251D02*
X2754Y251D01*
X0Y250D02*
X7Y250D01*
X1747Y250D02*
X1749Y250D01*
X1774Y250D02*
X1780Y250D01*
X1792Y250D02*
X1798Y250D01*
X1874Y250D02*
X1880Y250D01*
X2747Y250D02*
X2754Y250D01*
X0Y249D02*
X7Y249D01*
X1774Y249D02*
X1780Y249D01*
X1792Y249D02*
X1798Y249D01*
X1874Y249D02*
X1880Y249D01*
X2747Y249D02*
X2754Y249D01*
X0Y248D02*
X7Y248D01*
X1774Y248D02*
X1780Y248D01*
X1792Y248D02*
X1798Y248D01*
X1874Y248D02*
X1880Y248D01*
X2747Y248D02*
X2754Y248D01*
X0Y247D02*
X7Y247D01*
X1774Y247D02*
X1780Y247D01*
X1792Y247D02*
X1798Y247D01*
X1874Y247D02*
X1880Y247D01*
X2747Y247D02*
X2754Y247D01*
X0Y246D02*
X7Y246D01*
X1774Y246D02*
X1780Y246D01*
X1792Y246D02*
X1798Y246D01*
X1874Y246D02*
X1880Y246D01*
X2747Y246D02*
X2754Y246D01*
X0Y245D02*
X7Y245D01*
X1774Y245D02*
X1780Y245D01*
X1792Y245D02*
X1798Y245D01*
X1874Y245D02*
X1880Y245D01*
X2747Y245D02*
X2754Y245D01*
X0Y244D02*
X7Y244D01*
X1774Y244D02*
X1780Y244D01*
X1792Y244D02*
X1798Y244D01*
X1874Y244D02*
X1880Y244D01*
X2747Y244D02*
X2754Y244D01*
X0Y243D02*
X7Y243D01*
X1774Y243D02*
X1780Y243D01*
X1792Y243D02*
X1798Y243D01*
X1874Y243D02*
X1880Y243D01*
X2747Y243D02*
X2754Y243D01*
X0Y242D02*
X7Y242D01*
X1774Y242D02*
X1780Y242D01*
X1792Y242D02*
X1798Y242D01*
X1874Y242D02*
X1880Y242D01*
X2747Y242D02*
X2754Y242D01*
X0Y241D02*
X7Y241D01*
X1774Y241D02*
X1780Y241D01*
X1792Y241D02*
X1798Y241D01*
X1874Y241D02*
X1880Y241D01*
X2747Y241D02*
X2754Y241D01*
X0Y240D02*
X7Y240D01*
X1774Y240D02*
X1780Y240D01*
X1792Y240D02*
X1798Y240D01*
X1874Y240D02*
X1880Y240D01*
X2747Y240D02*
X2754Y240D01*
X0Y239D02*
X7Y239D01*
X1774Y239D02*
X1780Y239D01*
X1792Y239D02*
X1798Y239D01*
X1874Y239D02*
X1880Y239D01*
X2747Y239D02*
X2754Y239D01*
X0Y238D02*
X7Y238D01*
X1774Y238D02*
X1780Y238D01*
X1792Y238D02*
X1798Y238D01*
X1874Y238D02*
X1880Y238D01*
X2747Y238D02*
X2754Y238D01*
X0Y237D02*
X7Y237D01*
X1774Y237D02*
X1780Y237D01*
X1792Y237D02*
X1798Y237D01*
X1853Y237D02*
X1896Y237D01*
X2747Y237D02*
X2754Y237D01*
X0Y236D02*
X7Y236D01*
X1774Y236D02*
X1780Y236D01*
X1792Y236D02*
X1798Y236D01*
X1851Y236D02*
X1897Y236D01*
X2747Y236D02*
X2754Y236D01*
X0Y235D02*
X7Y235D01*
X1774Y235D02*
X1780Y235D01*
X1792Y235D02*
X1798Y235D01*
X1851Y235D02*
X1898Y235D01*
X2747Y235D02*
X2754Y235D01*
X0Y234D02*
X7Y234D01*
X1774Y234D02*
X1780Y234D01*
X1792Y234D02*
X1798Y234D01*
X1851Y234D02*
X1898Y234D01*
X2747Y234D02*
X2754Y234D01*
X0Y233D02*
X7Y233D01*
X1774Y233D02*
X1780Y233D01*
X1792Y233D02*
X1798Y233D01*
X1851Y233D02*
X1898Y233D01*
X2747Y233D02*
X2754Y233D01*
X0Y232D02*
X7Y232D01*
X1774Y232D02*
X1798Y232D01*
X1852Y232D02*
X1897Y232D01*
X2747Y232D02*
X2754Y232D01*
X0Y231D02*
X7Y231D01*
X1774Y231D02*
X1798Y231D01*
X1853Y231D02*
X1896Y231D01*
X2747Y231D02*
X2754Y231D01*
X0Y230D02*
X7Y230D01*
X1774Y230D02*
X1798Y230D01*
X1874Y230D02*
X1880Y230D01*
X2747Y230D02*
X2754Y230D01*
X0Y229D02*
X7Y229D01*
X1774Y229D02*
X1798Y229D01*
X1875Y229D02*
X1880Y229D01*
X2747Y229D02*
X2754Y229D01*
X0Y228D02*
X7Y228D01*
X1775Y228D02*
X1798Y228D01*
X1876Y228D02*
X1879Y228D01*
X2747Y228D02*
X2754Y228D01*
X0Y227D02*
X7Y227D01*
X1775Y227D02*
X1797Y227D01*
X2747Y227D02*
X2754Y227D01*
X0Y226D02*
X7Y226D01*
X1776Y226D02*
X1797Y226D01*
X2747Y226D02*
X2754Y226D01*
X0Y225D02*
X7Y225D01*
X2747Y225D02*
X2754Y225D01*
X0Y224D02*
X7Y224D01*
X2747Y224D02*
X2754Y224D01*
X0Y223D02*
X7Y223D01*
X2747Y223D02*
X2754Y223D01*
X0Y222D02*
X7Y222D01*
X2747Y222D02*
X2754Y222D01*
X0Y221D02*
X7Y221D01*
X2747Y221D02*
X2754Y221D01*
X0Y220D02*
X7Y220D01*
X2747Y220D02*
X2754Y220D01*
X0Y219D02*
X7Y219D01*
X2747Y219D02*
X2754Y219D01*
X0Y218D02*
X7Y218D01*
X2747Y218D02*
X2754Y218D01*
X0Y217D02*
X7Y217D01*
X2747Y217D02*
X2754Y217D01*
X0Y216D02*
X7Y216D01*
X2747Y216D02*
X2754Y216D01*
X0Y215D02*
X7Y215D01*
X2747Y215D02*
X2754Y215D01*
X0Y214D02*
X7Y214D01*
X2747Y214D02*
X2754Y214D01*
X0Y213D02*
X7Y213D01*
X2747Y213D02*
X2754Y213D01*
X0Y212D02*
X7Y212D01*
X2747Y212D02*
X2754Y212D01*
X0Y211D02*
X7Y211D01*
X2747Y211D02*
X2754Y211D01*
X0Y210D02*
X7Y210D01*
X2747Y210D02*
X2754Y210D01*
X0Y209D02*
X7Y209D01*
X2747Y209D02*
X2754Y209D01*
X0Y208D02*
X7Y208D01*
X2747Y208D02*
X2754Y208D01*
X0Y207D02*
X7Y207D01*
X2747Y207D02*
X2754Y207D01*
X0Y206D02*
X7Y206D01*
X2747Y206D02*
X2754Y206D01*
X0Y205D02*
X7Y205D01*
X2747Y205D02*
X2754Y205D01*
X0Y204D02*
X7Y204D01*
X2747Y204D02*
X2754Y204D01*
X0Y203D02*
X7Y203D01*
X2747Y203D02*
X2754Y203D01*
X0Y202D02*
X7Y202D01*
X2747Y202D02*
X2754Y202D01*
X0Y201D02*
X7Y201D01*
X2747Y201D02*
X2754Y201D01*
X0Y200D02*
X7Y200D01*
X2747Y200D02*
X2754Y200D01*
X0Y199D02*
X7Y199D01*
X2747Y199D02*
X2754Y199D01*
X0Y198D02*
X7Y198D01*
X2747Y198D02*
X2754Y198D01*
X0Y197D02*
X7Y197D01*
X2747Y197D02*
X2754Y197D01*
X0Y196D02*
X7Y196D01*
X2747Y196D02*
X2754Y196D01*
X0Y195D02*
X7Y195D01*
X2747Y195D02*
X2754Y195D01*
X0Y194D02*
X7Y194D01*
X2747Y194D02*
X2754Y194D01*
X0Y193D02*
X7Y193D01*
X2747Y193D02*
X2754Y193D01*
X0Y192D02*
X7Y192D01*
X2747Y192D02*
X2754Y192D01*
X0Y191D02*
X7Y191D01*
X2747Y191D02*
X2754Y191D01*
X0Y190D02*
X7Y190D01*
X2747Y190D02*
X2754Y190D01*
X0Y189D02*
X7Y189D01*
X2747Y189D02*
X2754Y189D01*
X0Y188D02*
X7Y188D01*
X2747Y188D02*
X2754Y188D01*
X0Y187D02*
X7Y187D01*
X2747Y187D02*
X2754Y187D01*
X0Y186D02*
X7Y186D01*
X2747Y186D02*
X2754Y186D01*
X0Y185D02*
X7Y185D01*
X2747Y185D02*
X2754Y185D01*
X0Y184D02*
X7Y184D01*
X2747Y184D02*
X2754Y184D01*
X0Y183D02*
X7Y183D01*
X2747Y183D02*
X2754Y183D01*
X0Y182D02*
X7Y182D01*
X2747Y182D02*
X2754Y182D01*
X0Y181D02*
X7Y181D01*
X2747Y181D02*
X2754Y181D01*
X0Y180D02*
X7Y180D01*
X2747Y180D02*
X2754Y180D01*
X0Y179D02*
X7Y179D01*
X2747Y179D02*
X2754Y179D01*
X0Y178D02*
X7Y178D01*
X2747Y178D02*
X2754Y178D01*
X0Y177D02*
X7Y177D01*
X2747Y177D02*
X2754Y177D01*
X0Y176D02*
X7Y176D01*
X2747Y176D02*
X2754Y176D01*
X0Y175D02*
X7Y175D01*
X2747Y175D02*
X2754Y175D01*
X0Y174D02*
X7Y174D01*
X2747Y174D02*
X2754Y174D01*
X0Y173D02*
X7Y173D01*
X2747Y173D02*
X2754Y173D01*
X0Y172D02*
X7Y172D01*
X2747Y172D02*
X2754Y172D01*
X0Y171D02*
X7Y171D01*
X2747Y171D02*
X2754Y171D01*
X0Y170D02*
X7Y170D01*
X2747Y170D02*
X2754Y170D01*
X0Y169D02*
X7Y169D01*
X2747Y169D02*
X2754Y169D01*
X0Y168D02*
X7Y168D01*
X2747Y168D02*
X2754Y168D01*
X0Y167D02*
X7Y167D01*
X2747Y167D02*
X2754Y167D01*
X0Y166D02*
X7Y166D01*
X2747Y166D02*
X2754Y166D01*
X0Y165D02*
X7Y165D01*
X2747Y165D02*
X2754Y165D01*
X0Y164D02*
X7Y164D01*
X2747Y164D02*
X2754Y164D01*
X0Y163D02*
X7Y163D01*
X2747Y163D02*
X2754Y163D01*
X0Y162D02*
X7Y162D01*
X2747Y162D02*
X2754Y162D01*
X0Y161D02*
X7Y161D01*
X2747Y161D02*
X2754Y161D01*
X0Y160D02*
X7Y160D01*
X2747Y160D02*
X2754Y160D01*
X0Y159D02*
X7Y159D01*
X2747Y159D02*
X2754Y159D01*
X0Y158D02*
X7Y158D01*
X2747Y158D02*
X2754Y158D01*
X0Y157D02*
X7Y157D01*
X2747Y157D02*
X2754Y157D01*
X0Y156D02*
X7Y156D01*
X2747Y156D02*
X2754Y156D01*
X0Y155D02*
X7Y155D01*
X2747Y155D02*
X2754Y155D01*
X0Y154D02*
X7Y154D01*
X2747Y154D02*
X2754Y154D01*
X0Y153D02*
X7Y153D01*
X2747Y153D02*
X2754Y153D01*
X0Y152D02*
X7Y152D01*
X2747Y152D02*
X2754Y152D01*
X0Y151D02*
X7Y151D01*
X2747Y151D02*
X2754Y151D01*
X0Y150D02*
X7Y150D01*
X2747Y150D02*
X2754Y150D01*
X0Y149D02*
X7Y149D01*
X2747Y149D02*
X2754Y149D01*
X0Y148D02*
X7Y148D01*
X2747Y148D02*
X2754Y148D01*
X0Y147D02*
X7Y147D01*
X2747Y147D02*
X2754Y147D01*
X0Y146D02*
X7Y146D01*
X2747Y146D02*
X2754Y146D01*
X0Y145D02*
X7Y145D01*
X2747Y145D02*
X2754Y145D01*
X0Y144D02*
X7Y144D01*
X2747Y144D02*
X2754Y144D01*
X0Y143D02*
X7Y143D01*
X2747Y143D02*
X2754Y143D01*
X0Y142D02*
X7Y142D01*
X2747Y142D02*
X2754Y142D01*
X0Y141D02*
X7Y141D01*
X2747Y141D02*
X2754Y141D01*
X0Y140D02*
X7Y140D01*
X2747Y140D02*
X2754Y140D01*
X0Y139D02*
X7Y139D01*
X2747Y139D02*
X2754Y139D01*
X0Y138D02*
X7Y138D01*
X2747Y138D02*
X2754Y138D01*
X0Y137D02*
X7Y137D01*
X2747Y137D02*
X2754Y137D01*
X0Y136D02*
X7Y136D01*
X2747Y136D02*
X2754Y136D01*
X0Y135D02*
X7Y135D01*
X2747Y135D02*
X2754Y135D01*
X0Y134D02*
X7Y134D01*
X2747Y134D02*
X2754Y134D01*
X0Y133D02*
X7Y133D01*
X2747Y133D02*
X2754Y133D01*
X0Y132D02*
X7Y132D01*
X2747Y132D02*
X2754Y132D01*
X0Y131D02*
X7Y131D01*
X2747Y131D02*
X2754Y131D01*
X0Y130D02*
X7Y130D01*
X2747Y130D02*
X2754Y130D01*
X0Y129D02*
X7Y129D01*
X2747Y129D02*
X2754Y129D01*
X0Y128D02*
X7Y128D01*
X2747Y128D02*
X2754Y128D01*
X0Y127D02*
X7Y127D01*
X2747Y127D02*
X2754Y127D01*
X0Y126D02*
X7Y126D01*
X2747Y126D02*
X2754Y126D01*
X0Y125D02*
X7Y125D01*
X2747Y125D02*
X2754Y125D01*
X0Y124D02*
X7Y124D01*
X2747Y124D02*
X2754Y124D01*
X0Y123D02*
X7Y123D01*
X2747Y123D02*
X2754Y123D01*
X0Y122D02*
X7Y122D01*
X2747Y122D02*
X2754Y122D01*
X0Y121D02*
X7Y121D01*
X2747Y121D02*
X2754Y121D01*
X0Y120D02*
X7Y120D01*
X2747Y120D02*
X2754Y120D01*
X0Y119D02*
X7Y119D01*
X2747Y119D02*
X2754Y119D01*
X0Y118D02*
X7Y118D01*
X2747Y118D02*
X2754Y118D01*
X0Y117D02*
X7Y117D01*
X2747Y117D02*
X2754Y117D01*
X0Y116D02*
X7Y116D01*
X2747Y116D02*
X2754Y116D01*
X0Y115D02*
X7Y115D01*
X2747Y115D02*
X2754Y115D01*
X0Y114D02*
X7Y114D01*
X2747Y114D02*
X2754Y114D01*
X0Y113D02*
X7Y113D01*
X2747Y113D02*
X2754Y113D01*
X0Y112D02*
X7Y112D01*
X2747Y112D02*
X2754Y112D01*
X0Y111D02*
X7Y111D01*
X2747Y111D02*
X2754Y111D01*
X0Y110D02*
X7Y110D01*
X2747Y110D02*
X2754Y110D01*
X0Y109D02*
X7Y109D01*
X2747Y109D02*
X2754Y109D01*
X0Y108D02*
X7Y108D01*
X2747Y108D02*
X2754Y108D01*
X0Y107D02*
X7Y107D01*
X2747Y107D02*
X2754Y107D01*
X0Y106D02*
X7Y106D01*
X2747Y106D02*
X2754Y106D01*
X0Y105D02*
X7Y105D01*
X2747Y105D02*
X2754Y105D01*
X0Y104D02*
X7Y104D01*
X2747Y104D02*
X2754Y104D01*
X0Y103D02*
X7Y103D01*
X2747Y103D02*
X2754Y103D01*
X0Y102D02*
X7Y102D01*
X2747Y102D02*
X2754Y102D01*
X0Y101D02*
X7Y101D01*
X2747Y101D02*
X2754Y101D01*
X0Y100D02*
X7Y100D01*
X2747Y100D02*
X2754Y100D01*
X0Y99D02*
X7Y99D01*
X2747Y99D02*
X2754Y99D01*
X0Y98D02*
X7Y98D01*
X2747Y98D02*
X2754Y98D01*
X0Y97D02*
X7Y97D01*
X2747Y97D02*
X2754Y97D01*
X0Y96D02*
X7Y96D01*
X2747Y96D02*
X2754Y96D01*
X0Y95D02*
X7Y95D01*
X2747Y95D02*
X2754Y95D01*
X0Y94D02*
X7Y94D01*
X2747Y94D02*
X2754Y94D01*
X0Y93D02*
X7Y93D01*
X2747Y93D02*
X2754Y93D01*
X0Y92D02*
X7Y92D01*
X2747Y92D02*
X2754Y92D01*
X0Y91D02*
X7Y91D01*
X2747Y91D02*
X2754Y91D01*
X0Y90D02*
X7Y90D01*
X2747Y90D02*
X2754Y90D01*
X0Y89D02*
X7Y89D01*
X2747Y89D02*
X2754Y89D01*
X0Y88D02*
X7Y88D01*
X2747Y88D02*
X2754Y88D01*
X0Y87D02*
X7Y87D01*
X2747Y87D02*
X2754Y87D01*
X0Y86D02*
X7Y86D01*
X2747Y86D02*
X2754Y86D01*
X0Y85D02*
X7Y85D01*
X2747Y85D02*
X2754Y85D01*
X0Y84D02*
X7Y84D01*
X2747Y84D02*
X2754Y84D01*
X0Y83D02*
X7Y83D01*
X2747Y83D02*
X2754Y83D01*
X0Y82D02*
X7Y82D01*
X2747Y82D02*
X2754Y82D01*
X0Y81D02*
X7Y81D01*
X2747Y81D02*
X2754Y81D01*
X0Y80D02*
X7Y80D01*
X2747Y80D02*
X2754Y80D01*
X0Y79D02*
X7Y79D01*
X2747Y79D02*
X2754Y79D01*
X0Y78D02*
X7Y78D01*
X2747Y78D02*
X2754Y78D01*
X0Y77D02*
X7Y77D01*
X2747Y77D02*
X2754Y77D01*
X0Y76D02*
X7Y76D01*
X2747Y76D02*
X2754Y76D01*
X0Y75D02*
X7Y75D01*
X2747Y75D02*
X2754Y75D01*
X0Y74D02*
X7Y74D01*
X2747Y74D02*
X2754Y74D01*
X0Y73D02*
X7Y73D01*
X2747Y73D02*
X2754Y73D01*
X0Y72D02*
X7Y72D01*
X2747Y72D02*
X2754Y72D01*
X0Y71D02*
X7Y71D01*
X2747Y71D02*
X2754Y71D01*
X0Y70D02*
X7Y70D01*
X2747Y70D02*
X2754Y70D01*
X0Y69D02*
X7Y69D01*
X2747Y69D02*
X2754Y69D01*
X0Y68D02*
X7Y68D01*
X2747Y68D02*
X2754Y68D01*
X0Y67D02*
X7Y67D01*
X2747Y67D02*
X2754Y67D01*
X0Y66D02*
X7Y66D01*
X2747Y66D02*
X2754Y66D01*
X0Y65D02*
X7Y65D01*
X2747Y65D02*
X2754Y65D01*
X0Y64D02*
X7Y64D01*
X2747Y64D02*
X2754Y64D01*
X0Y63D02*
X7Y63D01*
X2747Y63D02*
X2754Y63D01*
X0Y62D02*
X7Y62D01*
X2747Y62D02*
X2754Y62D01*
X0Y61D02*
X7Y61D01*
X2747Y61D02*
X2754Y61D01*
X0Y60D02*
X7Y60D01*
X2747Y60D02*
X2754Y60D01*
X0Y59D02*
X7Y59D01*
X2747Y59D02*
X2754Y59D01*
X0Y58D02*
X7Y58D01*
X2747Y58D02*
X2754Y58D01*
X0Y57D02*
X7Y57D01*
X2747Y57D02*
X2754Y57D01*
X0Y56D02*
X7Y56D01*
X2747Y56D02*
X2754Y56D01*
X0Y55D02*
X7Y55D01*
X2747Y55D02*
X2754Y55D01*
X0Y54D02*
X7Y54D01*
X2747Y54D02*
X2754Y54D01*
X0Y53D02*
X7Y53D01*
X2747Y53D02*
X2754Y53D01*
X0Y52D02*
X7Y52D01*
X2747Y52D02*
X2754Y52D01*
X0Y51D02*
X7Y51D01*
X2747Y51D02*
X2754Y51D01*
X0Y50D02*
X7Y50D01*
X2747Y50D02*
X2754Y50D01*
X0Y49D02*
X7Y49D01*
X2747Y49D02*
X2754Y49D01*
X0Y48D02*
X7Y48D01*
X2747Y48D02*
X2754Y48D01*
X0Y47D02*
X7Y47D01*
X2747Y47D02*
X2754Y47D01*
X0Y46D02*
X7Y46D01*
X2747Y46D02*
X2754Y46D01*
X0Y45D02*
X7Y45D01*
X2747Y45D02*
X2754Y45D01*
X0Y44D02*
X7Y44D01*
X2747Y44D02*
X2754Y44D01*
X0Y43D02*
X7Y43D01*
X2747Y43D02*
X2754Y43D01*
X0Y42D02*
X7Y42D01*
X2747Y42D02*
X2754Y42D01*
X0Y41D02*
X7Y41D01*
X2747Y41D02*
X2754Y41D01*
X0Y40D02*
X7Y40D01*
X2747Y40D02*
X2754Y40D01*
X0Y39D02*
X7Y39D01*
X2747Y39D02*
X2754Y39D01*
X0Y38D02*
X7Y38D01*
X2747Y38D02*
X2754Y38D01*
X0Y37D02*
X7Y37D01*
X2747Y37D02*
X2754Y37D01*
X0Y36D02*
X7Y36D01*
X2747Y36D02*
X2754Y36D01*
X0Y35D02*
X7Y35D01*
X2747Y35D02*
X2754Y35D01*
X0Y34D02*
X7Y34D01*
X2747Y34D02*
X2754Y34D01*
X0Y33D02*
X7Y33D01*
X2747Y33D02*
X2754Y33D01*
X0Y32D02*
X7Y32D01*
X2747Y32D02*
X2754Y32D01*
X0Y31D02*
X7Y31D01*
X2747Y31D02*
X2754Y31D01*
X0Y30D02*
X7Y30D01*
X2747Y30D02*
X2754Y30D01*
X0Y29D02*
X7Y29D01*
X2747Y29D02*
X2754Y29D01*
X0Y28D02*
X7Y28D01*
X2747Y28D02*
X2754Y28D01*
X0Y27D02*
X7Y27D01*
X2747Y27D02*
X2754Y27D01*
X0Y26D02*
X7Y26D01*
X2747Y26D02*
X2754Y26D01*
X0Y25D02*
X7Y25D01*
X2747Y25D02*
X2754Y25D01*
X0Y24D02*
X7Y24D01*
X2747Y24D02*
X2754Y24D01*
X0Y23D02*
X7Y23D01*
X2747Y23D02*
X2754Y23D01*
X0Y22D02*
X7Y22D01*
X2747Y22D02*
X2754Y22D01*
X0Y21D02*
X7Y21D01*
X2747Y21D02*
X2754Y21D01*
X0Y20D02*
X7Y20D01*
X2747Y20D02*
X2754Y20D01*
X0Y19D02*
X7Y19D01*
X2747Y19D02*
X2754Y19D01*
X0Y18D02*
X7Y18D01*
X2747Y18D02*
X2754Y18D01*
X0Y17D02*
X7Y17D01*
X2747Y17D02*
X2754Y17D01*
X0Y16D02*
X7Y16D01*
X2747Y16D02*
X2754Y16D01*
X0Y15D02*
X7Y15D01*
X2747Y15D02*
X2754Y15D01*
X0Y14D02*
X7Y14D01*
X2747Y14D02*
X2754Y14D01*
X0Y13D02*
X7Y13D01*
X2747Y13D02*
X2754Y13D01*
X0Y12D02*
X7Y12D01*
X2747Y12D02*
X2754Y12D01*
X0Y11D02*
X7Y11D01*
X2747Y11D02*
X2754Y11D01*
X0Y10D02*
X7Y10D01*
X2747Y10D02*
X2754Y10D01*
X0Y9D02*
X7Y9D01*
X2747Y9D02*
X2754Y9D01*
X0Y8D02*
X2754Y8D01*
X0Y7D02*
X2754Y7D01*
X0Y6D02*
X2754Y6D01*
X0Y5D02*
X2754Y5D01*
X0Y4D02*
X2754Y4D01*
X0Y3D02*
X2754Y3D01*
X0Y2D02*
X2754Y2D01*
X0Y1D02*
X2754Y1D01*
D02*
G04 End of Silk0*
M02*