solid OpenSCAD_Model
  facet normal -1 0 0
    outer loop
      vertex -7 20 10
      vertex -7 31 11.6
      vertex -7 31 10
    endloop
  endfacet
  facet normal -1 -0 0
    outer loop
      vertex -7 31 11.6
      vertex -7 20 10
      vertex -7 20 11.6
    endloop
  endfacet
  facet normal -0 0 1
    outer loop
      vertex -3.48549 29.2745 11.6
      vertex -2.42705 27.2634 11.6
      vertex -3.37209 29.3278 11.6
    endloop
  endfacet
  facet normal 0 0 1
    outer loop
      vertex -2.97634 25.124 11.6
      vertex -3.15571 21.3743 11.6
      vertex -3.14 21.25 11.6
    endloop
  endfacet
  facet normal -0 0 1
    outer loop
      vertex -3.6086 29.251 11.6
      vertex -2.42705 27.2634 11.6
      vertex -3.48549 29.2745 11.6
    endloop
  endfacet
  facet normal 0 0 1
    outer loop
      vertex -2.97634 25.124 11.6
      vertex -3.20185 21.4909 11.6
      vertex -3.15571 21.3743 11.6
    endloop
  endfacet
  facet normal 0 0 1
    outer loop
      vertex -3.73369 29.2589 11.6
      vertex -2.42705 27.2634 11.6
      vertex -3.6086 29.251 11.6
    endloop
  endfacet
  facet normal 0 0 1
    outer loop
      vertex -2.97634 25.124 11.6
      vertex -3.27552 21.5923 11.6
      vertex -3.20185 21.4909 11.6
    endloop
  endfacet
  facet normal 0 0 1
    outer loop
      vertex -2.42705 27.2634 11.6
      vertex -3.73369 29.2589 11.6
      vertex -2.78933 26.6044 11.6
    endloop
  endfacet
  facet normal 0 0 1
    outer loop
      vertex -2.97634 25.124 11.6
      vertex -3.37209 21.6722 11.6
      vertex -3.27552 21.5923 11.6
    endloop
  endfacet
  facet normal 0 0 1
    outer loop
      vertex -3.85289 29.2976 11.6
      vertex -2.78933 26.6044 11.6
      vertex -3.73369 29.2589 11.6
    endloop
  endfacet
  facet normal 0 0 1
    outer loop
      vertex -2.97634 25.124 11.6
      vertex -3.48549 21.7255 11.6
      vertex -3.37209 21.6722 11.6
    endloop
  endfacet
  facet normal 0 0 1
    outer loop
      vertex -3.95871 29.3647 11.6
      vertex -2.78933 26.6044 11.6
      vertex -3.85289 29.2976 11.6
    endloop
  endfacet
  facet normal 0 0 1
    outer loop
      vertex -2.97634 25.124 11.6
      vertex -3.6086 21.749 11.6
      vertex -3.48549 21.7255 11.6
    endloop
  endfacet
  facet normal 0 0 1
    outer loop
      vertex -2.78933 26.6044 11.6
      vertex -3.95871 29.3647 11.6
      vertex -2.97634 25.876 11.6
    endloop
  endfacet
  facet normal 0 0 1
    outer loop
      vertex -2.97634 25.124 11.6
      vertex -3.73369 21.7411 11.6
      vertex -3.6086 21.749 11.6
    endloop
  endfacet
  facet normal 0 0 1
    outer loop
      vertex -4.04451 29.4561 11.6
      vertex -2.97634 25.876 11.6
      vertex -3.95871 29.3647 11.6
    endloop
  endfacet
  facet normal 0 0 1
    outer loop
      vertex -2.97634 25.124 11.6
      vertex -3.85289 21.7024 11.6
      vertex -3.73369 21.7411 11.6
    endloop
  endfacet
  facet normal 0 0 1
    outer loop
      vertex -7 31 11.6
      vertex -2.97634 25.876 11.6
      vertex -4.04451 29.4561 11.6
    endloop
  endfacet
  facet normal 0 0 1
    outer loop
      vertex -2.97634 25.124 11.6
      vertex -3.95871 21.6353 11.6
      vertex -3.85289 21.7024 11.6
    endloop
  endfacet
  facet normal 0 0 1
    outer loop
      vertex -2.97634 25.876 11.6
      vertex -7 31 11.6
      vertex -2.97634 25.124 11.6
    endloop
  endfacet
  facet normal 0 0 1
    outer loop
      vertex -7 20 11.6
      vertex -2.97634 25.124 11.6
      vertex -7 31 11.6
    endloop
  endfacet
  facet normal 0 0 1
    outer loop
      vertex -7 31 11.6
      vertex -4.04451 29.4561 11.6
      vertex -4.10489 29.5659 11.6
    endloop
  endfacet
  facet normal 0 -0 1
    outer loop
      vertex -4.04451 21.5439 11.6
      vertex -2.97634 25.124 11.6
      vertex -7 20 11.6
    endloop
  endfacet
  facet normal 0 0 1
    outer loop
      vertex -7 31 11.6
      vertex -4.10489 29.5659 11.6
      vertex -4.13606 29.6873 11.6
    endloop
  endfacet
  facet normal 0 0 1
    outer loop
      vertex -2.97634 25.124 11.6
      vertex -4.04451 21.5439 11.6
      vertex -3.95871 21.6353 11.6
    endloop
  endfacet
  facet normal 0 0 1
    outer loop
      vertex 4.00448 29.4077 11.6
      vertex 7 31 11.6
      vertex 4.07815 29.5091 11.6
    endloop
  endfacet
  facet normal 0 0 1
    outer loop
      vertex 7 20 11.6
      vertex 4.12429 21.3743 11.6
      vertex 4.14 21.25 11.6
    endloop
  endfacet
  facet normal 0 0 1
    outer loop
      vertex 7 31 11.6
      vertex 3 25.5 11.6
      vertex 7 20 11.6
    endloop
  endfacet
  facet normal 0 0 1
    outer loop
      vertex 7 20 11.6
      vertex 4.07815 21.4909 11.6
      vertex 4.12429 21.3743 11.6
    endloop
  endfacet
  facet normal 0 0 1
    outer loop
      vertex 7 31 11.6
      vertex 4.00448 29.4077 11.6
      vertex 3 25.5 11.6
    endloop
  endfacet
  facet normal -0 -0 1
    outer loop
      vertex 4.00448 21.5923 11.6
      vertex 7 20 11.6
      vertex 3 25.5 11.6
    endloop
  endfacet
  facet normal 0 0 1
    outer loop
      vertex 2.90575 26.2461 11.6
      vertex 4.00448 29.4077 11.6
      vertex 3.90791 29.3278 11.6
    endloop
  endfacet
  facet normal 0 0 1
    outer loop
      vertex 7 20 11.6
      vertex 4.00448 21.5923 11.6
      vertex 4.07815 21.4909 11.6
    endloop
  endfacet
  facet normal 0 0 1
    outer loop
      vertex 2.90575 26.2461 11.6
      vertex 3.90791 29.3278 11.6
      vertex 3.79451 29.2745 11.6
    endloop
  endfacet
  facet normal -0 0 1
    outer loop
      vertex 2.90575 24.7539 11.6
      vertex 4.00448 21.5923 11.6
      vertex 3 25.5 11.6
    endloop
  endfacet
  facet normal 0 0 1
    outer loop
      vertex 2.62892 26.9453 11.6
      vertex 3.79451 29.2745 11.6
      vertex 3.67139 29.251 11.6
    endloop
  endfacet
  facet normal 0 0 1
    outer loop
      vertex 4.00448 21.5923 11.6
      vertex 2.90575 24.7539 11.6
      vertex 3.90791 21.6722 11.6
    endloop
  endfacet
  facet normal 0 0 1
    outer loop
      vertex 2.62892 26.9453 11.6
      vertex 3.67139 29.251 11.6
      vertex 3.54631 29.2589 11.6
    endloop
  endfacet
  facet normal 0 0 1
    outer loop
      vertex 3.90791 21.6722 11.6
      vertex 2.90575 24.7539 11.6
      vertex 3.79451 21.7255 11.6
    endloop
  endfacet
  facet normal 0 0 1
    outer loop
      vertex 2.18691 27.5536 11.6
      vertex 3.54631 29.2589 11.6
      vertex 3.42711 29.2976 11.6
    endloop
  endfacet
  facet normal -0 0 1
    outer loop
      vertex 2.62892 24.0547 11.6
      vertex 3.79451 21.7255 11.6
      vertex 2.90575 24.7539 11.6
    endloop
  endfacet
  facet normal 0 0 1
    outer loop
      vertex 2.18691 27.5536 11.6
      vertex 3.42711 29.2976 11.6
      vertex 3.32129 29.3647 11.6
    endloop
  endfacet
  facet normal 0 0 1
    outer loop
      vertex 3.79451 21.7255 11.6
      vertex 2.62892 24.0547 11.6
      vertex 3.67139 21.749 11.6
    endloop
  endfacet
  facet normal 0 0 1
    outer loop
      vertex 1.60748 28.033 11.6
      vertex 3.32129 29.3647 11.6
      vertex 3.23549 29.4561 11.6
    endloop
  endfacet
  facet normal 0 0 1
    outer loop
      vertex 3.67139 21.749 11.6
      vertex 2.62892 24.0547 11.6
      vertex 3.54631 21.7411 11.6
    endloop
  endfacet
  facet normal 0 0 1
    outer loop
      vertex 1.60748 28.033 11.6
      vertex 3.23549 29.4561 11.6
      vertex 3.17511 29.5659 11.6
    endloop
  endfacet
  facet normal -0 0 1
    outer loop
      vertex 2.18691 23.4464 11.6
      vertex 3.54631 21.7411 11.6
      vertex 2.62892 24.0547 11.6
    endloop
  endfacet
  facet normal 0 0 1
    outer loop
      vertex 1.60748 28.033 11.6
      vertex 3.17511 29.5659 11.6
      vertex 3.14394 29.6873 11.6
    endloop
  endfacet
  facet normal 0 0 1
    outer loop
      vertex 3.54631 21.7411 11.6
      vertex 2.18691 23.4464 11.6
      vertex 3.42711 21.7024 11.6
    endloop
  endfacet
  facet normal 0 0 1
    outer loop
      vertex 4.12429 29.6257 11.6
      vertex 7 31 11.6
      vertex 4.14 29.75 11.6
    endloop
  endfacet
  facet normal 0 0 1
    outer loop
      vertex 7 31 11.6
      vertex 4.12429 29.8743 11.6
      vertex 4.14 29.75 11.6
    endloop
  endfacet
  facet normal 0 0 1
    outer loop
      vertex 7 31 11.6
      vertex 4.07815 29.9909 11.6
      vertex 4.12429 29.8743 11.6
    endloop
  endfacet
  facet normal 0 0 1
    outer loop
      vertex 7 31 11.6
      vertex 4.00448 30.0923 11.6
      vertex 4.07815 29.9909 11.6
    endloop
  endfacet
  facet normal 0 0 1
    outer loop
      vertex 7 31 11.6
      vertex 3.90791 30.1722 11.6
      vertex 4.00448 30.0923 11.6
    endloop
  endfacet
  facet normal 0 0 1
    outer loop
      vertex 7 31 11.6
      vertex 3.79451 30.2255 11.6
      vertex 3.90791 30.1722 11.6
    endloop
  endfacet
  facet normal 0 0 1
    outer loop
      vertex 7 31 11.6
      vertex 3.67139 30.249 11.6
      vertex 3.79451 30.2255 11.6
    endloop
  endfacet
  facet normal 0 0 1
    outer loop
      vertex 7 31 11.6
      vertex 3.54631 30.2411 11.6
      vertex 3.67139 30.249 11.6
    endloop
  endfacet
  facet normal 0 0 1
    outer loop
      vertex 0.927051 28.3532 11.6
      vertex 3.14394 29.6873 11.6
      vertex 3.14394 29.8127 11.6
    endloop
  endfacet
  facet normal 0 0 1
    outer loop
      vertex 3.42711 21.7024 11.6
      vertex 2.18691 23.4464 11.6
      vertex 3.32129 21.6353 11.6
    endloop
  endfacet
  facet normal -0 0 1
    outer loop
      vertex 1.60748 22.967 11.6
      vertex 3.32129 21.6353 11.6
      vertex 2.18691 23.4464 11.6
    endloop
  endfacet
  facet normal 0 0 1
    outer loop
      vertex 4.00448 29.4077 11.6
      vertex 2.90575 26.2461 11.6
      vertex 3 25.5 11.6
    endloop
  endfacet
  facet normal 0 0 1
    outer loop
      vertex 3.79451 29.2745 11.6
      vertex 2.62892 26.9453 11.6
      vertex 2.90575 26.2461 11.6
    endloop
  endfacet
  facet normal 0 0 1
    outer loop
      vertex 3.54631 29.2589 11.6
      vertex 2.18691 27.5536 11.6
      vertex 2.62892 26.9453 11.6
    endloop
  endfacet
  facet normal 0 0 1
    outer loop
      vertex 0.927051 28.3532 11.6
      vertex 3.14394 29.8127 11.6
      vertex 3.17511 29.9341 11.6
    endloop
  endfacet
  facet normal 0 0 1
    outer loop
      vertex 3.32129 29.3647 11.6
      vertex 1.60748 28.033 11.6
      vertex 2.18691 27.5536 11.6
    endloop
  endfacet
  facet normal 0 0 1
    outer loop
      vertex 0.188371 28.4941 11.6
      vertex 3.17511 29.9341 11.6
      vertex 3.23549 30.0439 11.6
    endloop
  endfacet
  facet normal 0 0 1
    outer loop
      vertex 3.14394 29.6873 11.6
      vertex 0.927051 28.3532 11.6
      vertex 1.60748 28.033 11.6
    endloop
  endfacet
  facet normal -0 0 1
    outer loop
      vertex -3.27552 30.0923 11.6
      vertex 3.23549 30.0439 11.6
      vertex 3.32129 30.1353 11.6
    endloop
  endfacet
  facet normal 0 0 1
    outer loop
      vertex 3.17511 29.9341 11.6
      vertex 0.188371 28.4941 11.6
      vertex 0.927051 28.3532 11.6
    endloop
  endfacet
  facet normal -0 0 1
    outer loop
      vertex -3.37209 30.1722 11.6
      vertex 3.32129 30.1353 11.6
      vertex 3.42711 30.2024 11.6
    endloop
  endfacet
  facet normal 0 0 1
    outer loop
      vertex 3.23549 30.0439 11.6
      vertex -3.27552 30.0923 11.6
      vertex 0.188371 28.4941 11.6
    endloop
  endfacet
  facet normal -0 -0 1
    outer loop
      vertex -3.20185 29.9909 11.6
      vertex 0.188371 28.4941 11.6
      vertex -3.27552 30.0923 11.6
    endloop
  endfacet
  facet normal -0 0 1
    outer loop
      vertex -3.37209 29.3278 11.6
      vertex -1.91227 27.8115 11.6
      vertex -3.27552 29.4077 11.6
    endloop
  endfacet
  facet normal -0 0 1
    outer loop
      vertex -3.27552 29.4077 11.6
      vertex -1.91227 27.8115 11.6
      vertex -3.20185 29.5091 11.6
    endloop
  endfacet
  facet normal 0 0 1
    outer loop
      vertex -1.27734 28.2145 11.6
      vertex -3.20185 29.5091 11.6
      vertex -1.91227 27.8115 11.6
    endloop
  endfacet
  facet normal -0 0 1
    outer loop
      vertex -3.20185 29.5091 11.6
      vertex -1.27734 28.2145 11.6
      vertex -3.15571 29.6257 11.6
    endloop
  endfacet
  facet normal -0 0 1
    outer loop
      vertex -3.15571 29.6257 11.6
      vertex -1.27734 28.2145 11.6
      vertex -3.14 29.75 11.6
    endloop
  endfacet
  facet normal -0 -0 1
    outer loop
      vertex -3.15571 29.8743 11.6
      vertex -0.562143 28.4469 11.6
      vertex -3.20185 29.9909 11.6
    endloop
  endfacet
  facet normal -0 0 1
    outer loop
      vertex -3.48549 30.2255 11.6
      vertex 3.42711 30.2024 11.6
      vertex 3.54631 30.2411 11.6
    endloop
  endfacet
  facet normal -0 0 1
    outer loop
      vertex -3.6086 30.249 11.6
      vertex 3.54631 30.2411 11.6
      vertex 7 31 11.6
    endloop
  endfacet
  facet normal 0 0 1
    outer loop
      vertex -0.562143 28.4469 11.6
      vertex -3.14 29.75 11.6
      vertex -1.27734 28.2145 11.6
    endloop
  endfacet
  facet normal -0 -0 1
    outer loop
      vertex -3.14 29.75 11.6
      vertex -0.562143 28.4469 11.6
      vertex -3.15571 29.8743 11.6
    endloop
  endfacet
  facet normal 0 0 1
    outer loop
      vertex 0.188371 28.4941 11.6
      vertex -3.20185 29.9909 11.6
      vertex -0.562143 28.4469 11.6
    endloop
  endfacet
  facet normal 0 0 1
    outer loop
      vertex 3.32129 30.1353 11.6
      vertex -3.37209 30.1722 11.6
      vertex -3.27552 30.0923 11.6
    endloop
  endfacet
  facet normal 0 0 1
    outer loop
      vertex 3.42711 30.2024 11.6
      vertex -3.48549 30.2255 11.6
      vertex -3.37209 30.1722 11.6
    endloop
  endfacet
  facet normal 0 0 1
    outer loop
      vertex 3.54631 30.2411 11.6
      vertex -3.6086 30.249 11.6
      vertex -3.48549 30.2255 11.6
    endloop
  endfacet
  facet normal -0 0 1
    outer loop
      vertex -7 31 11.6
      vertex -3.6086 30.249 11.6
      vertex 7 31 11.6
    endloop
  endfacet
  facet normal 0 0 1
    outer loop
      vertex -7 31 11.6
      vertex -4.13606 29.6873 11.6
      vertex -4.13606 29.8127 11.6
    endloop
  endfacet
  facet normal 0 0 1
    outer loop
      vertex -4.04451 21.5439 11.6
      vertex -7 20 11.6
      vertex -4.10489 21.4341 11.6
    endloop
  endfacet
  facet normal 0 0 1
    outer loop
      vertex -4.10489 21.4341 11.6
      vertex -7 20 11.6
      vertex -4.13606 21.3127 11.6
    endloop
  endfacet
  facet normal 0 0 1
    outer loop
      vertex -4.10489 29.9341 11.6
      vertex -7 31 11.6
      vertex -4.13606 29.8127 11.6
    endloop
  endfacet
  facet normal 0 0 1
    outer loop
      vertex -4.04451 30.0439 11.6
      vertex -7 31 11.6
      vertex -4.10489 29.9341 11.6
    endloop
  endfacet
  facet normal 0 0 1
    outer loop
      vertex -3.95871 30.1353 11.6
      vertex -7 31 11.6
      vertex -4.04451 30.0439 11.6
    endloop
  endfacet
  facet normal 0 0 1
    outer loop
      vertex -3.85289 30.2024 11.6
      vertex -7 31 11.6
      vertex -3.95871 30.1353 11.6
    endloop
  endfacet
  facet normal 0 0 1
    outer loop
      vertex -3.73369 30.2411 11.6
      vertex -7 31 11.6
      vertex -3.85289 30.2024 11.6
    endloop
  endfacet
  facet normal 0 0 1
    outer loop
      vertex -3.6086 30.249 11.6
      vertex -7 31 11.6
      vertex -3.73369 30.2411 11.6
    endloop
  endfacet
  facet normal 0 0 1
    outer loop
      vertex 4.07815 29.5091 11.6
      vertex 7 31 11.6
      vertex 4.12429 29.6257 11.6
    endloop
  endfacet
  facet normal -0 0 1
    outer loop
      vertex 4.12429 21.1257 11.6
      vertex 7 20 11.6
      vertex 4.14 21.25 11.6
    endloop
  endfacet
  facet normal -0 0 1
    outer loop
      vertex 4.07815 21.0091 11.6
      vertex 7 20 11.6
      vertex 4.12429 21.1257 11.6
    endloop
  endfacet
  facet normal -0 0 1
    outer loop
      vertex 4.00448 20.9077 11.6
      vertex 7 20 11.6
      vertex 4.07815 21.0091 11.6
    endloop
  endfacet
  facet normal -0 0 1
    outer loop
      vertex 3.90791 20.8278 11.6
      vertex 7 20 11.6
      vertex 4.00448 20.9077 11.6
    endloop
  endfacet
  facet normal -0 0 1
    outer loop
      vertex 3.79451 20.7745 11.6
      vertex 7 20 11.6
      vertex 3.90791 20.8278 11.6
    endloop
  endfacet
  facet normal -0 0 1
    outer loop
      vertex 3.67139 20.751 11.6
      vertex 7 20 11.6
      vertex 3.79451 20.7745 11.6
    endloop
  endfacet
  facet normal 0 0 1
    outer loop
      vertex 3.54631 20.7589 11.6
      vertex 7 20 11.6
      vertex 3.67139 20.751 11.6
    endloop
  endfacet
  facet normal 0 0 1
    outer loop
      vertex 3.32129 21.6353 11.6
      vertex 1.60748 22.967 11.6
      vertex 3.23549 21.5439 11.6
    endloop
  endfacet
  facet normal 0 0 1
    outer loop
      vertex 3.23549 21.5439 11.6
      vertex 1.60748 22.967 11.6
      vertex 3.17511 21.4341 11.6
    endloop
  endfacet
  facet normal 0 0 1
    outer loop
      vertex 3.17511 21.4341 11.6
      vertex 1.60748 22.967 11.6
      vertex 3.14394 21.3127 11.6
    endloop
  endfacet
  facet normal -0 0 1
    outer loop
      vertex 0.927051 22.6468 11.6
      vertex 3.14394 21.3127 11.6
      vertex 1.60748 22.967 11.6
    endloop
  endfacet
  facet normal 0 0 1
    outer loop
      vertex 3.14394 21.3127 11.6
      vertex 0.927051 22.6468 11.6
      vertex 3.14394 21.1873 11.6
    endloop
  endfacet
  facet normal 0 0 1
    outer loop
      vertex 3.14394 21.1873 11.6
      vertex 0.927051 22.6468 11.6
      vertex 3.17511 21.0659 11.6
    endloop
  endfacet
  facet normal -0 0 1
    outer loop
      vertex 0.188371 22.5059 11.6
      vertex 3.17511 21.0659 11.6
      vertex 0.927051 22.6468 11.6
    endloop
  endfacet
  facet normal 0 0 1
    outer loop
      vertex 3.17511 21.0659 11.6
      vertex 0.188371 22.5059 11.6
      vertex 3.23549 20.9561 11.6
    endloop
  endfacet
  facet normal 0 0 1
    outer loop
      vertex -3.27552 20.9077 11.6
      vertex 3.23549 20.9561 11.6
      vertex 0.188371 22.5059 11.6
    endloop
  endfacet
  facet normal 0 0 1
    outer loop
      vertex 3.23549 20.9561 11.6
      vertex -3.27552 20.9077 11.6
      vertex 3.32129 20.8647 11.6
    endloop
  endfacet
  facet normal 0 0 1
    outer loop
      vertex -3.20185 21.0091 11.6
      vertex 0.188371 22.5059 11.6
      vertex -0.562143 22.5531 11.6
    endloop
  endfacet
  facet normal 0 0 1
    outer loop
      vertex -3.14 21.25 11.6
      vertex -0.562143 22.5531 11.6
      vertex -1.27734 22.7855 11.6
    endloop
  endfacet
  facet normal 0 0 1
    outer loop
      vertex -1.91227 27.8115 11.6
      vertex -3.37209 29.3278 11.6
      vertex -2.42705 27.2634 11.6
    endloop
  endfacet
  facet normal 0 0 1
    outer loop
      vertex -3.14 21.25 11.6
      vertex -2.78933 24.3956 11.6
      vertex -2.97634 25.124 11.6
    endloop
  endfacet
  facet normal 0 0 1
    outer loop
      vertex -3.14 21.25 11.6
      vertex -2.42705 23.7366 11.6
      vertex -2.78933 24.3956 11.6
    endloop
  endfacet
  facet normal 0 0 1
    outer loop
      vertex -3.14 21.25 11.6
      vertex -1.91227 23.1885 11.6
      vertex -2.42705 23.7366 11.6
    endloop
  endfacet
  facet normal 0 0 1
    outer loop
      vertex -3.14 21.25 11.6
      vertex -1.27734 22.7855 11.6
      vertex -1.91227 23.1885 11.6
    endloop
  endfacet
  facet normal 0 0 1
    outer loop
      vertex -0.562143 22.5531 11.6
      vertex -3.14 21.25 11.6
      vertex -3.15571 21.1257 11.6
    endloop
  endfacet
  facet normal 0 0 1
    outer loop
      vertex -0.562143 22.5531 11.6
      vertex -3.15571 21.1257 11.6
      vertex -3.20185 21.0091 11.6
    endloop
  endfacet
  facet normal 0 0 1
    outer loop
      vertex 0.188371 22.5059 11.6
      vertex -3.20185 21.0091 11.6
      vertex -3.27552 20.9077 11.6
    endloop
  endfacet
  facet normal 0 0 1
    outer loop
      vertex -3.37209 20.8278 11.6
      vertex 3.32129 20.8647 11.6
      vertex -3.27552 20.9077 11.6
    endloop
  endfacet
  facet normal 0 0 1
    outer loop
      vertex 3.32129 20.8647 11.6
      vertex -3.37209 20.8278 11.6
      vertex 3.42711 20.7976 11.6
    endloop
  endfacet
  facet normal 0 0 1
    outer loop
      vertex -3.48549 20.7745 11.6
      vertex 3.42711 20.7976 11.6
      vertex -3.37209 20.8278 11.6
    endloop
  endfacet
  facet normal 0 0 1
    outer loop
      vertex 3.42711 20.7976 11.6
      vertex -3.48549 20.7745 11.6
      vertex 3.54631 20.7589 11.6
    endloop
  endfacet
  facet normal 0 0 1
    outer loop
      vertex -3.6086 20.751 11.6
      vertex 3.54631 20.7589 11.6
      vertex -3.48549 20.7745 11.6
    endloop
  endfacet
  facet normal 0 0 1
    outer loop
      vertex 3.54631 20.7589 11.6
      vertex -3.6086 20.751 11.6
      vertex 7 20 11.6
    endloop
  endfacet
  facet normal 0 0 1
    outer loop
      vertex -7 20 11.6
      vertex -3.6086 20.751 11.6
      vertex -3.73369 20.7589 11.6
    endloop
  endfacet
  facet normal 0 0 1
    outer loop
      vertex -4.13606 21.3127 11.6
      vertex -7 20 11.6
      vertex -4.13606 21.1873 11.6
    endloop
  endfacet
  facet normal 0 0 1
    outer loop
      vertex -3.6086 20.751 11.6
      vertex -7 20 11.6
      vertex 7 20 11.6
    endloop
  endfacet
  facet normal 0 0 1
    outer loop
      vertex -3.85289 20.7976 11.6
      vertex -7 20 11.6
      vertex -3.73369 20.7589 11.6
    endloop
  endfacet
  facet normal 0 0 1
    outer loop
      vertex -3.95871 20.8647 11.6
      vertex -7 20 11.6
      vertex -3.85289 20.7976 11.6
    endloop
  endfacet
  facet normal 0 0 1
    outer loop
      vertex -4.04451 20.9561 11.6
      vertex -7 20 11.6
      vertex -3.95871 20.8647 11.6
    endloop
  endfacet
  facet normal 0 0 1
    outer loop
      vertex -4.10489 21.0659 11.6
      vertex -7 20 11.6
      vertex -4.04451 20.9561 11.6
    endloop
  endfacet
  facet normal 0 0 1
    outer loop
      vertex -4.13606 21.1873 11.6
      vertex -7 20 11.6
      vertex -4.10489 21.0659 11.6
    endloop
  endfacet
  facet normal 1 -0 0
    outer loop
      vertex 7 20 11.6
      vertex 7 31 10
      vertex 7 31 11.6
    endloop
  endfacet
  facet normal 1 0 0
    outer loop
      vertex 7 31 10
      vertex 7 20 11.6
      vertex 7 20 10
    endloop
  endfacet
  facet normal 0 1 -0
    outer loop
      vertex 7 31 10
      vertex -7 31 11.6
      vertex 7 31 11.6
    endloop
  endfacet
  facet normal 0 1 0
    outer loop
      vertex -7 31 11.6
      vertex 7 31 10
      vertex -7 31 10
    endloop
  endfacet
  facet normal 0 0 -1
    outer loop
      vertex -3.48549 21.7255 10
      vertex -2.42705 23.7366 10
      vertex -3.37209 21.6722 10
    endloop
  endfacet
  facet normal 0 0 -1
    outer loop
      vertex -2.97634 25.876 10
      vertex -3.15571 29.6257 10
      vertex -3.14 29.75 10
    endloop
  endfacet
  facet normal 0 0 -1
    outer loop
      vertex -3.6086 21.749 10
      vertex -2.42705 23.7366 10
      vertex -3.48549 21.7255 10
    endloop
  endfacet
  facet normal 0 0 -1
    outer loop
      vertex -2.97634 25.876 10
      vertex -3.20185 29.5091 10
      vertex -3.15571 29.6257 10
    endloop
  endfacet
  facet normal 0 0 -1
    outer loop
      vertex -3.73369 21.7411 10
      vertex -2.42705 23.7366 10
      vertex -3.6086 21.749 10
    endloop
  endfacet
  facet normal 0 0 -1
    outer loop
      vertex -2.97634 25.876 10
      vertex -3.27552 29.4077 10
      vertex -3.20185 29.5091 10
    endloop
  endfacet
  facet normal -0 0 -1
    outer loop
      vertex -2.42705 23.7366 10
      vertex -3.73369 21.7411 10
      vertex -2.78933 24.3956 10
    endloop
  endfacet
  facet normal 0 0 -1
    outer loop
      vertex -2.97634 25.876 10
      vertex -3.37209 29.3278 10
      vertex -3.27552 29.4077 10
    endloop
  endfacet
  facet normal 0 0 -1
    outer loop
      vertex -3.85289 21.7024 10
      vertex -2.78933 24.3956 10
      vertex -3.73369 21.7411 10
    endloop
  endfacet
  facet normal 0 0 -1
    outer loop
      vertex -2.97634 25.876 10
      vertex -3.48549 29.2745 10
      vertex -3.37209 29.3278 10
    endloop
  endfacet
  facet normal 0 0 -1
    outer loop
      vertex -3.95871 21.6353 10
      vertex -2.78933 24.3956 10
      vertex -3.85289 21.7024 10
    endloop
  endfacet
  facet normal 0 0 -1
    outer loop
      vertex -2.97634 25.876 10
      vertex -3.6086 29.251 10
      vertex -3.48549 29.2745 10
    endloop
  endfacet
  facet normal -0 0 -1
    outer loop
      vertex -2.78933 24.3956 10
      vertex -3.95871 21.6353 10
      vertex -2.97634 25.124 10
    endloop
  endfacet
  facet normal 0 0 -1
    outer loop
      vertex -2.97634 25.876 10
      vertex -3.73369 29.2589 10
      vertex -3.6086 29.251 10
    endloop
  endfacet
  facet normal 0 0 -1
    outer loop
      vertex -4.04451 21.5439 10
      vertex -2.97634 25.124 10
      vertex -3.95871 21.6353 10
    endloop
  endfacet
  facet normal 0 0 -1
    outer loop
      vertex -2.97634 25.876 10
      vertex -3.85289 29.2976 10
      vertex -3.73369 29.2589 10
    endloop
  endfacet
  facet normal 0 0 -1
    outer loop
      vertex -7 20 10
      vertex -2.97634 25.124 10
      vertex -4.04451 21.5439 10
    endloop
  endfacet
  facet normal 0 0 -1
    outer loop
      vertex -2.97634 25.876 10
      vertex -3.95871 29.3647 10
      vertex -3.85289 29.2976 10
    endloop
  endfacet
  facet normal -0 0 -1
    outer loop
      vertex -2.97634 25.124 10
      vertex -7 20 10
      vertex -2.97634 25.876 10
    endloop
  endfacet
  facet normal 0 0 -1
    outer loop
      vertex -7 31 10
      vertex -2.97634 25.876 10
      vertex -7 20 10
    endloop
  endfacet
  facet normal 0 0 -1
    outer loop
      vertex -7 20 10
      vertex -4.04451 21.5439 10
      vertex -4.10489 21.4341 10
    endloop
  endfacet
  facet normal -0 -0 -1
    outer loop
      vertex -4.04451 29.4561 10
      vertex -2.97634 25.876 10
      vertex -7 31 10
    endloop
  endfacet
  facet normal 0 0 -1
    outer loop
      vertex -7 20 10
      vertex -4.10489 21.4341 10
      vertex -4.13606 21.3127 10
    endloop
  endfacet
  facet normal 0 0 -1
    outer loop
      vertex -2.97634 25.876 10
      vertex -4.04451 29.4561 10
      vertex -3.95871 29.3647 10
    endloop
  endfacet
  facet normal 0 0 -1
    outer loop
      vertex 4.00448 21.5923 10
      vertex 7 20 10
      vertex 4.07815 21.4909 10
    endloop
  endfacet
  facet normal 0 0 -1
    outer loop
      vertex 7 31 10
      vertex 4.12429 29.6257 10
      vertex 4.14 29.75 10
    endloop
  endfacet
  facet normal 0 0 -1
    outer loop
      vertex 7 20 10
      vertex 3 25.5 10
      vertex 7 31 10
    endloop
  endfacet
  facet normal 0 0 -1
    outer loop
      vertex 7 31 10
      vertex 4.07815 29.5091 10
      vertex 4.12429 29.6257 10
    endloop
  endfacet
  facet normal 0 0 -1
    outer loop
      vertex 7 20 10
      vertex 4.00448 21.5923 10
      vertex 3 25.5 10
    endloop
  endfacet
  facet normal 0 -0 -1
    outer loop
      vertex 4.00448 29.4077 10
      vertex 7 31 10
      vertex 3 25.5 10
    endloop
  endfacet
  facet normal 0 0 -1
    outer loop
      vertex 2.90575 24.7539 10
      vertex 4.00448 21.5923 10
      vertex 3.90791 21.6722 10
    endloop
  endfacet
  facet normal 0 0 -1
    outer loop
      vertex 7 31 10
      vertex 4.00448 29.4077 10
      vertex 4.07815 29.5091 10
    endloop
  endfacet
  facet normal 0 0 -1
    outer loop
      vertex 2.90575 24.7539 10
      vertex 3.90791 21.6722 10
      vertex 3.79451 21.7255 10
    endloop
  endfacet
  facet normal 0 0 -1
    outer loop
      vertex 2.90575 26.2461 10
      vertex 4.00448 29.4077 10
      vertex 3 25.5 10
    endloop
  endfacet
  facet normal 0 0 -1
    outer loop
      vertex 2.62892 24.0547 10
      vertex 3.79451 21.7255 10
      vertex 3.67139 21.749 10
    endloop
  endfacet
  facet normal 0 0 -1
    outer loop
      vertex 4.00448 29.4077 10
      vertex 2.90575 26.2461 10
      vertex 3.90791 29.3278 10
    endloop
  endfacet
  facet normal 0 0 -1
    outer loop
      vertex 2.62892 24.0547 10
      vertex 3.67139 21.749 10
      vertex 3.54631 21.7411 10
    endloop
  endfacet
  facet normal 0 0 -1
    outer loop
      vertex 3.90791 29.3278 10
      vertex 2.90575 26.2461 10
      vertex 3.79451 29.2745 10
    endloop
  endfacet
  facet normal 0 0 -1
    outer loop
      vertex 2.18691 23.4464 10
      vertex 3.54631 21.7411 10
      vertex 3.42711 21.7024 10
    endloop
  endfacet
  facet normal 0 0 -1
    outer loop
      vertex 2.62892 26.9453 10
      vertex 3.79451 29.2745 10
      vertex 2.90575 26.2461 10
    endloop
  endfacet
  facet normal 0 0 -1
    outer loop
      vertex 2.18691 23.4464 10
      vertex 3.42711 21.7024 10
      vertex 3.32129 21.6353 10
    endloop
  endfacet
  facet normal 0 0 -1
    outer loop
      vertex 3.79451 29.2745 10
      vertex 2.62892 26.9453 10
      vertex 3.67139 29.251 10
    endloop
  endfacet
  facet normal 0 0 -1
    outer loop
      vertex 1.60748 22.967 10
      vertex 3.32129 21.6353 10
      vertex 3.23549 21.5439 10
    endloop
  endfacet
  facet normal -0 0 -1
    outer loop
      vertex 3.67139 29.251 10
      vertex 2.62892 26.9453 10
      vertex 3.54631 29.2589 10
    endloop
  endfacet
  facet normal 0 0 -1
    outer loop
      vertex 1.60748 22.967 10
      vertex 3.23549 21.5439 10
      vertex 3.17511 21.4341 10
    endloop
  endfacet
  facet normal 0 0 -1
    outer loop
      vertex 2.18691 27.5536 10
      vertex 3.54631 29.2589 10
      vertex 2.62892 26.9453 10
    endloop
  endfacet
  facet normal 0 0 -1
    outer loop
      vertex 1.60748 22.967 10
      vertex 3.17511 21.4341 10
      vertex 3.14394 21.3127 10
    endloop
  endfacet
  facet normal -0 0 -1
    outer loop
      vertex 3.54631 29.2589 10
      vertex 2.18691 27.5536 10
      vertex 3.42711 29.2976 10
    endloop
  endfacet
  facet normal 0 0 -1
    outer loop
      vertex 4.12429 21.3743 10
      vertex 7 20 10
      vertex 4.14 21.25 10
    endloop
  endfacet
  facet normal 0 0 -1
    outer loop
      vertex 7 20 10
      vertex 4.12429 21.1257 10
      vertex 4.14 21.25 10
    endloop
  endfacet
  facet normal 0 0 -1
    outer loop
      vertex 7 20 10
      vertex 4.07815 21.0091 10
      vertex 4.12429 21.1257 10
    endloop
  endfacet
  facet normal 0 0 -1
    outer loop
      vertex 7 20 10
      vertex 4.00448 20.9077 10
      vertex 4.07815 21.0091 10
    endloop
  endfacet
  facet normal 0 0 -1
    outer loop
      vertex 7 20 10
      vertex 3.90791 20.8278 10
      vertex 4.00448 20.9077 10
    endloop
  endfacet
  facet normal 0 0 -1
    outer loop
      vertex 7 20 10
      vertex 3.79451 20.7745 10
      vertex 3.90791 20.8278 10
    endloop
  endfacet
  facet normal 0 0 -1
    outer loop
      vertex 7 20 10
      vertex 3.67139 20.751 10
      vertex 3.79451 20.7745 10
    endloop
  endfacet
  facet normal 0 0 -1
    outer loop
      vertex 7 20 10
      vertex 3.54631 20.7589 10
      vertex 3.67139 20.751 10
    endloop
  endfacet
  facet normal 0 0 -1
    outer loop
      vertex 0.927051 22.6468 10
      vertex 3.14394 21.3127 10
      vertex 3.14394 21.1873 10
    endloop
  endfacet
  facet normal -0 0 -1
    outer loop
      vertex 3.42711 29.2976 10
      vertex 2.18691 27.5536 10
      vertex 3.32129 29.3647 10
    endloop
  endfacet
  facet normal 0 0 -1
    outer loop
      vertex 1.60748 28.033 10
      vertex 3.32129 29.3647 10
      vertex 2.18691 27.5536 10
    endloop
  endfacet
  facet normal 0 0 -1
    outer loop
      vertex 4.00448 21.5923 10
      vertex 2.90575 24.7539 10
      vertex 3 25.5 10
    endloop
  endfacet
  facet normal 0 0 -1
    outer loop
      vertex 3.79451 21.7255 10
      vertex 2.62892 24.0547 10
      vertex 2.90575 24.7539 10
    endloop
  endfacet
  facet normal 0 0 -1
    outer loop
      vertex 3.54631 21.7411 10
      vertex 2.18691 23.4464 10
      vertex 2.62892 24.0547 10
    endloop
  endfacet
  facet normal 0 0 -1
    outer loop
      vertex 0.927051 22.6468 10
      vertex 3.14394 21.1873 10
      vertex 3.17511 21.0659 10
    endloop
  endfacet
  facet normal 0 0 -1
    outer loop
      vertex 3.32129 21.6353 10
      vertex 1.60748 22.967 10
      vertex 2.18691 23.4464 10
    endloop
  endfacet
  facet normal 0 0 -1
    outer loop
      vertex 0.188371 22.5059 10
      vertex 3.17511 21.0659 10
      vertex 3.23549 20.9561 10
    endloop
  endfacet
  facet normal 0 0 -1
    outer loop
      vertex 3.14394 21.3127 10
      vertex 0.927051 22.6468 10
      vertex 1.60748 22.967 10
    endloop
  endfacet
  facet normal 0 0 -1
    outer loop
      vertex -3.27552 20.9077 10
      vertex 3.23549 20.9561 10
      vertex 3.32129 20.8647 10
    endloop
  endfacet
  facet normal 0 0 -1
    outer loop
      vertex 3.17511 21.0659 10
      vertex 0.188371 22.5059 10
      vertex 0.927051 22.6468 10
    endloop
  endfacet
  facet normal 0 0 -1
    outer loop
      vertex -3.37209 20.8278 10
      vertex 3.32129 20.8647 10
      vertex 3.42711 20.7976 10
    endloop
  endfacet
  facet normal -0 0 -1
    outer loop
      vertex 3.23549 20.9561 10
      vertex -3.27552 20.9077 10
      vertex 0.188371 22.5059 10
    endloop
  endfacet
  facet normal 0 -0 -1
    outer loop
      vertex -3.20185 21.0091 10
      vertex 0.188371 22.5059 10
      vertex -3.27552 20.9077 10
    endloop
  endfacet
  facet normal 0 0 -1
    outer loop
      vertex -3.37209 21.6722 10
      vertex -1.91227 23.1885 10
      vertex -3.27552 21.5923 10
    endloop
  endfacet
  facet normal 0 0 -1
    outer loop
      vertex -3.27552 21.5923 10
      vertex -1.91227 23.1885 10
      vertex -3.20185 21.4909 10
    endloop
  endfacet
  facet normal -0 0 -1
    outer loop
      vertex -1.27734 22.7855 10
      vertex -3.20185 21.4909 10
      vertex -1.91227 23.1885 10
    endloop
  endfacet
  facet normal 0 0 -1
    outer loop
      vertex -3.20185 21.4909 10
      vertex -1.27734 22.7855 10
      vertex -3.15571 21.3743 10
    endloop
  endfacet
  facet normal 0 0 -1
    outer loop
      vertex -3.15571 21.3743 10
      vertex -1.27734 22.7855 10
      vertex -3.14 21.25 10
    endloop
  endfacet
  facet normal 0 -0 -1
    outer loop
      vertex -3.15571 21.1257 10
      vertex -0.562143 22.5531 10
      vertex -3.20185 21.0091 10
    endloop
  endfacet
  facet normal 0 0 -1
    outer loop
      vertex -3.48549 20.7745 10
      vertex 3.42711 20.7976 10
      vertex 3.54631 20.7589 10
    endloop
  endfacet
  facet normal 0 0 -1
    outer loop
      vertex -3.6086 20.751 10
      vertex 3.54631 20.7589 10
      vertex 7 20 10
    endloop
  endfacet
  facet normal -0 0 -1
    outer loop
      vertex -0.562143 22.5531 10
      vertex -3.14 21.25 10
      vertex -1.27734 22.7855 10
    endloop
  endfacet
  facet normal 0 -0 -1
    outer loop
      vertex -3.14 21.25 10
      vertex -0.562143 22.5531 10
      vertex -3.15571 21.1257 10
    endloop
  endfacet
  facet normal -0 0 -1
    outer loop
      vertex 0.188371 22.5059 10
      vertex -3.20185 21.0091 10
      vertex -0.562143 22.5531 10
    endloop
  endfacet
  facet normal -0 0 -1
    outer loop
      vertex 3.32129 20.8647 10
      vertex -3.37209 20.8278 10
      vertex -3.27552 20.9077 10
    endloop
  endfacet
  facet normal -0 0 -1
    outer loop
      vertex 3.42711 20.7976 10
      vertex -3.48549 20.7745 10
      vertex -3.37209 20.8278 10
    endloop
  endfacet
  facet normal -0 0 -1
    outer loop
      vertex 3.54631 20.7589 10
      vertex -3.6086 20.751 10
      vertex -3.48549 20.7745 10
    endloop
  endfacet
  facet normal 0 0 -1
    outer loop
      vertex -7 20 10
      vertex -3.6086 20.751 10
      vertex 7 20 10
    endloop
  endfacet
  facet normal 0 0 -1
    outer loop
      vertex -7 20 10
      vertex -4.13606 21.3127 10
      vertex -4.13606 21.1873 10
    endloop
  endfacet
  facet normal 0 0 -1
    outer loop
      vertex -4.04451 29.4561 10
      vertex -7 31 10
      vertex -4.10489 29.5659 10
    endloop
  endfacet
  facet normal 0 0 -1
    outer loop
      vertex -4.10489 29.5659 10
      vertex -7 31 10
      vertex -4.13606 29.6873 10
    endloop
  endfacet
  facet normal -0 0 -1
    outer loop
      vertex -4.10489 21.0659 10
      vertex -7 20 10
      vertex -4.13606 21.1873 10
    endloop
  endfacet
  facet normal -0 0 -1
    outer loop
      vertex -4.04451 20.9561 10
      vertex -7 20 10
      vertex -4.10489 21.0659 10
    endloop
  endfacet
  facet normal -0 0 -1
    outer loop
      vertex -3.95871 20.8647 10
      vertex -7 20 10
      vertex -4.04451 20.9561 10
    endloop
  endfacet
  facet normal -0 0 -1
    outer loop
      vertex -3.85289 20.7976 10
      vertex -7 20 10
      vertex -3.95871 20.8647 10
    endloop
  endfacet
  facet normal -0 0 -1
    outer loop
      vertex -3.73369 20.7589 10
      vertex -7 20 10
      vertex -3.85289 20.7976 10
    endloop
  endfacet
  facet normal -0 0 -1
    outer loop
      vertex -3.6086 20.751 10
      vertex -7 20 10
      vertex -3.73369 20.7589 10
    endloop
  endfacet
  facet normal 0 0 -1
    outer loop
      vertex 4.07815 21.4909 10
      vertex 7 20 10
      vertex 4.12429 21.3743 10
    endloop
  endfacet
  facet normal 0 0 -1
    outer loop
      vertex 4.12429 29.8743 10
      vertex 7 31 10
      vertex 4.14 29.75 10
    endloop
  endfacet
  facet normal 0 0 -1
    outer loop
      vertex 4.07815 29.9909 10
      vertex 7 31 10
      vertex 4.12429 29.8743 10
    endloop
  endfacet
  facet normal 0 0 -1
    outer loop
      vertex 4.00448 30.0923 10
      vertex 7 31 10
      vertex 4.07815 29.9909 10
    endloop
  endfacet
  facet normal 0 0 -1
    outer loop
      vertex 3.90791 30.1722 10
      vertex 7 31 10
      vertex 4.00448 30.0923 10
    endloop
  endfacet
  facet normal 0 0 -1
    outer loop
      vertex 3.79451 30.2255 10
      vertex 7 31 10
      vertex 3.90791 30.1722 10
    endloop
  endfacet
  facet normal 0 0 -1
    outer loop
      vertex 3.67139 30.249 10
      vertex 7 31 10
      vertex 3.79451 30.2255 10
    endloop
  endfacet
  facet normal 0 0 -1
    outer loop
      vertex 3.54631 30.2411 10
      vertex 7 31 10
      vertex 3.67139 30.249 10
    endloop
  endfacet
  facet normal -0 0 -1
    outer loop
      vertex 3.32129 29.3647 10
      vertex 1.60748 28.033 10
      vertex 3.23549 29.4561 10
    endloop
  endfacet
  facet normal -0 0 -1
    outer loop
      vertex 3.23549 29.4561 10
      vertex 1.60748 28.033 10
      vertex 3.17511 29.5659 10
    endloop
  endfacet
  facet normal -0 0 -1
    outer loop
      vertex 3.17511 29.5659 10
      vertex 1.60748 28.033 10
      vertex 3.14394 29.6873 10
    endloop
  endfacet
  facet normal 0 0 -1
    outer loop
      vertex 0.927051 28.3532 10
      vertex 3.14394 29.6873 10
      vertex 1.60748 28.033 10
    endloop
  endfacet
  facet normal -0 0 -1
    outer loop
      vertex 3.14394 29.6873 10
      vertex 0.927051 28.3532 10
      vertex 3.14394 29.8127 10
    endloop
  endfacet
  facet normal -0 0 -1
    outer loop
      vertex 3.14394 29.8127 10
      vertex 0.927051 28.3532 10
      vertex 3.17511 29.9341 10
    endloop
  endfacet
  facet normal 0 0 -1
    outer loop
      vertex 0.188371 28.4941 10
      vertex 3.17511 29.9341 10
      vertex 0.927051 28.3532 10
    endloop
  endfacet
  facet normal -0 0 -1
    outer loop
      vertex 3.17511 29.9341 10
      vertex 0.188371 28.4941 10
      vertex 3.23549 30.0439 10
    endloop
  endfacet
  facet normal 0 0 -1
    outer loop
      vertex -3.27552 30.0923 10
      vertex 3.23549 30.0439 10
      vertex 0.188371 28.4941 10
    endloop
  endfacet
  facet normal 0 0 -1
    outer loop
      vertex 3.23549 30.0439 10
      vertex -3.27552 30.0923 10
      vertex 3.32129 30.1353 10
    endloop
  endfacet
  facet normal 0 0 -1
    outer loop
      vertex -3.20185 29.9909 10
      vertex 0.188371 28.4941 10
      vertex -0.562143 28.4469 10
    endloop
  endfacet
  facet normal 0 0 -1
    outer loop
      vertex -3.14 29.75 10
      vertex -0.562143 28.4469 10
      vertex -1.27734 28.2145 10
    endloop
  endfacet
  facet normal -0 0 -1
    outer loop
      vertex -1.91227 23.1885 10
      vertex -3.37209 21.6722 10
      vertex -2.42705 23.7366 10
    endloop
  endfacet
  facet normal 0 0 -1
    outer loop
      vertex -3.14 29.75 10
      vertex -2.78933 26.6044 10
      vertex -2.97634 25.876 10
    endloop
  endfacet
  facet normal 0 0 -1
    outer loop
      vertex -3.14 29.75 10
      vertex -2.42705 27.2634 10
      vertex -2.78933 26.6044 10
    endloop
  endfacet
  facet normal 0 0 -1
    outer loop
      vertex -3.14 29.75 10
      vertex -1.91227 27.8115 10
      vertex -2.42705 27.2634 10
    endloop
  endfacet
  facet normal 0 0 -1
    outer loop
      vertex -3.14 29.75 10
      vertex -1.27734 28.2145 10
      vertex -1.91227 27.8115 10
    endloop
  endfacet
  facet normal 0 0 -1
    outer loop
      vertex -0.562143 28.4469 10
      vertex -3.14 29.75 10
      vertex -3.15571 29.8743 10
    endloop
  endfacet
  facet normal 0 0 -1
    outer loop
      vertex -0.562143 28.4469 10
      vertex -3.15571 29.8743 10
      vertex -3.20185 29.9909 10
    endloop
  endfacet
  facet normal 0 0 -1
    outer loop
      vertex 0.188371 28.4941 10
      vertex -3.20185 29.9909 10
      vertex -3.27552 30.0923 10
    endloop
  endfacet
  facet normal 0 0 -1
    outer loop
      vertex -3.37209 30.1722 10
      vertex 3.32129 30.1353 10
      vertex -3.27552 30.0923 10
    endloop
  endfacet
  facet normal 0 0 -1
    outer loop
      vertex 3.32129 30.1353 10
      vertex -3.37209 30.1722 10
      vertex 3.42711 30.2024 10
    endloop
  endfacet
  facet normal 0 0 -1
    outer loop
      vertex -3.48549 30.2255 10
      vertex 3.42711 30.2024 10
      vertex -3.37209 30.1722 10
    endloop
  endfacet
  facet normal 0 0 -1
    outer loop
      vertex 3.42711 30.2024 10
      vertex -3.48549 30.2255 10
      vertex 3.54631 30.2411 10
    endloop
  endfacet
  facet normal 0 0 -1
    outer loop
      vertex -3.6086 30.249 10
      vertex 3.54631 30.2411 10
      vertex -3.48549 30.2255 10
    endloop
  endfacet
  facet normal 0 0 -1
    outer loop
      vertex 3.54631 30.2411 10
      vertex -3.6086 30.249 10
      vertex 7 31 10
    endloop
  endfacet
  facet normal 0 0 -1
    outer loop
      vertex -7 31 10
      vertex -3.6086 30.249 10
      vertex -3.73369 30.2411 10
    endloop
  endfacet
  facet normal 0 0 -1
    outer loop
      vertex -4.13606 29.6873 10
      vertex -7 31 10
      vertex -4.13606 29.8127 10
    endloop
  endfacet
  facet normal 0 0 -1
    outer loop
      vertex -3.6086 30.249 10
      vertex -7 31 10
      vertex 7 31 10
    endloop
  endfacet
  facet normal 0 0 -1
    outer loop
      vertex -3.85289 30.2024 10
      vertex -7 31 10
      vertex -3.73369 30.2411 10
    endloop
  endfacet
  facet normal 0 0 -1
    outer loop
      vertex -3.95871 30.1353 10
      vertex -7 31 10
      vertex -3.85289 30.2024 10
    endloop
  endfacet
  facet normal 0 0 -1
    outer loop
      vertex -4.04451 30.0439 10
      vertex -7 31 10
      vertex -3.95871 30.1353 10
    endloop
  endfacet
  facet normal 0 0 -1
    outer loop
      vertex -4.10489 29.9341 10
      vertex -7 31 10
      vertex -4.04451 30.0439 10
    endloop
  endfacet
  facet normal 0 0 -1
    outer loop
      vertex -4.13606 29.8127 10
      vertex -7 31 10
      vertex -4.10489 29.9341 10
    endloop
  endfacet
  facet normal 0 -1 0
    outer loop
      vertex -7 20 10
      vertex 7 20 11.6
      vertex -7 20 11.6
    endloop
  endfacet
  facet normal 0 -1 -0
    outer loop
      vertex 7 20 11.6
      vertex -7 20 10
      vertex 7 20 10
    endloop
  endfacet
  facet normal -0.992107 -0.12539 0
    outer loop
      vertex 4.14 21.25 10
      vertex 4.12429 21.3743 11.6
      vertex 4.12429 21.3743 10
    endloop
  endfacet
  facet normal -0.992107 -0.12539 0
    outer loop
      vertex 4.12429 21.3743 11.6
      vertex 4.14 21.25 10
      vertex 4.14 21.25 11.6
    endloop
  endfacet
  facet normal 1 -0 0
    outer loop
      vertex 3.14394 21.1873 11.6
      vertex 3.14394 21.3127 10
      vertex 3.14394 21.3127 11.6
    endloop
  endfacet
  facet normal 1 0 0
    outer loop
      vertex 3.14394 21.3127 10
      vertex 3.14394 21.1873 11.6
      vertex 3.14394 21.1873 10
    endloop
  endfacet
  facet normal 0.063034 -0.998011 0
    outer loop
      vertex 3.54631 21.7411 10
      vertex 3.67139 21.749 11.6
      vertex 3.54631 21.7411 11.6
    endloop
  endfacet
  facet normal 0.063034 -0.998011 0
    outer loop
      vertex 3.67139 21.749 11.6
      vertex 3.54631 21.7411 10
      vertex 3.67139 21.749 10
    endloop
  endfacet
  facet normal -0.187486 0.982267 0
    outer loop
      vertex 3.79451 20.7745 10
      vertex 3.67139 20.751 11.6
      vertex 3.79451 20.7745 11.6
    endloop
  endfacet
  facet normal -0.187486 0.982267 0
    outer loop
      vertex 3.67139 20.751 11.6
      vertex 3.79451 20.7745 10
      vertex 3.67139 20.751 10
    endloop
  endfacet
  facet normal -0.637473 -0.770473 0
    outer loop
      vertex 3.90791 21.6722 10
      vertex 4.00448 21.5923 11.6
      vertex 3.90791 21.6722 11.6
    endloop
  endfacet
  facet normal -0.637473 -0.770473 -0
    outer loop
      vertex 4.00448 21.5923 11.6
      vertex 3.90791 21.6722 10
      vertex 4.00448 21.5923 10
    endloop
  endfacet
  facet normal -0.425374 -0.905018 0
    outer loop
      vertex 3.79451 21.7255 10
      vertex 3.90791 21.6722 11.6
      vertex 3.79451 21.7255 11.6
    endloop
  endfacet
  facet normal -0.425374 -0.905018 -0
    outer loop
      vertex 3.90791 21.6722 11.6
      vertex 3.79451 21.7255 10
      vertex 3.90791 21.6722 10
    endloop
  endfacet
  facet normal 0.729089 -0.684419 0
    outer loop
      vertex 3.23549 21.5439 11.6
      vertex 3.32129 21.6353 10
      vertex 3.32129 21.6353 11.6
    endloop
  endfacet
  facet normal 0.729089 -0.684419 0
    outer loop
      vertex 3.32129 21.6353 10
      vertex 3.23549 21.5439 11.6
      vertex 3.23549 21.5439 10
    endloop
  endfacet
  facet normal 0.87625 -0.481857 0
    outer loop
      vertex 3.17511 21.4341 11.6
      vertex 3.23549 21.5439 10
      vertex 3.23549 21.5439 11.6
    endloop
  endfacet
  facet normal 0.87625 -0.481857 0
    outer loop
      vertex 3.23549 21.5439 10
      vertex 3.17511 21.4341 11.6
      vertex 3.17511 21.4341 10
    endloop
  endfacet
  facet normal 0.535511 -0.844528 0
    outer loop
      vertex 3.32129 21.6353 10
      vertex 3.42711 21.7024 11.6
      vertex 3.32129 21.6353 11.6
    endloop
  endfacet
  facet normal 0.535511 -0.844528 0
    outer loop
      vertex 3.42711 21.7024 11.6
      vertex 3.32129 21.6353 10
      vertex 3.42711 21.7024 10
    endloop
  endfacet
  facet normal -0.809022 -0.587778 0
    outer loop
      vertex 4.07815 21.4909 10
      vertex 4.00448 21.5923 11.6
      vertex 4.00448 21.5923 10
    endloop
  endfacet
  facet normal -0.809022 -0.587778 0
    outer loop
      vertex 4.00448 21.5923 11.6
      vertex 4.07815 21.4909 10
      vertex 4.07815 21.4909 11.6
    endloop
  endfacet
  facet normal -0.929845 -0.367951 0
    outer loop
      vertex 4.12429 21.3743 10
      vertex 4.07815 21.4909 11.6
      vertex 4.07815 21.4909 10
    endloop
  endfacet
  facet normal -0.929845 -0.367951 0
    outer loop
      vertex 4.07815 21.4909 11.6
      vertex 4.12429 21.3743 10
      vertex 4.12429 21.3743 11.6
    endloop
  endfacet
  facet normal -0.187486 -0.982267 0
    outer loop
      vertex 3.67139 21.749 10
      vertex 3.79451 21.7255 11.6
      vertex 3.67139 21.749 11.6
    endloop
  endfacet
  facet normal -0.187486 -0.982267 -0
    outer loop
      vertex 3.79451 21.7255 11.6
      vertex 3.67139 21.749 10
      vertex 3.79451 21.7255 10
    endloop
  endfacet
  facet normal 0.968584 -0.248688 0
    outer loop
      vertex 3.14394 21.3127 11.6
      vertex 3.17511 21.4341 10
      vertex 3.17511 21.4341 11.6
    endloop
  endfacet
  facet normal 0.968584 -0.248688 0
    outer loop
      vertex 3.17511 21.4341 10
      vertex 3.14394 21.3127 11.6
      vertex 3.14394 21.3127 10
    endloop
  endfacet
  facet normal 0.308797 -0.951128 0
    outer loop
      vertex 3.42711 21.7024 10
      vertex 3.54631 21.7411 11.6
      vertex 3.42711 21.7024 11.6
    endloop
  endfacet
  facet normal 0.308797 -0.951128 0
    outer loop
      vertex 3.54631 21.7411 11.6
      vertex 3.42711 21.7024 10
      vertex 3.54631 21.7411 10
    endloop
  endfacet
  facet normal -0.992107 0.12539 0
    outer loop
      vertex 4.12429 21.1257 10
      vertex 4.14 21.25 11.6
      vertex 4.14 21.25 10
    endloop
  endfacet
  facet normal -0.992107 0.12539 0
    outer loop
      vertex 4.14 21.25 11.6
      vertex 4.12429 21.1257 10
      vertex 4.12429 21.1257 11.6
    endloop
  endfacet
  facet normal -0.809022 0.587778 0
    outer loop
      vertex 4.00448 20.9077 10
      vertex 4.07815 21.0091 11.6
      vertex 4.07815 21.0091 10
    endloop
  endfacet
  facet normal -0.809022 0.587778 0
    outer loop
      vertex 4.07815 21.0091 11.6
      vertex 4.00448 20.9077 10
      vertex 4.00448 20.9077 11.6
    endloop
  endfacet
  facet normal -0.929845 0.367951 0
    outer loop
      vertex 4.07815 21.0091 10
      vertex 4.12429 21.1257 11.6
      vertex 4.12429 21.1257 10
    endloop
  endfacet
  facet normal -0.929845 0.367951 0
    outer loop
      vertex 4.12429 21.1257 11.6
      vertex 4.07815 21.0091 10
      vertex 4.07815 21.0091 11.6
    endloop
  endfacet
  facet normal 0.87625 0.481857 0
    outer loop
      vertex 3.23549 20.9561 11.6
      vertex 3.17511 21.0659 10
      vertex 3.17511 21.0659 11.6
    endloop
  endfacet
  facet normal 0.87625 0.481857 0
    outer loop
      vertex 3.17511 21.0659 10
      vertex 3.23549 20.9561 11.6
      vertex 3.23549 20.9561 10
    endloop
  endfacet
  facet normal 0.968584 0.248688 0
    outer loop
      vertex 3.17511 21.0659 11.6
      vertex 3.14394 21.1873 10
      vertex 3.14394 21.1873 11.6
    endloop
  endfacet
  facet normal 0.968584 0.248688 0
    outer loop
      vertex 3.14394 21.1873 10
      vertex 3.17511 21.0659 11.6
      vertex 3.17511 21.0659 10
    endloop
  endfacet
  facet normal 0.729089 0.684419 0
    outer loop
      vertex 3.32129 20.8647 11.6
      vertex 3.23549 20.9561 10
      vertex 3.23549 20.9561 11.6
    endloop
  endfacet
  facet normal 0.729089 0.684419 0
    outer loop
      vertex 3.23549 20.9561 10
      vertex 3.32129 20.8647 11.6
      vertex 3.32129 20.8647 10
    endloop
  endfacet
  facet normal 0.063034 0.998011 -0
    outer loop
      vertex 3.67139 20.751 10
      vertex 3.54631 20.7589 11.6
      vertex 3.67139 20.751 11.6
    endloop
  endfacet
  facet normal 0.063034 0.998011 0
    outer loop
      vertex 3.54631 20.7589 11.6
      vertex 3.67139 20.751 10
      vertex 3.54631 20.7589 10
    endloop
  endfacet
  facet normal 0.535511 0.844528 -0
    outer loop
      vertex 3.42711 20.7976 10
      vertex 3.32129 20.8647 11.6
      vertex 3.42711 20.7976 11.6
    endloop
  endfacet
  facet normal 0.535511 0.844528 0
    outer loop
      vertex 3.32129 20.8647 11.6
      vertex 3.42711 20.7976 10
      vertex 3.32129 20.8647 10
    endloop
  endfacet
  facet normal 0.308797 0.951128 -0
    outer loop
      vertex 3.54631 20.7589 10
      vertex 3.42711 20.7976 11.6
      vertex 3.54631 20.7589 11.6
    endloop
  endfacet
  facet normal 0.308797 0.951128 0
    outer loop
      vertex 3.42711 20.7976 11.6
      vertex 3.54631 20.7589 10
      vertex 3.42711 20.7976 10
    endloop
  endfacet
  facet normal -0.637473 0.770473 0
    outer loop
      vertex 4.00448 20.9077 10
      vertex 3.90791 20.8278 11.6
      vertex 4.00448 20.9077 11.6
    endloop
  endfacet
  facet normal -0.637473 0.770473 0
    outer loop
      vertex 3.90791 20.8278 11.6
      vertex 4.00448 20.9077 10
      vertex 3.90791 20.8278 10
    endloop
  endfacet
  facet normal -0.425374 0.905018 0
    outer loop
      vertex 3.90791 20.8278 10
      vertex 3.79451 20.7745 11.6
      vertex 3.90791 20.8278 11.6
    endloop
  endfacet
  facet normal -0.425374 0.905018 0
    outer loop
      vertex 3.79451 20.7745 11.6
      vertex 3.90791 20.8278 10
      vertex 3.79451 20.7745 10
    endloop
  endfacet
  facet normal -0.992107 -0.12539 0
    outer loop
      vertex 4.14 29.75 10
      vertex 4.12429 29.8743 11.6
      vertex 4.12429 29.8743 10
    endloop
  endfacet
  facet normal -0.992107 -0.12539 0
    outer loop
      vertex 4.12429 29.8743 11.6
      vertex 4.14 29.75 10
      vertex 4.14 29.75 11.6
    endloop
  endfacet
  facet normal 1 -0 0
    outer loop
      vertex 3.14394 29.6873 11.6
      vertex 3.14394 29.8127 10
      vertex 3.14394 29.8127 11.6
    endloop
  endfacet
  facet normal 1 0 0
    outer loop
      vertex 3.14394 29.8127 10
      vertex 3.14394 29.6873 11.6
      vertex 3.14394 29.6873 10
    endloop
  endfacet
  facet normal 0.063034 -0.998011 0
    outer loop
      vertex 3.54631 30.2411 10
      vertex 3.67139 30.249 11.6
      vertex 3.54631 30.2411 11.6
    endloop
  endfacet
  facet normal 0.063034 -0.998011 0
    outer loop
      vertex 3.67139 30.249 11.6
      vertex 3.54631 30.2411 10
      vertex 3.67139 30.249 10
    endloop
  endfacet
  facet normal -0.187486 0.982267 0
    outer loop
      vertex 3.79451 29.2745 10
      vertex 3.67139 29.251 11.6
      vertex 3.79451 29.2745 11.6
    endloop
  endfacet
  facet normal -0.187486 0.982267 0
    outer loop
      vertex 3.67139 29.251 11.6
      vertex 3.79451 29.2745 10
      vertex 3.67139 29.251 10
    endloop
  endfacet
  facet normal -0.637473 -0.770473 0
    outer loop
      vertex 3.90791 30.1722 10
      vertex 4.00448 30.0923 11.6
      vertex 3.90791 30.1722 11.6
    endloop
  endfacet
  facet normal -0.637473 -0.770473 -0
    outer loop
      vertex 4.00448 30.0923 11.6
      vertex 3.90791 30.1722 10
      vertex 4.00448 30.0923 10
    endloop
  endfacet
  facet normal -0.425374 -0.905018 0
    outer loop
      vertex 3.79451 30.2255 10
      vertex 3.90791 30.1722 11.6
      vertex 3.79451 30.2255 11.6
    endloop
  endfacet
  facet normal -0.425374 -0.905018 -0
    outer loop
      vertex 3.90791 30.1722 11.6
      vertex 3.79451 30.2255 10
      vertex 3.90791 30.1722 10
    endloop
  endfacet
  facet normal 0.729089 -0.684419 0
    outer loop
      vertex 3.23549 30.0439 11.6
      vertex 3.32129 30.1353 10
      vertex 3.32129 30.1353 11.6
    endloop
  endfacet
  facet normal 0.729089 -0.684419 0
    outer loop
      vertex 3.32129 30.1353 10
      vertex 3.23549 30.0439 11.6
      vertex 3.23549 30.0439 10
    endloop
  endfacet
  facet normal 0.87625 -0.481857 0
    outer loop
      vertex 3.17511 29.9341 11.6
      vertex 3.23549 30.0439 10
      vertex 3.23549 30.0439 11.6
    endloop
  endfacet
  facet normal 0.87625 -0.481857 0
    outer loop
      vertex 3.23549 30.0439 10
      vertex 3.17511 29.9341 11.6
      vertex 3.17511 29.9341 10
    endloop
  endfacet
  facet normal 0.535511 -0.844528 0
    outer loop
      vertex 3.32129 30.1353 10
      vertex 3.42711 30.2024 11.6
      vertex 3.32129 30.1353 11.6
    endloop
  endfacet
  facet normal 0.535511 -0.844528 0
    outer loop
      vertex 3.42711 30.2024 11.6
      vertex 3.32129 30.1353 10
      vertex 3.42711 30.2024 10
    endloop
  endfacet
  facet normal -0.809022 -0.587778 0
    outer loop
      vertex 4.07815 29.9909 10
      vertex 4.00448 30.0923 11.6
      vertex 4.00448 30.0923 10
    endloop
  endfacet
  facet normal -0.809022 -0.587778 0
    outer loop
      vertex 4.00448 30.0923 11.6
      vertex 4.07815 29.9909 10
      vertex 4.07815 29.9909 11.6
    endloop
  endfacet
  facet normal -0.929845 -0.367951 0
    outer loop
      vertex 4.12429 29.8743 10
      vertex 4.07815 29.9909 11.6
      vertex 4.07815 29.9909 10
    endloop
  endfacet
  facet normal -0.929845 -0.367951 0
    outer loop
      vertex 4.07815 29.9909 11.6
      vertex 4.12429 29.8743 10
      vertex 4.12429 29.8743 11.6
    endloop
  endfacet
  facet normal -0.187486 -0.982267 0
    outer loop
      vertex 3.67139 30.249 10
      vertex 3.79451 30.2255 11.6
      vertex 3.67139 30.249 11.6
    endloop
  endfacet
  facet normal -0.187486 -0.982267 -0
    outer loop
      vertex 3.79451 30.2255 11.6
      vertex 3.67139 30.249 10
      vertex 3.79451 30.2255 10
    endloop
  endfacet
  facet normal 0.968584 -0.248688 0
    outer loop
      vertex 3.14394 29.8127 11.6
      vertex 3.17511 29.9341 10
      vertex 3.17511 29.9341 11.6
    endloop
  endfacet
  facet normal 0.968584 -0.248688 0
    outer loop
      vertex 3.17511 29.9341 10
      vertex 3.14394 29.8127 11.6
      vertex 3.14394 29.8127 10
    endloop
  endfacet
  facet normal 0.308797 -0.951128 0
    outer loop
      vertex 3.42711 30.2024 10
      vertex 3.54631 30.2411 11.6
      vertex 3.42711 30.2024 11.6
    endloop
  endfacet
  facet normal 0.308797 -0.951128 0
    outer loop
      vertex 3.54631 30.2411 11.6
      vertex 3.42711 30.2024 10
      vertex 3.54631 30.2411 10
    endloop
  endfacet
  facet normal -0.809022 0.587778 0
    outer loop
      vertex 4.00448 29.4077 10
      vertex 4.07815 29.5091 11.6
      vertex 4.07815 29.5091 10
    endloop
  endfacet
  facet normal -0.809022 0.587778 0
    outer loop
      vertex 4.07815 29.5091 11.6
      vertex 4.00448 29.4077 10
      vertex 4.00448 29.4077 11.6
    endloop
  endfacet
  facet normal -0.929845 0.367951 0
    outer loop
      vertex 4.07815 29.5091 10
      vertex 4.12429 29.6257 11.6
      vertex 4.12429 29.6257 10
    endloop
  endfacet
  facet normal -0.929845 0.367951 0
    outer loop
      vertex 4.12429 29.6257 11.6
      vertex 4.07815 29.5091 10
      vertex 4.07815 29.5091 11.6
    endloop
  endfacet
  facet normal 0.535511 0.844528 -0
    outer loop
      vertex 3.42711 29.2976 10
      vertex 3.32129 29.3647 11.6
      vertex 3.42711 29.2976 11.6
    endloop
  endfacet
  facet normal 0.535511 0.844528 0
    outer loop
      vertex 3.32129 29.3647 11.6
      vertex 3.42711 29.2976 10
      vertex 3.32129 29.3647 10
    endloop
  endfacet
  facet normal 0.87625 0.481857 0
    outer loop
      vertex 3.23549 29.4561 11.6
      vertex 3.17511 29.5659 10
      vertex 3.17511 29.5659 11.6
    endloop
  endfacet
  facet normal 0.87625 0.481857 0
    outer loop
      vertex 3.17511 29.5659 10
      vertex 3.23549 29.4561 11.6
      vertex 3.23549 29.4561 10
    endloop
  endfacet
  facet normal 0.968584 0.248688 0
    outer loop
      vertex 3.17511 29.5659 11.6
      vertex 3.14394 29.6873 10
      vertex 3.14394 29.6873 11.6
    endloop
  endfacet
  facet normal 0.968584 0.248688 0
    outer loop
      vertex 3.14394 29.6873 10
      vertex 3.17511 29.5659 11.6
      vertex 3.17511 29.5659 10
    endloop
  endfacet
  facet normal 0.729089 0.684419 0
    outer loop
      vertex 3.32129 29.3647 11.6
      vertex 3.23549 29.4561 10
      vertex 3.23549 29.4561 11.6
    endloop
  endfacet
  facet normal 0.729089 0.684419 0
    outer loop
      vertex 3.23549 29.4561 10
      vertex 3.32129 29.3647 11.6
      vertex 3.32129 29.3647 10
    endloop
  endfacet
  facet normal -0.425374 0.905018 0
    outer loop
      vertex 3.90791 29.3278 10
      vertex 3.79451 29.2745 11.6
      vertex 3.90791 29.3278 11.6
    endloop
  endfacet
  facet normal -0.425374 0.905018 0
    outer loop
      vertex 3.79451 29.2745 11.6
      vertex 3.90791 29.3278 10
      vertex 3.79451 29.2745 10
    endloop
  endfacet
  facet normal -0.992107 0.12539 0
    outer loop
      vertex 4.12429 29.6257 10
      vertex 4.14 29.75 11.6
      vertex 4.14 29.75 10
    endloop
  endfacet
  facet normal -0.992107 0.12539 0
    outer loop
      vertex 4.14 29.75 11.6
      vertex 4.12429 29.6257 10
      vertex 4.12429 29.6257 11.6
    endloop
  endfacet
  facet normal 0.063034 0.998011 -0
    outer loop
      vertex 3.67139 29.251 10
      vertex 3.54631 29.2589 11.6
      vertex 3.67139 29.251 11.6
    endloop
  endfacet
  facet normal 0.063034 0.998011 0
    outer loop
      vertex 3.54631 29.2589 11.6
      vertex 3.67139 29.251 10
      vertex 3.54631 29.2589 10
    endloop
  endfacet
  facet normal -0.637473 0.770473 0
    outer loop
      vertex 4.00448 29.4077 10
      vertex 3.90791 29.3278 11.6
      vertex 4.00448 29.4077 11.6
    endloop
  endfacet
  facet normal -0.637473 0.770473 0
    outer loop
      vertex 3.90791 29.3278 11.6
      vertex 4.00448 29.4077 10
      vertex 3.90791 29.3278 10
    endloop
  endfacet
  facet normal 0.308797 0.951128 -0
    outer loop
      vertex 3.54631 29.2589 10
      vertex 3.42711 29.2976 11.6
      vertex 3.54631 29.2589 11.6
    endloop
  endfacet
  facet normal 0.308797 0.951128 0
    outer loop
      vertex 3.42711 29.2976 11.6
      vertex 3.54631 29.2589 10
      vertex 3.42711 29.2976 10
    endloop
  endfacet
  facet normal -0.992107 -0.12539 0
    outer loop
      vertex -3.14 21.25 10
      vertex -3.15571 21.3743 11.6
      vertex -3.15571 21.3743 10
    endloop
  endfacet
  facet normal -0.992107 -0.12539 0
    outer loop
      vertex -3.15571 21.3743 11.6
      vertex -3.14 21.25 10
      vertex -3.14 21.25 11.6
    endloop
  endfacet
  facet normal 1 -0 0
    outer loop
      vertex -4.13606 21.1873 11.6
      vertex -4.13606 21.3127 10
      vertex -4.13606 21.3127 11.6
    endloop
  endfacet
  facet normal 1 0 0
    outer loop
      vertex -4.13606 21.3127 10
      vertex -4.13606 21.1873 11.6
      vertex -4.13606 21.1873 10
    endloop
  endfacet
  facet normal 0.063029 -0.998012 0
    outer loop
      vertex -3.73369 21.7411 10
      vertex -3.6086 21.749 11.6
      vertex -3.73369 21.7411 11.6
    endloop
  endfacet
  facet normal 0.063029 -0.998012 0
    outer loop
      vertex -3.6086 21.749 11.6
      vertex -3.73369 21.7411 10
      vertex -3.6086 21.749 10
    endloop
  endfacet
  facet normal -0.187501 0.982264 0
    outer loop
      vertex -3.48549 20.7745 10
      vertex -3.6086 20.751 11.6
      vertex -3.48549 20.7745 11.6
    endloop
  endfacet
  facet normal -0.187501 0.982264 0
    outer loop
      vertex -3.6086 20.751 11.6
      vertex -3.48549 20.7745 10
      vertex -3.6086 20.751 10
    endloop
  endfacet
  facet normal -0.637473 -0.770473 0
    outer loop
      vertex -3.37209 21.6722 10
      vertex -3.27552 21.5923 11.6
      vertex -3.37209 21.6722 11.6
    endloop
  endfacet
  facet normal -0.637473 -0.770473 -0
    outer loop
      vertex -3.27552 21.5923 11.6
      vertex -3.37209 21.6722 10
      vertex -3.27552 21.5923 10
    endloop
  endfacet
  facet normal -0.929845 -0.367951 0
    outer loop
      vertex -3.15571 21.3743 10
      vertex -3.20185 21.4909 11.6
      vertex -3.20185 21.4909 10
    endloop
  endfacet
  facet normal -0.929845 -0.367951 0
    outer loop
      vertex -3.20185 21.4909 11.6
      vertex -3.15571 21.3743 10
      vertex -3.15571 21.3743 11.6
    endloop
  endfacet
  facet normal -0.425374 -0.905018 0
    outer loop
      vertex -3.48549 21.7255 10
      vertex -3.37209 21.6722 11.6
      vertex -3.48549 21.7255 11.6
    endloop
  endfacet
  facet normal -0.425374 -0.905018 -0
    outer loop
      vertex -3.37209 21.6722 11.6
      vertex -3.48549 21.7255 10
      vertex -3.37209 21.6722 10
    endloop
  endfacet
  facet normal 0.729089 -0.684419 0
    outer loop
      vertex -4.04451 21.5439 11.6
      vertex -3.95871 21.6353 10
      vertex -3.95871 21.6353 11.6
    endloop
  endfacet
  facet normal 0.729089 -0.684419 0
    outer loop
      vertex -3.95871 21.6353 10
      vertex -4.04451 21.5439 11.6
      vertex -4.04451 21.5439 10
    endloop
  endfacet
  facet normal 0.87625 -0.481857 0
    outer loop
      vertex -4.10489 21.4341 11.6
      vertex -4.04451 21.5439 10
      vertex -4.04451 21.5439 11.6
    endloop
  endfacet
  facet normal 0.87625 -0.481857 0
    outer loop
      vertex -4.04451 21.5439 10
      vertex -4.10489 21.4341 11.6
      vertex -4.10489 21.4341 10
    endloop
  endfacet
  facet normal 0.535511 -0.844528 0
    outer loop
      vertex -3.95871 21.6353 10
      vertex -3.85289 21.7024 11.6
      vertex -3.95871 21.6353 11.6
    endloop
  endfacet
  facet normal 0.535511 -0.844528 0
    outer loop
      vertex -3.85289 21.7024 11.6
      vertex -3.95871 21.6353 10
      vertex -3.85289 21.7024 10
    endloop
  endfacet
  facet normal -0.809022 -0.587778 0
    outer loop
      vertex -3.20185 21.4909 10
      vertex -3.27552 21.5923 11.6
      vertex -3.27552 21.5923 10
    endloop
  endfacet
  facet normal -0.809022 -0.587778 0
    outer loop
      vertex -3.27552 21.5923 11.6
      vertex -3.20185 21.4909 10
      vertex -3.20185 21.4909 11.6
    endloop
  endfacet
  facet normal -0.187501 -0.982264 0
    outer loop
      vertex -3.6086 21.749 10
      vertex -3.48549 21.7255 11.6
      vertex -3.6086 21.749 11.6
    endloop
  endfacet
  facet normal -0.187501 -0.982264 -0
    outer loop
      vertex -3.48549 21.7255 11.6
      vertex -3.6086 21.749 10
      vertex -3.48549 21.7255 10
    endloop
  endfacet
  facet normal 0.968584 -0.248688 0
    outer loop
      vertex -4.13606 21.3127 11.6
      vertex -4.10489 21.4341 10
      vertex -4.10489 21.4341 11.6
    endloop
  endfacet
  facet normal 0.968584 -0.248688 0
    outer loop
      vertex -4.10489 21.4341 10
      vertex -4.13606 21.3127 11.6
      vertex -4.13606 21.3127 10
    endloop
  endfacet
  facet normal 0.308797 -0.951128 0
    outer loop
      vertex -3.85289 21.7024 10
      vertex -3.73369 21.7411 11.6
      vertex -3.85289 21.7024 11.6
    endloop
  endfacet
  facet normal 0.308797 -0.951128 0
    outer loop
      vertex -3.73369 21.7411 11.6
      vertex -3.85289 21.7024 10
      vertex -3.73369 21.7411 10
    endloop
  endfacet
  facet normal -0.809022 0.587778 0
    outer loop
      vertex -3.27552 20.9077 10
      vertex -3.20185 21.0091 11.6
      vertex -3.20185 21.0091 10
    endloop
  endfacet
  facet normal -0.809022 0.587778 0
    outer loop
      vertex -3.20185 21.0091 11.6
      vertex -3.27552 20.9077 10
      vertex -3.27552 20.9077 11.6
    endloop
  endfacet
  facet normal -0.929845 0.367951 0
    outer loop
      vertex -3.20185 21.0091 10
      vertex -3.15571 21.1257 11.6
      vertex -3.15571 21.1257 10
    endloop
  endfacet
  facet normal -0.929845 0.367951 0
    outer loop
      vertex -3.15571 21.1257 11.6
      vertex -3.20185 21.0091 10
      vertex -3.20185 21.0091 11.6
    endloop
  endfacet
  facet normal 0.87625 0.481857 0
    outer loop
      vertex -4.04451 20.9561 11.6
      vertex -4.10489 21.0659 10
      vertex -4.10489 21.0659 11.6
    endloop
  endfacet
  facet normal 0.87625 0.481857 0
    outer loop
      vertex -4.10489 21.0659 10
      vertex -4.04451 20.9561 11.6
      vertex -4.04451 20.9561 10
    endloop
  endfacet
  facet normal 0.968584 0.248688 0
    outer loop
      vertex -4.10489 21.0659 11.6
      vertex -4.13606 21.1873 10
      vertex -4.13606 21.1873 11.6
    endloop
  endfacet
  facet normal 0.968584 0.248688 0
    outer loop
      vertex -4.13606 21.1873 10
      vertex -4.10489 21.0659 11.6
      vertex -4.10489 21.0659 10
    endloop
  endfacet
  facet normal 0.729089 0.684419 0
    outer loop
      vertex -3.95871 20.8647 11.6
      vertex -4.04451 20.9561 10
      vertex -4.04451 20.9561 11.6
    endloop
  endfacet
  facet normal 0.729089 0.684419 0
    outer loop
      vertex -4.04451 20.9561 10
      vertex -3.95871 20.8647 11.6
      vertex -3.95871 20.8647 10
    endloop
  endfacet
  facet normal -0.992107 0.12539 0
    outer loop
      vertex -3.15571 21.1257 10
      vertex -3.14 21.25 11.6
      vertex -3.14 21.25 10
    endloop
  endfacet
  facet normal -0.992107 0.12539 0
    outer loop
      vertex -3.14 21.25 11.6
      vertex -3.15571 21.1257 10
      vertex -3.15571 21.1257 11.6
    endloop
  endfacet
  facet normal 0.063029 0.998012 -0
    outer loop
      vertex -3.6086 20.751 10
      vertex -3.73369 20.7589 11.6
      vertex -3.6086 20.751 11.6
    endloop
  endfacet
  facet normal 0.063029 0.998012 0
    outer loop
      vertex -3.73369 20.7589 11.6
      vertex -3.6086 20.751 10
      vertex -3.73369 20.7589 10
    endloop
  endfacet
  facet normal 0.535511 0.844528 -0
    outer loop
      vertex -3.85289 20.7976 10
      vertex -3.95871 20.8647 11.6
      vertex -3.85289 20.7976 11.6
    endloop
  endfacet
  facet normal 0.535511 0.844528 0
    outer loop
      vertex -3.95871 20.8647 11.6
      vertex -3.85289 20.7976 10
      vertex -3.95871 20.8647 10
    endloop
  endfacet
  facet normal 0.308797 0.951128 -0
    outer loop
      vertex -3.73369 20.7589 10
      vertex -3.85289 20.7976 11.6
      vertex -3.73369 20.7589 11.6
    endloop
  endfacet
  facet normal 0.308797 0.951128 0
    outer loop
      vertex -3.85289 20.7976 11.6
      vertex -3.73369 20.7589 10
      vertex -3.85289 20.7976 10
    endloop
  endfacet
  facet normal -0.637473 0.770473 0
    outer loop
      vertex -3.27552 20.9077 10
      vertex -3.37209 20.8278 11.6
      vertex -3.27552 20.9077 11.6
    endloop
  endfacet
  facet normal -0.637473 0.770473 0
    outer loop
      vertex -3.37209 20.8278 11.6
      vertex -3.27552 20.9077 10
      vertex -3.37209 20.8278 10
    endloop
  endfacet
  facet normal -0.425374 0.905018 0
    outer loop
      vertex -3.37209 20.8278 10
      vertex -3.48549 20.7745 11.6
      vertex -3.37209 20.8278 11.6
    endloop
  endfacet
  facet normal -0.425374 0.905018 0
    outer loop
      vertex -3.48549 20.7745 11.6
      vertex -3.37209 20.8278 10
      vertex -3.48549 20.7745 10
    endloop
  endfacet
  facet normal -0.992107 -0.12539 0
    outer loop
      vertex -3.14 29.75 10
      vertex -3.15571 29.8743 11.6
      vertex -3.15571 29.8743 10
    endloop
  endfacet
  facet normal -0.992107 -0.12539 0
    outer loop
      vertex -3.15571 29.8743 11.6
      vertex -3.14 29.75 10
      vertex -3.14 29.75 11.6
    endloop
  endfacet
  facet normal 1 -0 0
    outer loop
      vertex -4.13606 29.6873 11.6
      vertex -4.13606 29.8127 10
      vertex -4.13606 29.8127 11.6
    endloop
  endfacet
  facet normal 1 0 0
    outer loop
      vertex -4.13606 29.8127 10
      vertex -4.13606 29.6873 11.6
      vertex -4.13606 29.6873 10
    endloop
  endfacet
  facet normal 0.063029 -0.998012 0
    outer loop
      vertex -3.73369 30.2411 10
      vertex -3.6086 30.249 11.6
      vertex -3.73369 30.2411 11.6
    endloop
  endfacet
  facet normal 0.063029 -0.998012 0
    outer loop
      vertex -3.6086 30.249 11.6
      vertex -3.73369 30.2411 10
      vertex -3.6086 30.249 10
    endloop
  endfacet
  facet normal -0.187501 0.982264 0
    outer loop
      vertex -3.48549 29.2745 10
      vertex -3.6086 29.251 11.6
      vertex -3.48549 29.2745 11.6
    endloop
  endfacet
  facet normal -0.187501 0.982264 0
    outer loop
      vertex -3.6086 29.251 11.6
      vertex -3.48549 29.2745 10
      vertex -3.6086 29.251 10
    endloop
  endfacet
  facet normal -0.637473 -0.770473 0
    outer loop
      vertex -3.37209 30.1722 10
      vertex -3.27552 30.0923 11.6
      vertex -3.37209 30.1722 11.6
    endloop
  endfacet
  facet normal -0.637473 -0.770473 -0
    outer loop
      vertex -3.27552 30.0923 11.6
      vertex -3.37209 30.1722 10
      vertex -3.27552 30.0923 10
    endloop
  endfacet
  facet normal -0.929845 -0.367951 0
    outer loop
      vertex -3.15571 29.8743 10
      vertex -3.20185 29.9909 11.6
      vertex -3.20185 29.9909 10
    endloop
  endfacet
  facet normal -0.929845 -0.367951 0
    outer loop
      vertex -3.20185 29.9909 11.6
      vertex -3.15571 29.8743 10
      vertex -3.15571 29.8743 11.6
    endloop
  endfacet
  facet normal -0.425374 -0.905018 0
    outer loop
      vertex -3.48549 30.2255 10
      vertex -3.37209 30.1722 11.6
      vertex -3.48549 30.2255 11.6
    endloop
  endfacet
  facet normal -0.425374 -0.905018 -0
    outer loop
      vertex -3.37209 30.1722 11.6
      vertex -3.48549 30.2255 10
      vertex -3.37209 30.1722 10
    endloop
  endfacet
  facet normal 0.729089 -0.684419 0
    outer loop
      vertex -4.04451 30.0439 11.6
      vertex -3.95871 30.1353 10
      vertex -3.95871 30.1353 11.6
    endloop
  endfacet
  facet normal 0.729089 -0.684419 0
    outer loop
      vertex -3.95871 30.1353 10
      vertex -4.04451 30.0439 11.6
      vertex -4.04451 30.0439 10
    endloop
  endfacet
  facet normal 0.87625 -0.481857 0
    outer loop
      vertex -4.10489 29.9341 11.6
      vertex -4.04451 30.0439 10
      vertex -4.04451 30.0439 11.6
    endloop
  endfacet
  facet normal 0.87625 -0.481857 0
    outer loop
      vertex -4.04451 30.0439 10
      vertex -4.10489 29.9341 11.6
      vertex -4.10489 29.9341 10
    endloop
  endfacet
  facet normal 0.535511 -0.844528 0
    outer loop
      vertex -3.95871 30.1353 10
      vertex -3.85289 30.2024 11.6
      vertex -3.95871 30.1353 11.6
    endloop
  endfacet
  facet normal 0.535511 -0.844528 0
    outer loop
      vertex -3.85289 30.2024 11.6
      vertex -3.95871 30.1353 10
      vertex -3.85289 30.2024 10
    endloop
  endfacet
  facet normal -0.809022 -0.587778 0
    outer loop
      vertex -3.20185 29.9909 10
      vertex -3.27552 30.0923 11.6
      vertex -3.27552 30.0923 10
    endloop
  endfacet
  facet normal -0.809022 -0.587778 0
    outer loop
      vertex -3.27552 30.0923 11.6
      vertex -3.20185 29.9909 10
      vertex -3.20185 29.9909 11.6
    endloop
  endfacet
  facet normal -0.187501 -0.982264 0
    outer loop
      vertex -3.6086 30.249 10
      vertex -3.48549 30.2255 11.6
      vertex -3.6086 30.249 11.6
    endloop
  endfacet
  facet normal -0.187501 -0.982264 -0
    outer loop
      vertex -3.48549 30.2255 11.6
      vertex -3.6086 30.249 10
      vertex -3.48549 30.2255 10
    endloop
  endfacet
  facet normal 0.968584 -0.248688 0
    outer loop
      vertex -4.13606 29.8127 11.6
      vertex -4.10489 29.9341 10
      vertex -4.10489 29.9341 11.6
    endloop
  endfacet
  facet normal 0.968584 -0.248688 0
    outer loop
      vertex -4.10489 29.9341 10
      vertex -4.13606 29.8127 11.6
      vertex -4.13606 29.8127 10
    endloop
  endfacet
  facet normal 0.308797 -0.951128 0
    outer loop
      vertex -3.85289 30.2024 10
      vertex -3.73369 30.2411 11.6
      vertex -3.85289 30.2024 11.6
    endloop
  endfacet
  facet normal 0.308797 -0.951128 0
    outer loop
      vertex -3.73369 30.2411 11.6
      vertex -3.85289 30.2024 10
      vertex -3.73369 30.2411 10
    endloop
  endfacet
  facet normal -0.992107 0.12539 0
    outer loop
      vertex -3.15571 29.6257 10
      vertex -3.14 29.75 11.6
      vertex -3.14 29.75 10
    endloop
  endfacet
  facet normal -0.992107 0.12539 0
    outer loop
      vertex -3.14 29.75 11.6
      vertex -3.15571 29.6257 10
      vertex -3.15571 29.6257 11.6
    endloop
  endfacet
  facet normal -0.809022 0.587778 0
    outer loop
      vertex -3.27552 29.4077 10
      vertex -3.20185 29.5091 11.6
      vertex -3.20185 29.5091 10
    endloop
  endfacet
  facet normal -0.809022 0.587778 0
    outer loop
      vertex -3.20185 29.5091 11.6
      vertex -3.27552 29.4077 10
      vertex -3.27552 29.4077 11.6
    endloop
  endfacet
  facet normal -0.929845 0.367951 0
    outer loop
      vertex -3.20185 29.5091 10
      vertex -3.15571 29.6257 11.6
      vertex -3.15571 29.6257 10
    endloop
  endfacet
  facet normal -0.929845 0.367951 0
    outer loop
      vertex -3.15571 29.6257 11.6
      vertex -3.20185 29.5091 10
      vertex -3.20185 29.5091 11.6
    endloop
  endfacet
  facet normal 0.87625 0.481857 0
    outer loop
      vertex -4.04451 29.4561 11.6
      vertex -4.10489 29.5659 10
      vertex -4.10489 29.5659 11.6
    endloop
  endfacet
  facet normal 0.87625 0.481857 0
    outer loop
      vertex -4.10489 29.5659 10
      vertex -4.04451 29.4561 11.6
      vertex -4.04451 29.4561 10
    endloop
  endfacet
  facet normal 0.968584 0.248688 0
    outer loop
      vertex -4.10489 29.5659 11.6
      vertex -4.13606 29.6873 10
      vertex -4.13606 29.6873 11.6
    endloop
  endfacet
  facet normal 0.968584 0.248688 0
    outer loop
      vertex -4.13606 29.6873 10
      vertex -4.10489 29.5659 11.6
      vertex -4.10489 29.5659 10
    endloop
  endfacet
  facet normal 0.729089 0.684419 0
    outer loop
      vertex -3.95871 29.3647 11.6
      vertex -4.04451 29.4561 10
      vertex -4.04451 29.4561 11.6
    endloop
  endfacet
  facet normal 0.729089 0.684419 0
    outer loop
      vertex -4.04451 29.4561 10
      vertex -3.95871 29.3647 11.6
      vertex -3.95871 29.3647 10
    endloop
  endfacet
  facet normal 0.063029 0.998012 -0
    outer loop
      vertex -3.6086 29.251 10
      vertex -3.73369 29.2589 11.6
      vertex -3.6086 29.251 11.6
    endloop
  endfacet
  facet normal 0.063029 0.998012 0
    outer loop
      vertex -3.73369 29.2589 11.6
      vertex -3.6086 29.251 10
      vertex -3.73369 29.2589 10
    endloop
  endfacet
  facet normal 0.535511 0.844528 -0
    outer loop
      vertex -3.85289 29.2976 10
      vertex -3.95871 29.3647 11.6
      vertex -3.85289 29.2976 11.6
    endloop
  endfacet
  facet normal 0.535511 0.844528 0
    outer loop
      vertex -3.95871 29.3647 11.6
      vertex -3.85289 29.2976 10
      vertex -3.95871 29.3647 10
    endloop
  endfacet
  facet normal 0.308797 0.951128 -0
    outer loop
      vertex -3.73369 29.2589 10
      vertex -3.85289 29.2976 11.6
      vertex -3.73369 29.2589 11.6
    endloop
  endfacet
  facet normal 0.308797 0.951128 0
    outer loop
      vertex -3.85289 29.2976 11.6
      vertex -3.73369 29.2589 10
      vertex -3.85289 29.2976 10
    endloop
  endfacet
  facet normal -0.637473 0.770473 0
    outer loop
      vertex -3.27552 29.4077 10
      vertex -3.37209 29.3278 11.6
      vertex -3.27552 29.4077 11.6
    endloop
  endfacet
  facet normal -0.637473 0.770473 0
    outer loop
      vertex -3.37209 29.3278 11.6
      vertex -3.27552 29.4077 10
      vertex -3.37209 29.3278 10
    endloop
  endfacet
  facet normal -0.425374 0.905018 0
    outer loop
      vertex -3.37209 29.3278 10
      vertex -3.48549 29.2745 11.6
      vertex -3.37209 29.3278 11.6
    endloop
  endfacet
  facet normal -0.425374 0.905018 0
    outer loop
      vertex -3.48549 29.2745 11.6
      vertex -3.37209 29.3278 10
      vertex -3.48549 29.2745 10
    endloop
  endfacet
  facet normal -0.992115 -0.125328 0
    outer loop
      vertex 3 25.5 10
      vertex 2.90575 26.2461 11.6
      vertex 2.90575 26.2461 10
    endloop
  endfacet
  facet normal -0.992115 -0.125328 0
    outer loop
      vertex 2.90575 26.2461 11.6
      vertex 3 25.5 10
      vertex 3 25.5 11.6
    endloop
  endfacet
  facet normal 1 -0 0
    outer loop
      vertex -2.97634 25.124 11.6
      vertex -2.97634 25.876 10
      vertex -2.97634 25.876 11.6
    endloop
  endfacet
  facet normal 1 0 0
    outer loop
      vertex -2.97634 25.876 10
      vertex -2.97634 25.124 11.6
      vertex -2.97634 25.124 10
    endloop
  endfacet
  facet normal 0.0627662 -0.998028 0
    outer loop
      vertex -0.562143 28.4469 10
      vertex 0.188371 28.4941 11.6
      vertex -0.562143 28.4469 11.6
    endloop
  endfacet
  facet normal 0.0627662 -0.998028 0
    outer loop
      vertex 0.188371 28.4941 11.6
      vertex -0.562143 28.4469 10
      vertex 0.188371 28.4941 10
    endloop
  endfacet
  facet normal -0.187368 0.98229 0
    outer loop
      vertex 0.927051 22.6468 10
      vertex 0.188371 22.5059 11.6
      vertex 0.927051 22.6468 11.6
    endloop
  endfacet
  facet normal -0.187368 0.98229 0
    outer loop
      vertex 0.188371 22.5059 11.6
      vertex 0.927051 22.6468 10
      vertex 0.188371 22.5059 10
    endloop
  endfacet
  facet normal -0.637466 -0.770478 0
    outer loop
      vertex 1.60748 28.033 10
      vertex 2.18691 27.5536 11.6
      vertex 1.60748 28.033 11.6
    endloop
  endfacet
  facet normal -0.637466 -0.770478 -0
    outer loop
      vertex 2.18691 27.5536 11.6
      vertex 1.60748 28.033 10
      vertex 2.18691 27.5536 10
    endloop
  endfacet
  facet normal -0.929778 -0.368121 0
    outer loop
      vertex 2.90575 26.2461 10
      vertex 2.62892 26.9453 11.6
      vertex 2.62892 26.9453 10
    endloop
  endfacet
  facet normal -0.929778 -0.368121 0
    outer loop
      vertex 2.62892 26.9453 11.6
      vertex 2.90575 26.2461 10
      vertex 2.90575 26.2461 11.6
    endloop
  endfacet
  facet normal -0.425795 -0.90482 0
    outer loop
      vertex 0.927051 28.3532 10
      vertex 1.60748 28.033 11.6
      vertex 0.927051 28.3532 11.6
    endloop
  endfacet
  facet normal -0.425795 -0.90482 -0
    outer loop
      vertex 1.60748 28.033 11.6
      vertex 0.927051 28.3532 10
      vertex 1.60748 28.033 10
    endloop
  endfacet
  facet normal 0.728916 -0.684604 0
    outer loop
      vertex -2.42705 27.2634 11.6
      vertex -1.91227 27.8115 10
      vertex -1.91227 27.8115 11.6
    endloop
  endfacet
  facet normal 0.728916 -0.684604 0
    outer loop
      vertex -1.91227 27.8115 10
      vertex -2.42705 27.2634 11.6
      vertex -2.42705 27.2634 10
    endloop
  endfacet
  facet normal 0.535885 -0.844291 0
    outer loop
      vertex -1.91227 27.8115 10
      vertex -1.27734 28.2145 11.6
      vertex -1.91227 27.8115 11.6
    endloop
  endfacet
  facet normal 0.535885 -0.844291 0
    outer loop
      vertex -1.27734 28.2145 11.6
      vertex -1.91227 27.8115 10
      vertex -1.27734 28.2145 10
    endloop
  endfacet
  facet normal -0.808983 -0.587832 0
    outer loop
      vertex 2.62892 26.9453 10
      vertex 2.18691 27.5536 11.6
      vertex 2.18691 27.5536 10
    endloop
  endfacet
  facet normal -0.808983 -0.587832 0
    outer loop
      vertex 2.18691 27.5536 11.6
      vertex 2.62892 26.9453 10
      vertex 2.62892 26.9453 11.6
    endloop
  endfacet
  facet normal -0.187368 -0.98229 0
    outer loop
      vertex 0.188371 28.4941 10
      vertex 0.927051 28.3532 11.6
      vertex 0.188371 28.4941 11.6
    endloop
  endfacet
  facet normal -0.187368 -0.98229 -0
    outer loop
      vertex 0.927051 28.3532 11.6
      vertex 0.188371 28.4941 10
      vertex 0.927051 28.3532 10
    endloop
  endfacet
  facet normal 0.876311 -0.481745 0
    outer loop
      vertex -2.78933 26.6044 11.6
      vertex -2.42705 27.2634 10
      vertex -2.42705 27.2634 11.6
    endloop
  endfacet
  facet normal 0.876311 -0.481745 0
    outer loop
      vertex -2.42705 27.2634 10
      vertex -2.78933 26.6044 11.6
      vertex -2.78933 26.6044 10
    endloop
  endfacet
  facet normal 0.968587 -0.248676 0
    outer loop
      vertex -2.97634 25.876 11.6
      vertex -2.78933 26.6044 10
      vertex -2.78933 26.6044 11.6
    endloop
  endfacet
  facet normal 0.968587 -0.248676 0
    outer loop
      vertex -2.78933 26.6044 10
      vertex -2.97634 25.876 11.6
      vertex -2.97634 25.876 10
    endloop
  endfacet
  facet normal 0.309039 -0.951049 0
    outer loop
      vertex -1.27734 28.2145 10
      vertex -0.562143 28.4469 11.6
      vertex -1.27734 28.2145 11.6
    endloop
  endfacet
  facet normal 0.309039 -0.951049 0
    outer loop
      vertex -0.562143 28.4469 11.6
      vertex -1.27734 28.2145 10
      vertex -0.562143 28.4469 10
    endloop
  endfacet
  facet normal -0.992115 0.125328 0
    outer loop
      vertex 2.90575 24.7539 10
      vertex 3 25.5 11.6
      vertex 3 25.5 10
    endloop
  endfacet
  facet normal -0.992115 0.125328 0
    outer loop
      vertex 3 25.5 11.6
      vertex 2.90575 24.7539 10
      vertex 2.90575 24.7539 11.6
    endloop
  endfacet
  facet normal -0.808983 0.587832 0
    outer loop
      vertex 2.18691 23.4464 10
      vertex 2.62892 24.0547 11.6
      vertex 2.62892 24.0547 10
    endloop
  endfacet
  facet normal -0.808983 0.587832 0
    outer loop
      vertex 2.62892 24.0547 11.6
      vertex 2.18691 23.4464 10
      vertex 2.18691 23.4464 11.6
    endloop
  endfacet
  facet normal -0.929778 0.368121 0
    outer loop
      vertex 2.62892 24.0547 10
      vertex 2.90575 24.7539 11.6
      vertex 2.90575 24.7539 10
    endloop
  endfacet
  facet normal -0.929778 0.368121 0
    outer loop
      vertex 2.90575 24.7539 11.6
      vertex 2.62892 24.0547 10
      vertex 2.62892 24.0547 11.6
    endloop
  endfacet
  facet normal 0.728916 0.684604 0
    outer loop
      vertex -1.91227 23.1885 11.6
      vertex -2.42705 23.7366 10
      vertex -2.42705 23.7366 11.6
    endloop
  endfacet
  facet normal 0.728916 0.684604 0
    outer loop
      vertex -2.42705 23.7366 10
      vertex -1.91227 23.1885 11.6
      vertex -1.91227 23.1885 10
    endloop
  endfacet
  facet normal 0.968587 0.248676 0
    outer loop
      vertex -2.78933 24.3956 11.6
      vertex -2.97634 25.124 10
      vertex -2.97634 25.124 11.6
    endloop
  endfacet
  facet normal 0.968587 0.248676 0
    outer loop
      vertex -2.97634 25.124 10
      vertex -2.78933 24.3956 11.6
      vertex -2.78933 24.3956 10
    endloop
  endfacet
  facet normal 0.535885 0.844291 -0
    outer loop
      vertex -1.27734 22.7855 10
      vertex -1.91227 23.1885 11.6
      vertex -1.27734 22.7855 11.6
    endloop
  endfacet
  facet normal 0.535885 0.844291 0
    outer loop
      vertex -1.91227 23.1885 11.6
      vertex -1.27734 22.7855 10
      vertex -1.91227 23.1885 10
    endloop
  endfacet
  facet normal 0.0627662 0.998028 -0
    outer loop
      vertex 0.188371 22.5059 10
      vertex -0.562143 22.5531 11.6
      vertex 0.188371 22.5059 11.6
    endloop
  endfacet
  facet normal 0.0627662 0.998028 0
    outer loop
      vertex -0.562143 22.5531 11.6
      vertex 0.188371 22.5059 10
      vertex -0.562143 22.5531 10
    endloop
  endfacet
  facet normal 0.876311 0.481745 0
    outer loop
      vertex -2.42705 23.7366 11.6
      vertex -2.78933 24.3956 10
      vertex -2.78933 24.3956 11.6
    endloop
  endfacet
  facet normal 0.876311 0.481745 0
    outer loop
      vertex -2.78933 24.3956 10
      vertex -2.42705 23.7366 11.6
      vertex -2.42705 23.7366 10
    endloop
  endfacet
  facet normal -0.637466 0.770478 0
    outer loop
      vertex 2.18691 23.4464 10
      vertex 1.60748 22.967 11.6
      vertex 2.18691 23.4464 11.6
    endloop
  endfacet
  facet normal -0.637466 0.770478 0
    outer loop
      vertex 1.60748 22.967 11.6
      vertex 2.18691 23.4464 10
      vertex 1.60748 22.967 10
    endloop
  endfacet
  facet normal -0.425795 0.90482 0
    outer loop
      vertex 1.60748 22.967 10
      vertex 0.927051 22.6468 11.6
      vertex 1.60748 22.967 11.6
    endloop
  endfacet
  facet normal -0.425795 0.90482 0
    outer loop
      vertex 0.927051 22.6468 11.6
      vertex 1.60748 22.967 10
      vertex 0.927051 22.6468 10
    endloop
  endfacet
  facet normal 0.309039 0.951049 -0
    outer loop
      vertex -0.562143 22.5531 10
      vertex -1.27734 22.7855 11.6
      vertex -0.562143 22.5531 11.6
    endloop
  endfacet
  facet normal 0.309039 0.951049 0
    outer loop
      vertex -1.27734 22.7855 11.6
      vertex -0.562143 22.5531 10
      vertex -1.27734 22.7855 10
    endloop
  endfacet
endsolid OpenSCAD_Model
