; NON-PLATED HOLES START AT T1
; THROUGH (PLATED) HOLES START AT T100
M48
INCH
T1C0.086614
T100C0.038556
T101C0.038000
%
T1
X025453Y010374
X026453Y000874
X002453Y001374
X025453Y001374
X000944Y000866
X000944Y010866
X002453Y010374
X026444Y010866
T100
X018453Y010874
X004453Y010874
X023453Y010874
X021452Y010874
X009453Y009874
X013452Y010874
X014453Y010874
X015453Y009874
X008453Y009874
X005453Y009874
X006453Y009874
X006453Y010874
X022456Y009874
X019453Y009874
X013453Y009874
X007453Y010874
X023453Y009874
X016453Y009874
X017453Y009874
X016453Y010874
X009453Y010874
X022456Y010874
X012453Y009860
X021452Y009874
X005453Y010874
X020449Y010874
X018453Y009874
X019453Y010874
X011453Y010874
X015453Y010874
X014453Y009874
X007453Y009874
X010453Y010874
X020449Y009874
X011453Y009874
X010453Y009874
X004452Y009874
X017453Y010874
X012453Y010874
X008453Y010874
T101
X009453Y006874
X003953Y002874
X006453Y006874
X002953Y003874
X000953Y004874
X021453Y005374
X008453Y001874
X004953Y005874
X004453Y001874
X005453Y006874
X020453Y004374
X001953Y004874
X006453Y001874
X001953Y005874
X007453Y006874
X004453Y006874
X004953Y003874
X004953Y002874
X020453Y002374
X001953Y003874
X002953Y002874
X008453Y006874
X021453Y002374
X003953Y005874
X002953Y005874
X021453Y003374
X005453Y001874
X009453Y001874
X021453Y004374
X020453Y003374
X004953Y004874
X000953Y003874
X020453Y005374
X003953Y003874
X003953Y004874
X001953Y002874
X002953Y004874
X007453Y001874
T00
M30
