solid OpenSCAD_Model
  facet normal 0 1 0
    outer loop
      vertex 9 20 8
      vertex 7 20 2
      vertex 7 20 7
    endloop
  endfacet
  facet normal 0 1 0
    outer loop
      vertex 4.09 20 0
      vertex 7 20 2
      vertex 9 20 0
    endloop
  endfacet
  facet normal 0 1 -0
    outer loop
      vertex 9 20 0
      vertex 7 20 2
      vertex 9 20 8
    endloop
  endfacet
  facet normal 0 1 0
    outer loop
      vertex 4 20 11
      vertex 3 20 9
      vertex -4 20 11
    endloop
  endfacet
  facet normal 0 1 -0
    outer loop
      vertex 7 20 7
      vertex 4 20 11
      vertex 9 20 8
    endloop
  endfacet
  facet normal 0 1 0
    outer loop
      vertex 4 20 11
      vertex 7 20 7
      vertex 3 20 9
    endloop
  endfacet
  facet normal 0 1 0
    outer loop
      vertex 3 20 9
      vertex 7 20 7
      vertex 3 20 7
    endloop
  endfacet
  facet normal 0 1 -0
    outer loop
      vertex -3 20 9
      vertex -4 20 11
      vertex 3 20 9
    endloop
  endfacet
  facet normal 0 1 0
    outer loop
      vertex -7 20 7
      vertex -4 20 11
      vertex -3 20 9
    endloop
  endfacet
  facet normal 0 1 0
    outer loop
      vertex -7 20 7
      vertex -3 20 9
      vertex -3 20 7
    endloop
  endfacet
  facet normal 0 1 0
    outer loop
      vertex -4 20 11
      vertex -7 20 7
      vertex -9 20 8
    endloop
  endfacet
  facet normal 0 1 -0
    outer loop
      vertex -7 20 2
      vertex -9 20 8
      vertex -7 20 7
    endloop
  endfacet
  facet normal 0 1 0
    outer loop
      vertex 7 20 2
      vertex 4.09 20 0
      vertex -7 20 2
    endloop
  endfacet
  facet normal 0 1 -0
    outer loop
      vertex -4.09 20 0
      vertex -7 20 2
      vertex 4.09 20 0
    endloop
  endfacet
  facet normal 0 1 0
    outer loop
      vertex -7 20 2
      vertex -9 20 0
      vertex -9 20 8
    endloop
  endfacet
  facet normal 0 1 0
    outer loop
      vertex -4.09 20 0
      vertex -9 20 0
      vertex -7 20 2
    endloop
  endfacet
  facet normal 0 1 -0
    outer loop
      vertex -4.09 20 -8.18
      vertex -9 20 0
      vertex -4.09 20 0
    endloop
  endfacet
  facet normal 0 1 0
    outer loop
      vertex -4.09 20 -8.18
      vertex -5.317 20 -10.18
      vertex -9 20 0
    endloop
  endfacet
  facet normal 0 1 0
    outer loop
      vertex -5.317 20 -10.18
      vertex -4.09 20 -8.18
      vertex 5.317 20 -10.18
    endloop
  endfacet
  facet normal 0 1 0
    outer loop
      vertex 9 20 0
      vertex 4.09 20 -8.18
      vertex 4.09 20 0
    endloop
  endfacet
  facet normal 0 1 0
    outer loop
      vertex 4.09 20 -8.18
      vertex 5.317 20 -10.18
      vertex -4.09 20 -8.18
    endloop
  endfacet
  facet normal 0 1 -0
    outer loop
      vertex 5.317 20 -10.18
      vertex 4.09 20 -8.18
      vertex 9 20 0
    endloop
  endfacet
  facet normal -1 0 0
    outer loop
      vertex -9 0 0
      vertex -9 20 8
      vertex -9 20 0
    endloop
  endfacet
  facet normal -1 -0 0
    outer loop
      vertex -9 20 8
      vertex -9 0 0
      vertex -9 0 8
    endloop
  endfacet
  facet normal 0 -1 0
    outer loop
      vertex -9 0 8
      vertex -7 0 2
      vertex -7 0 7
    endloop
  endfacet
  facet normal 0 -1 0
    outer loop
      vertex -4.09 0 0
      vertex -7 0 2
      vertex -9 0 0
    endloop
  endfacet
  facet normal 0 -1 0
    outer loop
      vertex -9 0 0
      vertex -7 0 2
      vertex -9 0 8
    endloop
  endfacet
  facet normal 0 -1 0
    outer loop
      vertex -4 0 11
      vertex -3 0 9
      vertex 4 0 11
    endloop
  endfacet
  facet normal 0 -1 0
    outer loop
      vertex -7 0 7
      vertex -4 0 11
      vertex -9 0 8
    endloop
  endfacet
  facet normal 0 -1 -0
    outer loop
      vertex -4 0 11
      vertex -7 0 7
      vertex -3 0 9
    endloop
  endfacet
  facet normal 0 -1 -0
    outer loop
      vertex -3 0 9
      vertex -7 0 7
      vertex -3 0 7
    endloop
  endfacet
  facet normal 0 -1 0
    outer loop
      vertex 3 0 9
      vertex 4 0 11
      vertex -3 0 9
    endloop
  endfacet
  facet normal 0 -1 0
    outer loop
      vertex 7 0 7
      vertex 4 0 11
      vertex 3 0 9
    endloop
  endfacet
  facet normal 0 -1 0
    outer loop
      vertex 7 0 7
      vertex 3 0 9
      vertex 3 0 7
    endloop
  endfacet
  facet normal 0 -1 0
    outer loop
      vertex 4 0 11
      vertex 7 0 7
      vertex 9 0 8
    endloop
  endfacet
  facet normal 0 -1 0
    outer loop
      vertex 7 0 2
      vertex 9 0 8
      vertex 7 0 7
    endloop
  endfacet
  facet normal 0 -1 0
    outer loop
      vertex -7 0 2
      vertex -4.09 0 0
      vertex 7 0 2
    endloop
  endfacet
  facet normal 0 -1 0
    outer loop
      vertex 4.09 0 0
      vertex 7 0 2
      vertex -4.09 0 0
    endloop
  endfacet
  facet normal 0 -1 0
    outer loop
      vertex 7 0 2
      vertex 9 0 0
      vertex 9 0 8
    endloop
  endfacet
  facet normal 0 -1 0
    outer loop
      vertex 4.09 0 0
      vertex 9 0 0
      vertex 7 0 2
    endloop
  endfacet
  facet normal 0 -1 0
    outer loop
      vertex 4.09 0 -8.18
      vertex 9 0 0
      vertex 4.09 0 0
    endloop
  endfacet
  facet normal 0 -1 0
    outer loop
      vertex 4.09 0 -8.18
      vertex 5.317 0 -10.18
      vertex 9 0 0
    endloop
  endfacet
  facet normal 0 -1 0
    outer loop
      vertex 5.317 0 -10.18
      vertex 4.09 0 -8.18
      vertex -5.317 0 -10.18
    endloop
  endfacet
  facet normal 0 -1 0
    outer loop
      vertex -9 0 0
      vertex -4.09 0 -8.18
      vertex -4.09 0 0
    endloop
  endfacet
  facet normal 0 -1 -0
    outer loop
      vertex -4.09 0 -8.18
      vertex -5.317 0 -10.18
      vertex 4.09 0 -8.18
    endloop
  endfacet
  facet normal 0 -1 0
    outer loop
      vertex -5.317 0 -10.18
      vertex -4.09 0 -8.18
      vertex -9 0 0
    endloop
  endfacet
  facet normal -0.94035 0 -0.340207
    outer loop
      vertex -5.317 0 -10.18
      vertex -9 20 0
      vertex -5.317 20 -10.18
    endloop
  endfacet
  facet normal -0.94035 -0 -0.340207
    outer loop
      vertex -9 20 0
      vertex -5.317 0 -10.18
      vertex -9 0 0
    endloop
  endfacet
  facet normal 0 0 -1
    outer loop
      vertex -5.317 0 -10.18
      vertex 5.317 20 -10.18
      vertex 5.317 0 -10.18
    endloop
  endfacet
  facet normal -0 0 -1
    outer loop
      vertex 5.317 20 -10.18
      vertex -5.317 0 -10.18
      vertex -5.317 20 -10.18
    endloop
  endfacet
  facet normal 0.94035 0 -0.340207
    outer loop
      vertex 9 0 0
      vertex 5.317 20 -10.18
      vertex 9 20 0
    endloop
  endfacet
  facet normal 0.94035 0 -0.340207
    outer loop
      vertex 5.317 20 -10.18
      vertex 9 0 0
      vertex 5.317 0 -10.18
    endloop
  endfacet
  facet normal 1 -0 0
    outer loop
      vertex 9 0 8
      vertex 9 20 0
      vertex 9 20 8
    endloop
  endfacet
  facet normal 1 0 0
    outer loop
      vertex 9 20 0
      vertex 9 0 8
      vertex 9 0 0
    endloop
  endfacet
  facet normal -0 0 1
    outer loop
      vertex 1.42658 5.46352 11
      vertex 4 0 11
      vertex 1.42658 14.5365 11
    endloop
  endfacet
  facet normal 0 0 1
    outer loop
      vertex 4 0 11
      vertex 1.42658 5.46352 11
      vertex 1.5 5 11
    endloop
  endfacet
  facet normal -0 0 1
    outer loop
      vertex 1.21352 14.1183 11
      vertex 1.42658 5.46352 11
      vertex 1.42658 14.5365 11
    endloop
  endfacet
  facet normal 0 0 1
    outer loop
      vertex 1.21352 14.1183 11
      vertex 1.21352 5.88168 11
      vertex 1.42658 5.46352 11
    endloop
  endfacet
  facet normal -0 0 1
    outer loop
      vertex 0.881678 13.7865 11
      vertex 1.21352 5.88168 11
      vertex 1.21352 14.1183 11
    endloop
  endfacet
  facet normal 0 0 1
    outer loop
      vertex 0.881678 13.7865 11
      vertex 0.881678 6.21352 11
      vertex 1.21352 5.88168 11
    endloop
  endfacet
  facet normal -0 0 1
    outer loop
      vertex 0.463525 13.5734 11
      vertex 0.881678 6.21352 11
      vertex 0.881678 13.7865 11
    endloop
  endfacet
  facet normal 0 0 1
    outer loop
      vertex 0.463525 13.5734 11
      vertex 0.463525 6.42658 11
      vertex 0.881678 6.21352 11
    endloop
  endfacet
  facet normal -0 0 1
    outer loop
      vertex 0 13.5 11
      vertex 0.463525 6.42658 11
      vertex 0.463525 13.5734 11
    endloop
  endfacet
  facet normal 0 0 1
    outer loop
      vertex 0 13.5 11
      vertex 0 6.5 11
      vertex 0.463525 6.42658 11
    endloop
  endfacet
  facet normal 0 0 1
    outer loop
      vertex -0.463525 13.5734 11
      vertex 0 6.5 11
      vertex 0 13.5 11
    endloop
  endfacet
  facet normal 0 0 1
    outer loop
      vertex -0.463525 13.5734 11
      vertex -0.463525 6.42658 11
      vertex 0 6.5 11
    endloop
  endfacet
  facet normal 0 0 1
    outer loop
      vertex -0.881678 13.7865 11
      vertex -0.463525 6.42658 11
      vertex -0.463525 13.5734 11
    endloop
  endfacet
  facet normal 0 0 1
    outer loop
      vertex -0.881678 13.7865 11
      vertex -0.881678 6.21352 11
      vertex -0.463525 6.42658 11
    endloop
  endfacet
  facet normal 0 0 1
    outer loop
      vertex -1.21352 14.1183 11
      vertex -0.881678 6.21352 11
      vertex -0.881678 13.7865 11
    endloop
  endfacet
  facet normal 0 0 1
    outer loop
      vertex -1.21352 14.1183 11
      vertex -1.21352 5.88168 11
      vertex -0.881678 6.21352 11
    endloop
  endfacet
  facet normal 0 0 1
    outer loop
      vertex -1.42658 14.5365 11
      vertex -1.21352 5.88168 11
      vertex -1.21352 14.1183 11
    endloop
  endfacet
  facet normal 0 0 1
    outer loop
      vertex -1.42658 14.5365 11
      vertex -1.42658 5.46352 11
      vertex -1.21352 5.88168 11
    endloop
  endfacet
  facet normal 0 0 1
    outer loop
      vertex -4 20 11
      vertex -1.42658 14.5365 11
      vertex -1.5 15 11
    endloop
  endfacet
  facet normal 0 0 1
    outer loop
      vertex -1.42658 14.5365 11
      vertex -4 20 11
      vertex -1.42658 5.46352 11
    endloop
  endfacet
  facet normal 0 0 1
    outer loop
      vertex 1.42658 14.5365 11
      vertex 4 20 11
      vertex 1.5 15 11
    endloop
  endfacet
  facet normal 0 0 1
    outer loop
      vertex 4 20 11
      vertex 1.42658 15.4635 11
      vertex 1.5 15 11
    endloop
  endfacet
  facet normal 0 0 1
    outer loop
      vertex 4 20 11
      vertex 1.21352 15.8817 11
      vertex 1.42658 15.4635 11
    endloop
  endfacet
  facet normal 0 0 1
    outer loop
      vertex 4 20 11
      vertex 0.881678 16.2135 11
      vertex 1.21352 15.8817 11
    endloop
  endfacet
  facet normal 0 0 1
    outer loop
      vertex 4 20 11
      vertex 0.463525 16.4266 11
      vertex 0.881678 16.2135 11
    endloop
  endfacet
  facet normal 0 0 1
    outer loop
      vertex 4 20 11
      vertex 0 16.5 11
      vertex 0.463525 16.4266 11
    endloop
  endfacet
  facet normal -0 0 1
    outer loop
      vertex -4 20 11
      vertex 0 16.5 11
      vertex 4 20 11
    endloop
  endfacet
  facet normal 0 0 1
    outer loop
      vertex 0 16.5 11
      vertex -4 20 11
      vertex -0.463525 16.4266 11
    endloop
  endfacet
  facet normal 0 0 1
    outer loop
      vertex -4 0 11
      vertex -1.42658 5.46352 11
      vertex -4 20 11
    endloop
  endfacet
  facet normal 0 0 1
    outer loop
      vertex -1.42658 15.4635 11
      vertex -4 20 11
      vertex -1.5 15 11
    endloop
  endfacet
  facet normal 0 0 1
    outer loop
      vertex -1.21352 15.8817 11
      vertex -4 20 11
      vertex -1.42658 15.4635 11
    endloop
  endfacet
  facet normal 0 0 1
    outer loop
      vertex -0.881678 16.2135 11
      vertex -4 20 11
      vertex -1.21352 15.8817 11
    endloop
  endfacet
  facet normal 0 0 1
    outer loop
      vertex -0.463525 16.4266 11
      vertex -4 20 11
      vertex -0.881678 16.2135 11
    endloop
  endfacet
  facet normal 0 0 1
    outer loop
      vertex 4 20 11
      vertex 1.42658 14.5365 11
      vertex 4 0 11
    endloop
  endfacet
  facet normal -0 0 1
    outer loop
      vertex 1.42658 4.53647 11
      vertex 4 0 11
      vertex 1.5 5 11
    endloop
  endfacet
  facet normal -0 0 1
    outer loop
      vertex 1.21352 4.11832 11
      vertex 4 0 11
      vertex 1.42658 4.53647 11
    endloop
  endfacet
  facet normal -0 0 1
    outer loop
      vertex 0.881678 3.78647 11
      vertex 4 0 11
      vertex 1.21352 4.11832 11
    endloop
  endfacet
  facet normal -0 0 1
    outer loop
      vertex 0.463525 3.57341 11
      vertex 4 0 11
      vertex 0.881678 3.78647 11
    endloop
  endfacet
  facet normal -0 0 1
    outer loop
      vertex 0 3.5 11
      vertex 4 0 11
      vertex 0.463525 3.57341 11
    endloop
  endfacet
  facet normal 0 0 1
    outer loop
      vertex -4 0 11
      vertex 0 3.5 11
      vertex -0.463525 3.57341 11
    endloop
  endfacet
  facet normal 0 0 1
    outer loop
      vertex -4 0 11
      vertex -0.463525 3.57341 11
      vertex -0.881678 3.78647 11
    endloop
  endfacet
  facet normal 0 0 1
    outer loop
      vertex -1.42658 5.46352 11
      vertex -4 0 11
      vertex -1.5 5 11
    endloop
  endfacet
  facet normal 0 0 1
    outer loop
      vertex 0 3.5 11
      vertex -4 0 11
      vertex 4 0 11
    endloop
  endfacet
  facet normal 0 0 1
    outer loop
      vertex -1.21352 4.11832 11
      vertex -4 0 11
      vertex -0.881678 3.78647 11
    endloop
  endfacet
  facet normal 0 0 1
    outer loop
      vertex -1.42658 4.53647 11
      vertex -4 0 11
      vertex -1.21352 4.11832 11
    endloop
  endfacet
  facet normal 0 0 1
    outer loop
      vertex -1.5 5 11
      vertex -4 0 11
      vertex -1.42658 4.53647 11
    endloop
  endfacet
  facet normal 0.514496 0 0.857493
    outer loop
      vertex 4 20 11
      vertex 9 0 8
      vertex 9 20 8
    endloop
  endfacet
  facet normal 0.514496 0 0.857493
    outer loop
      vertex 9 0 8
      vertex 4 20 11
      vertex 4 0 11
    endloop
  endfacet
  facet normal -0.514496 0 0.857493
    outer loop
      vertex -9 20 8
      vertex -4 0 11
      vertex -4 20 11
    endloop
  endfacet
  facet normal -0.514496 0 0.857493
    outer loop
      vertex -4 0 11
      vertex -9 20 8
      vertex -9 0 8
    endloop
  endfacet
  facet normal 1 -0 0
    outer loop
      vertex -4.09 0 0
      vertex -4.09 20 -8.18
      vertex -4.09 20 0
    endloop
  endfacet
  facet normal 1 0 0
    outer loop
      vertex -4.09 20 -8.18
      vertex -4.09 0 0
      vertex -4.09 0 -8.18
    endloop
  endfacet
  facet normal 0 0 -1
    outer loop
      vertex 1.42658 14.5365 0
      vertex 4.09 20 0
      vertex 1.42658 5.46352 0
    endloop
  endfacet
  facet normal 0 0 -1
    outer loop
      vertex 4.09 20 0
      vertex 1.42658 14.5365 0
      vertex 1.5 15 0
    endloop
  endfacet
  facet normal 0 0 -1
    outer loop
      vertex 1.21352 5.88168 0
      vertex 1.42658 14.5365 0
      vertex 1.42658 5.46352 0
    endloop
  endfacet
  facet normal 0 0 -1
    outer loop
      vertex 1.21352 5.88168 0
      vertex 1.21352 14.1183 0
      vertex 1.42658 14.5365 0
    endloop
  endfacet
  facet normal 0 0 -1
    outer loop
      vertex 0.881678 6.21352 0
      vertex 1.21352 14.1183 0
      vertex 1.21352 5.88168 0
    endloop
  endfacet
  facet normal 0 0 -1
    outer loop
      vertex 0.881678 6.21352 0
      vertex 0.881678 13.7865 0
      vertex 1.21352 14.1183 0
    endloop
  endfacet
  facet normal 0 0 -1
    outer loop
      vertex 0.463525 6.42658 0
      vertex 0.881678 13.7865 0
      vertex 0.881678 6.21352 0
    endloop
  endfacet
  facet normal 0 0 -1
    outer loop
      vertex 0.463525 6.42658 0
      vertex 0.463525 13.5734 0
      vertex 0.881678 13.7865 0
    endloop
  endfacet
  facet normal 0 0 -1
    outer loop
      vertex 0 6.5 0
      vertex 0.463525 13.5734 0
      vertex 0.463525 6.42658 0
    endloop
  endfacet
  facet normal 0 0 -1
    outer loop
      vertex 0 6.5 0
      vertex 0 13.5 0
      vertex 0.463525 13.5734 0
    endloop
  endfacet
  facet normal 0 0 -1
    outer loop
      vertex -0.463525 6.42658 0
      vertex 0 13.5 0
      vertex 0 6.5 0
    endloop
  endfacet
  facet normal 0 0 -1
    outer loop
      vertex -0.463525 6.42658 0
      vertex -0.463525 13.5734 0
      vertex 0 13.5 0
    endloop
  endfacet
  facet normal 0 0 -1
    outer loop
      vertex -0.881678 6.21352 0
      vertex -0.463525 13.5734 0
      vertex -0.463525 6.42658 0
    endloop
  endfacet
  facet normal 0 0 -1
    outer loop
      vertex -0.881678 6.21352 0
      vertex -0.881678 13.7865 0
      vertex -0.463525 13.5734 0
    endloop
  endfacet
  facet normal 0 0 -1
    outer loop
      vertex -1.21352 5.88168 0
      vertex -0.881678 13.7865 0
      vertex -0.881678 6.21352 0
    endloop
  endfacet
  facet normal 0 0 -1
    outer loop
      vertex -1.21352 5.88168 0
      vertex -1.21352 14.1183 0
      vertex -0.881678 13.7865 0
    endloop
  endfacet
  facet normal 0 0 -1
    outer loop
      vertex -1.42658 5.46352 0
      vertex -1.21352 14.1183 0
      vertex -1.21352 5.88168 0
    endloop
  endfacet
  facet normal 0 0 -1
    outer loop
      vertex -1.42658 5.46352 0
      vertex -1.42658 14.5365 0
      vertex -1.21352 14.1183 0
    endloop
  endfacet
  facet normal 0 0 -1
    outer loop
      vertex -4.09 0 0
      vertex -1.42658 5.46352 0
      vertex -1.5 5 0
    endloop
  endfacet
  facet normal -0 0 -1
    outer loop
      vertex -1.42658 5.46352 0
      vertex -4.09 0 0
      vertex -1.42658 14.5365 0
    endloop
  endfacet
  facet normal 0 0 -1
    outer loop
      vertex 1.42658 5.46352 0
      vertex 4.09 0 0
      vertex 1.5 5 0
    endloop
  endfacet
  facet normal 0 0 -1
    outer loop
      vertex 4.09 0 0
      vertex 1.42658 4.53647 0
      vertex 1.5 5 0
    endloop
  endfacet
  facet normal 0 0 -1
    outer loop
      vertex 4.09 0 0
      vertex 1.21352 4.11832 0
      vertex 1.42658 4.53647 0
    endloop
  endfacet
  facet normal 0 0 -1
    outer loop
      vertex 4.09 0 0
      vertex 0.881678 3.78647 0
      vertex 1.21352 4.11832 0
    endloop
  endfacet
  facet normal 0 0 -1
    outer loop
      vertex 4.09 0 0
      vertex 0.463525 3.57341 0
      vertex 0.881678 3.78647 0
    endloop
  endfacet
  facet normal 0 0 -1
    outer loop
      vertex 4.09 0 0
      vertex 0 3.5 0
      vertex 0.463525 3.57341 0
    endloop
  endfacet
  facet normal 0 0 -1
    outer loop
      vertex -4.09 0 0
      vertex 0 3.5 0
      vertex 4.09 0 0
    endloop
  endfacet
  facet normal -0 0 -1
    outer loop
      vertex 0 3.5 0
      vertex -4.09 0 0
      vertex -0.463525 3.57341 0
    endloop
  endfacet
  facet normal 0 0 -1
    outer loop
      vertex -4.09 20 0
      vertex -1.42658 14.5365 0
      vertex -4.09 0 0
    endloop
  endfacet
  facet normal -0 0 -1
    outer loop
      vertex -1.42658 4.53647 0
      vertex -4.09 0 0
      vertex -1.5 5 0
    endloop
  endfacet
  facet normal -0 0 -1
    outer loop
      vertex -1.21352 4.11832 0
      vertex -4.09 0 0
      vertex -1.42658 4.53647 0
    endloop
  endfacet
  facet normal -0 0 -1
    outer loop
      vertex -0.881678 3.78647 0
      vertex -4.09 0 0
      vertex -1.21352 4.11832 0
    endloop
  endfacet
  facet normal -0 0 -1
    outer loop
      vertex -0.463525 3.57341 0
      vertex -4.09 0 0
      vertex -0.881678 3.78647 0
    endloop
  endfacet
  facet normal 0 0 -1
    outer loop
      vertex 4.09 0 0
      vertex 1.42658 5.46352 0
      vertex 4.09 20 0
    endloop
  endfacet
  facet normal 0 0 -1
    outer loop
      vertex 1.42658 15.4635 0
      vertex 4.09 20 0
      vertex 1.5 15 0
    endloop
  endfacet
  facet normal 0 0 -1
    outer loop
      vertex 1.21352 15.8817 0
      vertex 4.09 20 0
      vertex 1.42658 15.4635 0
    endloop
  endfacet
  facet normal 0 0 -1
    outer loop
      vertex 0.881678 16.2135 0
      vertex 4.09 20 0
      vertex 1.21352 15.8817 0
    endloop
  endfacet
  facet normal 0 0 -1
    outer loop
      vertex 0.463525 16.4266 0
      vertex 4.09 20 0
      vertex 0.881678 16.2135 0
    endloop
  endfacet
  facet normal 0 0 -1
    outer loop
      vertex 0 16.5 0
      vertex 4.09 20 0
      vertex 0.463525 16.4266 0
    endloop
  endfacet
  facet normal 0 0 -1
    outer loop
      vertex -4.09 20 0
      vertex 0 16.5 0
      vertex -0.463525 16.4266 0
    endloop
  endfacet
  facet normal 0 0 -1
    outer loop
      vertex -4.09 20 0
      vertex -0.463525 16.4266 0
      vertex -0.881678 16.2135 0
    endloop
  endfacet
  facet normal 0 0 -1
    outer loop
      vertex -1.42658 14.5365 0
      vertex -4.09 20 0
      vertex -1.5 15 0
    endloop
  endfacet
  facet normal 0 0 -1
    outer loop
      vertex 0 16.5 0
      vertex -4.09 20 0
      vertex 4.09 20 0
    endloop
  endfacet
  facet normal 0 0 -1
    outer loop
      vertex -1.21352 15.8817 0
      vertex -4.09 20 0
      vertex -0.881678 16.2135 0
    endloop
  endfacet
  facet normal 0 0 -1
    outer loop
      vertex -1.42658 15.4635 0
      vertex -4.09 20 0
      vertex -1.21352 15.8817 0
    endloop
  endfacet
  facet normal 0 0 -1
    outer loop
      vertex -1.5 15 0
      vertex -4.09 20 0
      vertex -1.42658 15.4635 0
    endloop
  endfacet
  facet normal -1 0 0
    outer loop
      vertex 4.09 0 -8.18
      vertex 4.09 20 0
      vertex 4.09 20 -8.18
    endloop
  endfacet
  facet normal -1 -0 0
    outer loop
      vertex 4.09 20 0
      vertex 4.09 0 -8.18
      vertex 4.09 0 0
    endloop
  endfacet
  facet normal -0 0 1
    outer loop
      vertex -4.09 20 -8.18
      vertex 4.09 0 -8.18
      vertex 4.09 20 -8.18
    endloop
  endfacet
  facet normal 0 0 1
    outer loop
      vertex 4.09 0 -8.18
      vertex -4.09 20 -8.18
      vertex -4.09 0 -8.18
    endloop
  endfacet
  facet normal 1 -0 0
    outer loop
      vertex -7 0 7
      vertex -7 20 2
      vertex -7 20 7
    endloop
  endfacet
  facet normal 1 0 0
    outer loop
      vertex -7 20 2
      vertex -7 0 7
      vertex -7 0 2
    endloop
  endfacet
  facet normal 0 0 -1
    outer loop
      vertex -7 0 7
      vertex -3 20 7
      vertex -3 0 7
    endloop
  endfacet
  facet normal -0 0 -1
    outer loop
      vertex -3 20 7
      vertex -7 0 7
      vertex -7 20 7
    endloop
  endfacet
  facet normal 0 0 -1
    outer loop
      vertex 3 0 7
      vertex 7 20 7
      vertex 7 0 7
    endloop
  endfacet
  facet normal -0 0 -1
    outer loop
      vertex 7 20 7
      vertex 3 0 7
      vertex 3 20 7
    endloop
  endfacet
  facet normal -1 0 0
    outer loop
      vertex 7 0 2
      vertex 7 20 7
      vertex 7 20 2
    endloop
  endfacet
  facet normal -1 -0 0
    outer loop
      vertex 7 20 7
      vertex 7 0 2
      vertex 7 0 7
    endloop
  endfacet
  facet normal -0 0 1
    outer loop
      vertex 1.42658 5.46352 2
      vertex 7 0 2
      vertex 1.42658 14.5365 2
    endloop
  endfacet
  facet normal 0 0 1
    outer loop
      vertex 7 0 2
      vertex 1.42658 5.46352 2
      vertex 1.5 5 2
    endloop
  endfacet
  facet normal -0 0 1
    outer loop
      vertex 1.21352 14.1183 2
      vertex 1.42658 5.46352 2
      vertex 1.42658 14.5365 2
    endloop
  endfacet
  facet normal 0 0 1
    outer loop
      vertex 1.21352 14.1183 2
      vertex 1.21352 5.88168 2
      vertex 1.42658 5.46352 2
    endloop
  endfacet
  facet normal -0 0 1
    outer loop
      vertex 0.881678 13.7865 2
      vertex 1.21352 5.88168 2
      vertex 1.21352 14.1183 2
    endloop
  endfacet
  facet normal 0 0 1
    outer loop
      vertex 0.881678 13.7865 2
      vertex 0.881678 6.21352 2
      vertex 1.21352 5.88168 2
    endloop
  endfacet
  facet normal -0 0 1
    outer loop
      vertex 0.463525 13.5734 2
      vertex 0.881678 6.21352 2
      vertex 0.881678 13.7865 2
    endloop
  endfacet
  facet normal 0 0 1
    outer loop
      vertex 0.463525 13.5734 2
      vertex 0.463525 6.42658 2
      vertex 0.881678 6.21352 2
    endloop
  endfacet
  facet normal -0 0 1
    outer loop
      vertex 0 13.5 2
      vertex 0.463525 6.42658 2
      vertex 0.463525 13.5734 2
    endloop
  endfacet
  facet normal 0 0 1
    outer loop
      vertex 0 13.5 2
      vertex 0 6.5 2
      vertex 0.463525 6.42658 2
    endloop
  endfacet
  facet normal 0 0 1
    outer loop
      vertex -0.463525 13.5734 2
      vertex 0 6.5 2
      vertex 0 13.5 2
    endloop
  endfacet
  facet normal 0 0 1
    outer loop
      vertex -0.463525 13.5734 2
      vertex -0.463525 6.42658 2
      vertex 0 6.5 2
    endloop
  endfacet
  facet normal 0 0 1
    outer loop
      vertex -0.881678 13.7865 2
      vertex -0.463525 6.42658 2
      vertex -0.463525 13.5734 2
    endloop
  endfacet
  facet normal 0 0 1
    outer loop
      vertex -0.881678 13.7865 2
      vertex -0.881678 6.21352 2
      vertex -0.463525 6.42658 2
    endloop
  endfacet
  facet normal 0 0 1
    outer loop
      vertex -1.21352 14.1183 2
      vertex -0.881678 6.21352 2
      vertex -0.881678 13.7865 2
    endloop
  endfacet
  facet normal 0 0 1
    outer loop
      vertex -1.21352 14.1183 2
      vertex -1.21352 5.88168 2
      vertex -0.881678 6.21352 2
    endloop
  endfacet
  facet normal 0 0 1
    outer loop
      vertex -1.42658 14.5365 2
      vertex -1.21352 5.88168 2
      vertex -1.21352 14.1183 2
    endloop
  endfacet
  facet normal 0 0 1
    outer loop
      vertex -1.42658 14.5365 2
      vertex -1.42658 5.46352 2
      vertex -1.21352 5.88168 2
    endloop
  endfacet
  facet normal 0 0 1
    outer loop
      vertex -7 20 2
      vertex -1.42658 14.5365 2
      vertex -1.5 15 2
    endloop
  endfacet
  facet normal 0 0 1
    outer loop
      vertex -1.42658 14.5365 2
      vertex -7 20 2
      vertex -1.42658 5.46352 2
    endloop
  endfacet
  facet normal 0 0 1
    outer loop
      vertex 1.42658 14.5365 2
      vertex 7 20 2
      vertex 1.5 15 2
    endloop
  endfacet
  facet normal 0 0 1
    outer loop
      vertex 7 20 2
      vertex 1.42658 15.4635 2
      vertex 1.5 15 2
    endloop
  endfacet
  facet normal 0 0 1
    outer loop
      vertex 7 20 2
      vertex 1.21352 15.8817 2
      vertex 1.42658 15.4635 2
    endloop
  endfacet
  facet normal 0 0 1
    outer loop
      vertex 7 20 2
      vertex 0.881678 16.2135 2
      vertex 1.21352 15.8817 2
    endloop
  endfacet
  facet normal 0 0 1
    outer loop
      vertex 7 20 2
      vertex 0.463525 16.4266 2
      vertex 0.881678 16.2135 2
    endloop
  endfacet
  facet normal 0 0 1
    outer loop
      vertex 7 20 2
      vertex 0 16.5 2
      vertex 0.463525 16.4266 2
    endloop
  endfacet
  facet normal -0 0 1
    outer loop
      vertex -7 20 2
      vertex 0 16.5 2
      vertex 7 20 2
    endloop
  endfacet
  facet normal 0 0 1
    outer loop
      vertex -7 0 2
      vertex -1.42658 5.46352 2
      vertex -7 20 2
    endloop
  endfacet
  facet normal 0 0 1
    outer loop
      vertex -1.42658 15.4635 2
      vertex -7 20 2
      vertex -1.5 15 2
    endloop
  endfacet
  facet normal 0 0 1
    outer loop
      vertex -1.21352 15.8817 2
      vertex -7 20 2
      vertex -1.42658 15.4635 2
    endloop
  endfacet
  facet normal 0 0 1
    outer loop
      vertex -0.881678 16.2135 2
      vertex -7 20 2
      vertex -1.21352 15.8817 2
    endloop
  endfacet
  facet normal 0 0 1
    outer loop
      vertex -0.463525 16.4266 2
      vertex -7 20 2
      vertex -0.881678 16.2135 2
    endloop
  endfacet
  facet normal 0 0 1
    outer loop
      vertex 0 16.5 2
      vertex -7 20 2
      vertex -0.463525 16.4266 2
    endloop
  endfacet
  facet normal 0 0 1
    outer loop
      vertex 7 20 2
      vertex 1.42658 14.5365 2
      vertex 7 0 2
    endloop
  endfacet
  facet normal -0 0 1
    outer loop
      vertex 1.42658 4.53647 2
      vertex 7 0 2
      vertex 1.5 5 2
    endloop
  endfacet
  facet normal -0 0 1
    outer loop
      vertex 1.21352 4.11832 2
      vertex 7 0 2
      vertex 1.42658 4.53647 2
    endloop
  endfacet
  facet normal -0 0 1
    outer loop
      vertex 0.881678 3.78647 2
      vertex 7 0 2
      vertex 1.21352 4.11832 2
    endloop
  endfacet
  facet normal -0 0 1
    outer loop
      vertex 0.463525 3.57341 2
      vertex 7 0 2
      vertex 0.881678 3.78647 2
    endloop
  endfacet
  facet normal -0 0 1
    outer loop
      vertex 0 3.5 2
      vertex 7 0 2
      vertex 0.463525 3.57341 2
    endloop
  endfacet
  facet normal 0 0 1
    outer loop
      vertex -7 0 2
      vertex 0 3.5 2
      vertex -0.463525 3.57341 2
    endloop
  endfacet
  facet normal 0 0 1
    outer loop
      vertex -1.42658 5.46352 2
      vertex -7 0 2
      vertex -1.5 5 2
    endloop
  endfacet
  facet normal 0 0 1
    outer loop
      vertex 0 3.5 2
      vertex -7 0 2
      vertex 7 0 2
    endloop
  endfacet
  facet normal 0 0 1
    outer loop
      vertex -0.881678 3.78647 2
      vertex -7 0 2
      vertex -0.463525 3.57341 2
    endloop
  endfacet
  facet normal 0 0 1
    outer loop
      vertex -1.21352 4.11832 2
      vertex -7 0 2
      vertex -0.881678 3.78647 2
    endloop
  endfacet
  facet normal 0 0 1
    outer loop
      vertex -1.42658 4.53647 2
      vertex -7 0 2
      vertex -1.21352 4.11832 2
    endloop
  endfacet
  facet normal 0 0 1
    outer loop
      vertex -1.5 5 2
      vertex -7 0 2
      vertex -1.42658 4.53647 2
    endloop
  endfacet
  facet normal 1 -0 0
    outer loop
      vertex -3 0 9
      vertex -3 20 7
      vertex -3 20 9
    endloop
  endfacet
  facet normal 1 0 0
    outer loop
      vertex -3 20 7
      vertex -3 0 9
      vertex -3 0 7
    endloop
  endfacet
  facet normal 0 0 -1
    outer loop
      vertex 1.42658 14.5365 9
      vertex 3 20 9
      vertex 1.42658 5.46352 9
    endloop
  endfacet
  facet normal 0 0 -1
    outer loop
      vertex 3 20 9
      vertex 1.42658 14.5365 9
      vertex 1.5 15 9
    endloop
  endfacet
  facet normal 0 0 -1
    outer loop
      vertex 1.21352 5.88168 9
      vertex 1.42658 14.5365 9
      vertex 1.42658 5.46352 9
    endloop
  endfacet
  facet normal 0 0 -1
    outer loop
      vertex 1.21352 5.88168 9
      vertex 1.21352 14.1183 9
      vertex 1.42658 14.5365 9
    endloop
  endfacet
  facet normal 0 0 -1
    outer loop
      vertex 0.881678 6.21352 9
      vertex 1.21352 14.1183 9
      vertex 1.21352 5.88168 9
    endloop
  endfacet
  facet normal 0 0 -1
    outer loop
      vertex 0.881678 6.21352 9
      vertex 0.881678 13.7865 9
      vertex 1.21352 14.1183 9
    endloop
  endfacet
  facet normal 0 0 -1
    outer loop
      vertex 0.463525 6.42658 9
      vertex 0.881678 13.7865 9
      vertex 0.881678 6.21352 9
    endloop
  endfacet
  facet normal 0 0 -1
    outer loop
      vertex 0.463525 6.42658 9
      vertex 0.463525 13.5734 9
      vertex 0.881678 13.7865 9
    endloop
  endfacet
  facet normal 0 0 -1
    outer loop
      vertex 0 6.5 9
      vertex 0.463525 13.5734 9
      vertex 0.463525 6.42658 9
    endloop
  endfacet
  facet normal 0 0 -1
    outer loop
      vertex 0 6.5 9
      vertex 0 13.5 9
      vertex 0.463525 13.5734 9
    endloop
  endfacet
  facet normal 0 0 -1
    outer loop
      vertex -0.463525 6.42658 9
      vertex 0 13.5 9
      vertex 0 6.5 9
    endloop
  endfacet
  facet normal 0 0 -1
    outer loop
      vertex -0.463525 6.42658 9
      vertex -0.463525 13.5734 9
      vertex 0 13.5 9
    endloop
  endfacet
  facet normal 0 0 -1
    outer loop
      vertex -0.881678 6.21352 9
      vertex -0.463525 13.5734 9
      vertex -0.463525 6.42658 9
    endloop
  endfacet
  facet normal 0 0 -1
    outer loop
      vertex -0.881678 6.21352 9
      vertex -0.881678 13.7865 9
      vertex -0.463525 13.5734 9
    endloop
  endfacet
  facet normal 0 0 -1
    outer loop
      vertex -1.21352 5.88168 9
      vertex -0.881678 13.7865 9
      vertex -0.881678 6.21352 9
    endloop
  endfacet
  facet normal 0 0 -1
    outer loop
      vertex -1.21352 5.88168 9
      vertex -1.21352 14.1183 9
      vertex -0.881678 13.7865 9
    endloop
  endfacet
  facet normal 0 0 -1
    outer loop
      vertex -1.42658 5.46352 9
      vertex -1.21352 14.1183 9
      vertex -1.21352 5.88168 9
    endloop
  endfacet
  facet normal 0 0 -1
    outer loop
      vertex -1.42658 5.46352 9
      vertex -1.42658 14.5365 9
      vertex -1.21352 14.1183 9
    endloop
  endfacet
  facet normal 0 0 -1
    outer loop
      vertex -3 0 9
      vertex -1.42658 5.46352 9
      vertex -1.5 5 9
    endloop
  endfacet
  facet normal -0 0 -1
    outer loop
      vertex -1.42658 5.46352 9
      vertex -3 0 9
      vertex -1.42658 14.5365 9
    endloop
  endfacet
  facet normal 0 0 -1
    outer loop
      vertex 1.42658 5.46352 9
      vertex 3 0 9
      vertex 1.5 5 9
    endloop
  endfacet
  facet normal 0 0 -1
    outer loop
      vertex 3 0 9
      vertex 1.42658 4.53647 9
      vertex 1.5 5 9
    endloop
  endfacet
  facet normal 0 0 -1
    outer loop
      vertex 3 0 9
      vertex 1.21352 4.11832 9
      vertex 1.42658 4.53647 9
    endloop
  endfacet
  facet normal 0 0 -1
    outer loop
      vertex 3 0 9
      vertex 0.881678 3.78647 9
      vertex 1.21352 4.11832 9
    endloop
  endfacet
  facet normal 0 0 -1
    outer loop
      vertex 3 0 9
      vertex 0.463525 3.57341 9
      vertex 0.881678 3.78647 9
    endloop
  endfacet
  facet normal 0 0 -1
    outer loop
      vertex 3 0 9
      vertex 0 3.5 9
      vertex 0.463525 3.57341 9
    endloop
  endfacet
  facet normal 0 0 -1
    outer loop
      vertex -3 0 9
      vertex 0 3.5 9
      vertex 3 0 9
    endloop
  endfacet
  facet normal -0 0 -1
    outer loop
      vertex 0 3.5 9
      vertex -3 0 9
      vertex -0.463525 3.57341 9
    endloop
  endfacet
  facet normal 0 0 -1
    outer loop
      vertex -3 20 9
      vertex -1.42658 14.5365 9
      vertex -3 0 9
    endloop
  endfacet
  facet normal -0 0 -1
    outer loop
      vertex -1.42658 4.53647 9
      vertex -3 0 9
      vertex -1.5 5 9
    endloop
  endfacet
  facet normal -0 0 -1
    outer loop
      vertex -1.21352 4.11832 9
      vertex -3 0 9
      vertex -1.42658 4.53647 9
    endloop
  endfacet
  facet normal -0 0 -1
    outer loop
      vertex -0.881678 3.78647 9
      vertex -3 0 9
      vertex -1.21352 4.11832 9
    endloop
  endfacet
  facet normal -0 0 -1
    outer loop
      vertex -0.463525 3.57341 9
      vertex -3 0 9
      vertex -0.881678 3.78647 9
    endloop
  endfacet
  facet normal 0 0 -1
    outer loop
      vertex 3 0 9
      vertex 1.42658 5.46352 9
      vertex 3 20 9
    endloop
  endfacet
  facet normal 0 0 -1
    outer loop
      vertex 1.42658 15.4635 9
      vertex 3 20 9
      vertex 1.5 15 9
    endloop
  endfacet
  facet normal 0 0 -1
    outer loop
      vertex 1.21352 15.8817 9
      vertex 3 20 9
      vertex 1.42658 15.4635 9
    endloop
  endfacet
  facet normal 0 0 -1
    outer loop
      vertex 0.881678 16.2135 9
      vertex 3 20 9
      vertex 1.21352 15.8817 9
    endloop
  endfacet
  facet normal 0 0 -1
    outer loop
      vertex 0.463525 16.4266 9
      vertex 3 20 9
      vertex 0.881678 16.2135 9
    endloop
  endfacet
  facet normal 0 0 -1
    outer loop
      vertex 0 16.5 9
      vertex 3 20 9
      vertex 0.463525 16.4266 9
    endloop
  endfacet
  facet normal 0 0 -1
    outer loop
      vertex -3 20 9
      vertex 0 16.5 9
      vertex -0.463525 16.4266 9
    endloop
  endfacet
  facet normal 0 0 -1
    outer loop
      vertex -3 20 9
      vertex -0.463525 16.4266 9
      vertex -0.881678 16.2135 9
    endloop
  endfacet
  facet normal 0 0 -1
    outer loop
      vertex 0 16.5 9
      vertex -3 20 9
      vertex 3 20 9
    endloop
  endfacet
  facet normal 0 0 -1
    outer loop
      vertex -1.21352 15.8817 9
      vertex -3 20 9
      vertex -0.881678 16.2135 9
    endloop
  endfacet
  facet normal 0 0 -1
    outer loop
      vertex -1.42658 15.4635 9
      vertex -3 20 9
      vertex -1.21352 15.8817 9
    endloop
  endfacet
  facet normal 0 0 -1
    outer loop
      vertex -1.5 15 9
      vertex -3 20 9
      vertex -1.42658 15.4635 9
    endloop
  endfacet
  facet normal 0 0 -1
    outer loop
      vertex -1.42658 14.5365 9
      vertex -3 20 9
      vertex -1.5 15 9
    endloop
  endfacet
  facet normal -1 0 0
    outer loop
      vertex 3 0 7
      vertex 3 20 9
      vertex 3 20 7
    endloop
  endfacet
  facet normal -1 -0 0
    outer loop
      vertex 3 20 9
      vertex 3 0 7
      vertex 3 0 9
    endloop
  endfacet
  facet normal -0.987686 -0.156446 0
    outer loop
      vertex 1.5 5 0
      vertex 1.42658 5.46352 2
      vertex 1.42658 5.46352 0
    endloop
  endfacet
  facet normal -0.987686 -0.156446 0
    outer loop
      vertex 1.42658 5.46352 2
      vertex 1.5 5 0
      vertex 1.5 5 2
    endloop
  endfacet
  facet normal -0.987686 -0.156446 0
    outer loop
      vertex 1.5 5 9
      vertex 1.42658 5.46352 11
      vertex 1.42658 5.46352 9
    endloop
  endfacet
  facet normal -0.987686 -0.156446 0
    outer loop
      vertex 1.42658 5.46352 11
      vertex 1.5 5 9
      vertex 1.5 5 11
    endloop
  endfacet
  facet normal 0.156445 -0.987687 0
    outer loop
      vertex -0.463525 6.42658 0
      vertex 0 6.5 2
      vertex -0.463525 6.42658 2
    endloop
  endfacet
  facet normal 0.156445 -0.987687 0
    outer loop
      vertex 0 6.5 2
      vertex -0.463525 6.42658 0
      vertex 0 6.5 0
    endloop
  endfacet
  facet normal 0.156445 -0.987687 0
    outer loop
      vertex -0.463525 6.42658 9
      vertex 0 6.5 11
      vertex -0.463525 6.42658 11
    endloop
  endfacet
  facet normal 0.156445 -0.987687 0
    outer loop
      vertex 0 6.5 11
      vertex -0.463525 6.42658 9
      vertex 0 6.5 9
    endloop
  endfacet
  facet normal -0.707105 -0.707109 0
    outer loop
      vertex 1.21352 5.88168 0
      vertex 0.881678 6.21352 2
      vertex 0.881678 6.21352 0
    endloop
  endfacet
  facet normal -0.707105 -0.707109 0
    outer loop
      vertex 0.881678 6.21352 2
      vertex 1.21352 5.88168 0
      vertex 1.21352 5.88168 2
    endloop
  endfacet
  facet normal -0.707105 -0.707109 0
    outer loop
      vertex 1.21352 5.88168 9
      vertex 0.881678 6.21352 11
      vertex 0.881678 6.21352 9
    endloop
  endfacet
  facet normal -0.707105 -0.707109 0
    outer loop
      vertex 0.881678 6.21352 11
      vertex 1.21352 5.88168 9
      vertex 1.21352 5.88168 11
    endloop
  endfacet
  facet normal -0.891009 -0.453985 0
    outer loop
      vertex 1.42658 5.46352 0
      vertex 1.21352 5.88168 2
      vertex 1.21352 5.88168 0
    endloop
  endfacet
  facet normal -0.891009 -0.453985 0
    outer loop
      vertex 1.21352 5.88168 2
      vertex 1.42658 5.46352 0
      vertex 1.42658 5.46352 2
    endloop
  endfacet
  facet normal -0.891009 -0.453985 0
    outer loop
      vertex 1.42658 5.46352 9
      vertex 1.21352 5.88168 11
      vertex 1.21352 5.88168 9
    endloop
  endfacet
  facet normal -0.891009 -0.453985 0
    outer loop
      vertex 1.21352 5.88168 11
      vertex 1.42658 5.46352 9
      vertex 1.42658 5.46352 11
    endloop
  endfacet
  facet normal 0.707105 -0.707109 0
    outer loop
      vertex -1.21352 5.88168 2
      vertex -0.881678 6.21352 0
      vertex -0.881678 6.21352 2
    endloop
  endfacet
  facet normal 0.707105 -0.707109 0
    outer loop
      vertex -0.881678 6.21352 0
      vertex -1.21352 5.88168 2
      vertex -1.21352 5.88168 0
    endloop
  endfacet
  facet normal 0.707105 -0.707109 0
    outer loop
      vertex -1.21352 5.88168 11
      vertex -0.881678 6.21352 9
      vertex -0.881678 6.21352 11
    endloop
  endfacet
  facet normal 0.707105 -0.707109 0
    outer loop
      vertex -0.881678 6.21352 9
      vertex -1.21352 5.88168 11
      vertex -1.21352 5.88168 9
    endloop
  endfacet
  facet normal 0.453991 -0.891006 0
    outer loop
      vertex -0.881678 6.21352 0
      vertex -0.463525 6.42658 2
      vertex -0.881678 6.21352 2
    endloop
  endfacet
  facet normal 0.453991 -0.891006 0
    outer loop
      vertex -0.463525 6.42658 2
      vertex -0.881678 6.21352 0
      vertex -0.463525 6.42658 0
    endloop
  endfacet
  facet normal 0.453991 -0.891006 0
    outer loop
      vertex -0.881678 6.21352 9
      vertex -0.463525 6.42658 11
      vertex -0.881678 6.21352 11
    endloop
  endfacet
  facet normal 0.453991 -0.891006 0
    outer loop
      vertex -0.463525 6.42658 11
      vertex -0.881678 6.21352 9
      vertex -0.463525 6.42658 9
    endloop
  endfacet
  facet normal -0.453991 0.891006 0
    outer loop
      vertex 0.881678 3.78647 0
      vertex 0.463525 3.57341 2
      vertex 0.881678 3.78647 2
    endloop
  endfacet
  facet normal -0.453991 0.891006 0
    outer loop
      vertex 0.463525 3.57341 2
      vertex 0.881678 3.78647 0
      vertex 0.463525 3.57341 0
    endloop
  endfacet
  facet normal -0.453991 0.891006 0
    outer loop
      vertex 0.881678 3.78647 9
      vertex 0.463525 3.57341 11
      vertex 0.881678 3.78647 11
    endloop
  endfacet
  facet normal -0.453991 0.891006 0
    outer loop
      vertex 0.463525 3.57341 11
      vertex 0.881678 3.78647 9
      vertex 0.463525 3.57341 9
    endloop
  endfacet
  facet normal -0.891005 0.453994 0
    outer loop
      vertex 1.21352 4.11832 0
      vertex 1.42658 4.53647 2
      vertex 1.42658 4.53647 0
    endloop
  endfacet
  facet normal -0.891005 0.453994 0
    outer loop
      vertex 1.42658 4.53647 2
      vertex 1.21352 4.11832 0
      vertex 1.21352 4.11832 2
    endloop
  endfacet
  facet normal -0.891005 0.453994 0
    outer loop
      vertex 1.21352 4.11832 9
      vertex 1.42658 4.53647 11
      vertex 1.42658 4.53647 9
    endloop
  endfacet
  facet normal -0.891005 0.453994 0
    outer loop
      vertex 1.42658 4.53647 11
      vertex 1.21352 4.11832 9
      vertex 1.21352 4.11832 11
    endloop
  endfacet
  facet normal 0.453991 0.891006 -0
    outer loop
      vertex -0.463525 3.57341 0
      vertex -0.881678 3.78647 2
      vertex -0.463525 3.57341 2
    endloop
  endfacet
  facet normal 0.453991 0.891006 0
    outer loop
      vertex -0.881678 3.78647 2
      vertex -0.463525 3.57341 0
      vertex -0.881678 3.78647 0
    endloop
  endfacet
  facet normal 0.453991 0.891006 -0
    outer loop
      vertex -0.463525 3.57341 9
      vertex -0.881678 3.78647 11
      vertex -0.463525 3.57341 11
    endloop
  endfacet
  facet normal 0.453991 0.891006 0
    outer loop
      vertex -0.881678 3.78647 11
      vertex -0.463525 3.57341 9
      vertex -0.881678 3.78647 9
    endloop
  endfacet
  facet normal 0.891005 0.453994 0
    outer loop
      vertex -1.21352 4.11832 2
      vertex -1.42658 4.53647 0
      vertex -1.42658 4.53647 2
    endloop
  endfacet
  facet normal 0.891005 0.453994 0
    outer loop
      vertex -1.42658 4.53647 0
      vertex -1.21352 4.11832 2
      vertex -1.21352 4.11832 0
    endloop
  endfacet
  facet normal 0.891005 0.453994 0
    outer loop
      vertex -1.21352 4.11832 11
      vertex -1.42658 4.53647 9
      vertex -1.42658 4.53647 11
    endloop
  endfacet
  facet normal 0.891005 0.453994 0
    outer loop
      vertex -1.42658 4.53647 9
      vertex -1.21352 4.11832 11
      vertex -1.21352 4.11832 9
    endloop
  endfacet
  facet normal -0.156445 -0.987687 0
    outer loop
      vertex 0 6.5 0
      vertex 0.463525 6.42658 2
      vertex 0 6.5 2
    endloop
  endfacet
  facet normal -0.156445 -0.987687 -0
    outer loop
      vertex 0.463525 6.42658 2
      vertex 0 6.5 0
      vertex 0.463525 6.42658 0
    endloop
  endfacet
  facet normal -0.156445 -0.987687 0
    outer loop
      vertex 0 6.5 9
      vertex 0.463525 6.42658 11
      vertex 0 6.5 11
    endloop
  endfacet
  facet normal -0.156445 -0.987687 -0
    outer loop
      vertex 0.463525 6.42658 11
      vertex 0 6.5 9
      vertex 0.463525 6.42658 9
    endloop
  endfacet
  facet normal -0.453991 -0.891006 0
    outer loop
      vertex 0.463525 6.42658 0
      vertex 0.881678 6.21352 2
      vertex 0.463525 6.42658 2
    endloop
  endfacet
  facet normal -0.453991 -0.891006 -0
    outer loop
      vertex 0.881678 6.21352 2
      vertex 0.463525 6.42658 0
      vertex 0.881678 6.21352 0
    endloop
  endfacet
  facet normal -0.453991 -0.891006 0
    outer loop
      vertex 0.463525 6.42658 9
      vertex 0.881678 6.21352 11
      vertex 0.463525 6.42658 11
    endloop
  endfacet
  facet normal -0.453991 -0.891006 -0
    outer loop
      vertex 0.881678 6.21352 11
      vertex 0.463525 6.42658 9
      vertex 0.881678 6.21352 9
    endloop
  endfacet
  facet normal 0.891009 -0.453985 0
    outer loop
      vertex -1.42658 5.46352 2
      vertex -1.21352 5.88168 0
      vertex -1.21352 5.88168 2
    endloop
  endfacet
  facet normal 0.891009 -0.453985 0
    outer loop
      vertex -1.21352 5.88168 0
      vertex -1.42658 5.46352 2
      vertex -1.42658 5.46352 0
    endloop
  endfacet
  facet normal 0.891009 -0.453985 0
    outer loop
      vertex -1.42658 5.46352 11
      vertex -1.21352 5.88168 9
      vertex -1.21352 5.88168 11
    endloop
  endfacet
  facet normal 0.891009 -0.453985 0
    outer loop
      vertex -1.21352 5.88168 9
      vertex -1.42658 5.46352 11
      vertex -1.42658 5.46352 9
    endloop
  endfacet
  facet normal 0.987686 -0.156446 0
    outer loop
      vertex -1.5 5 2
      vertex -1.42658 5.46352 0
      vertex -1.42658 5.46352 2
    endloop
  endfacet
  facet normal 0.987686 -0.156446 0
    outer loop
      vertex -1.42658 5.46352 0
      vertex -1.5 5 2
      vertex -1.5 5 0
    endloop
  endfacet
  facet normal 0.987686 -0.156446 0
    outer loop
      vertex -1.5 5 11
      vertex -1.42658 5.46352 9
      vertex -1.42658 5.46352 11
    endloop
  endfacet
  facet normal 0.987686 -0.156446 0
    outer loop
      vertex -1.42658 5.46352 9
      vertex -1.5 5 11
      vertex -1.5 5 9
    endloop
  endfacet
  facet normal 0.987687 0.156443 0
    outer loop
      vertex -1.42658 4.53647 2
      vertex -1.5 5 0
      vertex -1.5 5 2
    endloop
  endfacet
  facet normal 0.987687 0.156443 0
    outer loop
      vertex -1.5 5 0
      vertex -1.42658 4.53647 2
      vertex -1.42658 4.53647 0
    endloop
  endfacet
  facet normal 0.987687 0.156443 0
    outer loop
      vertex -1.42658 4.53647 11
      vertex -1.5 5 9
      vertex -1.5 5 11
    endloop
  endfacet
  facet normal 0.987687 0.156443 0
    outer loop
      vertex -1.5 5 9
      vertex -1.42658 4.53647 11
      vertex -1.42658 4.53647 9
    endloop
  endfacet
  facet normal -0.987687 0.156443 0
    outer loop
      vertex 1.42658 4.53647 0
      vertex 1.5 5 2
      vertex 1.5 5 0
    endloop
  endfacet
  facet normal -0.987687 0.156443 0
    outer loop
      vertex 1.5 5 2
      vertex 1.42658 4.53647 0
      vertex 1.42658 4.53647 2
    endloop
  endfacet
  facet normal -0.987687 0.156443 0
    outer loop
      vertex 1.42658 4.53647 9
      vertex 1.5 5 11
      vertex 1.5 5 9
    endloop
  endfacet
  facet normal -0.987687 0.156443 0
    outer loop
      vertex 1.5 5 11
      vertex 1.42658 4.53647 9
      vertex 1.42658 4.53647 11
    endloop
  endfacet
  facet normal -0.707115 0.707098 0
    outer loop
      vertex 0.881678 3.78647 0
      vertex 1.21352 4.11832 2
      vertex 1.21352 4.11832 0
    endloop
  endfacet
  facet normal -0.707115 0.707098 0
    outer loop
      vertex 1.21352 4.11832 2
      vertex 0.881678 3.78647 0
      vertex 0.881678 3.78647 2
    endloop
  endfacet
  facet normal -0.707115 0.707098 0
    outer loop
      vertex 0.881678 3.78647 9
      vertex 1.21352 4.11832 11
      vertex 1.21352 4.11832 9
    endloop
  endfacet
  facet normal -0.707115 0.707098 0
    outer loop
      vertex 1.21352 4.11832 11
      vertex 0.881678 3.78647 9
      vertex 0.881678 3.78647 11
    endloop
  endfacet
  facet normal 0.156424 0.98769 -0
    outer loop
      vertex 0 3.5 0
      vertex -0.463525 3.57341 2
      vertex 0 3.5 2
    endloop
  endfacet
  facet normal 0.156424 0.98769 0
    outer loop
      vertex -0.463525 3.57341 2
      vertex 0 3.5 0
      vertex -0.463525 3.57341 0
    endloop
  endfacet
  facet normal 0.156424 0.98769 -0
    outer loop
      vertex 0 3.5 9
      vertex -0.463525 3.57341 11
      vertex 0 3.5 11
    endloop
  endfacet
  facet normal 0.156424 0.98769 0
    outer loop
      vertex -0.463525 3.57341 11
      vertex 0 3.5 9
      vertex -0.463525 3.57341 9
    endloop
  endfacet
  facet normal 0.707115 0.707098 0
    outer loop
      vertex -0.881678 3.78647 2
      vertex -1.21352 4.11832 0
      vertex -1.21352 4.11832 2
    endloop
  endfacet
  facet normal 0.707115 0.707098 0
    outer loop
      vertex -1.21352 4.11832 0
      vertex -0.881678 3.78647 2
      vertex -0.881678 3.78647 0
    endloop
  endfacet
  facet normal 0.707115 0.707098 0
    outer loop
      vertex -0.881678 3.78647 11
      vertex -1.21352 4.11832 9
      vertex -1.21352 4.11832 11
    endloop
  endfacet
  facet normal 0.707115 0.707098 0
    outer loop
      vertex -1.21352 4.11832 9
      vertex -0.881678 3.78647 11
      vertex -0.881678 3.78647 9
    endloop
  endfacet
  facet normal -0.156424 0.98769 0
    outer loop
      vertex 0.463525 3.57341 0
      vertex 0 3.5 2
      vertex 0.463525 3.57341 2
    endloop
  endfacet
  facet normal -0.156424 0.98769 0
    outer loop
      vertex 0 3.5 2
      vertex 0.463525 3.57341 0
      vertex 0 3.5 0
    endloop
  endfacet
  facet normal -0.156424 0.98769 0
    outer loop
      vertex 0.463525 3.57341 9
      vertex 0 3.5 11
      vertex 0.463525 3.57341 11
    endloop
  endfacet
  facet normal -0.156424 0.98769 0
    outer loop
      vertex 0 3.5 11
      vertex 0.463525 3.57341 9
      vertex 0 3.5 9
    endloop
  endfacet
  facet normal -0.987685 -0.156453 0
    outer loop
      vertex 1.5 15 0
      vertex 1.42658 15.4635 2
      vertex 1.42658 15.4635 0
    endloop
  endfacet
  facet normal -0.987685 -0.156453 0
    outer loop
      vertex 1.42658 15.4635 2
      vertex 1.5 15 0
      vertex 1.5 15 2
    endloop
  endfacet
  facet normal -0.987685 -0.156453 0
    outer loop
      vertex 1.5 15 9
      vertex 1.42658 15.4635 11
      vertex 1.42658 15.4635 9
    endloop
  endfacet
  facet normal -0.987685 -0.156453 0
    outer loop
      vertex 1.42658 15.4635 11
      vertex 1.5 15 9
      vertex 1.5 15 11
    endloop
  endfacet
  facet normal 0.156403 -0.987693 0
    outer loop
      vertex -0.463525 16.4266 0
      vertex 0 16.5 2
      vertex -0.463525 16.4266 2
    endloop
  endfacet
  facet normal 0.156403 -0.987693 0
    outer loop
      vertex 0 16.5 2
      vertex -0.463525 16.4266 0
      vertex 0 16.5 0
    endloop
  endfacet
  facet normal 0.156403 -0.987693 0
    outer loop
      vertex -0.463525 16.4266 9
      vertex 0 16.5 11
      vertex -0.463525 16.4266 11
    endloop
  endfacet
  facet normal 0.156403 -0.987693 0
    outer loop
      vertex 0 16.5 11
      vertex -0.463525 16.4266 9
      vertex 0 16.5 9
    endloop
  endfacet
  facet normal -0.156403 0.987693 0
    outer loop
      vertex 0.463525 13.5734 0
      vertex 0 13.5 2
      vertex 0.463525 13.5734 2
    endloop
  endfacet
  facet normal -0.156403 0.987693 0
    outer loop
      vertex 0 13.5 2
      vertex 0.463525 13.5734 0
      vertex 0 13.5 0
    endloop
  endfacet
  facet normal -0.156403 0.987693 0
    outer loop
      vertex 0.463525 13.5734 9
      vertex 0 13.5 11
      vertex 0.463525 13.5734 11
    endloop
  endfacet
  facet normal -0.156403 0.987693 0
    outer loop
      vertex 0 13.5 11
      vertex 0.463525 13.5734 9
      vertex 0 13.5 9
    endloop
  endfacet
  facet normal -0.707062 -0.707152 0
    outer loop
      vertex 0.881678 16.2135 0
      vertex 1.21352 15.8817 2
      vertex 0.881678 16.2135 2
    endloop
  endfacet
  facet normal -0.707062 -0.707152 -0
    outer loop
      vertex 1.21352 15.8817 2
      vertex 0.881678 16.2135 0
      vertex 1.21352 15.8817 0
    endloop
  endfacet
  facet normal -0.707062 -0.707152 0
    outer loop
      vertex 0.881678 16.2135 9
      vertex 1.21352 15.8817 11
      vertex 0.881678 16.2135 11
    endloop
  endfacet
  facet normal -0.707062 -0.707152 -0
    outer loop
      vertex 1.21352 15.8817 11
      vertex 0.881678 16.2135 9
      vertex 1.21352 15.8817 9
    endloop
  endfacet
  facet normal -0.891027 -0.453951 0
    outer loop
      vertex 1.42658 15.4635 0
      vertex 1.21352 15.8817 2
      vertex 1.21352 15.8817 0
    endloop
  endfacet
  facet normal -0.891027 -0.453951 0
    outer loop
      vertex 1.21352 15.8817 2
      vertex 1.42658 15.4635 0
      vertex 1.42658 15.4635 2
    endloop
  endfacet
  facet normal -0.891027 -0.453951 0
    outer loop
      vertex 1.42658 15.4635 9
      vertex 1.21352 15.8817 11
      vertex 1.21352 15.8817 9
    endloop
  endfacet
  facet normal -0.891027 -0.453951 0
    outer loop
      vertex 1.21352 15.8817 11
      vertex 1.42658 15.4635 9
      vertex 1.42658 15.4635 11
    endloop
  endfacet
  facet normal 0.707062 -0.707152 0
    outer loop
      vertex -1.21352 15.8817 0
      vertex -0.881678 16.2135 2
      vertex -1.21352 15.8817 2
    endloop
  endfacet
  facet normal 0.707062 -0.707152 0
    outer loop
      vertex -0.881678 16.2135 2
      vertex -1.21352 15.8817 0
      vertex -0.881678 16.2135 0
    endloop
  endfacet
  facet normal 0.707062 -0.707152 0
    outer loop
      vertex -1.21352 15.8817 9
      vertex -0.881678 16.2135 11
      vertex -1.21352 15.8817 11
    endloop
  endfacet
  facet normal 0.707062 -0.707152 0
    outer loop
      vertex -0.881678 16.2135 11
      vertex -1.21352 15.8817 9
      vertex -0.881678 16.2135 9
    endloop
  endfacet
  facet normal 0.454059 -0.890972 0
    outer loop
      vertex -0.881678 16.2135 0
      vertex -0.463525 16.4266 2
      vertex -0.881678 16.2135 2
    endloop
  endfacet
  facet normal 0.454059 -0.890972 0
    outer loop
      vertex -0.463525 16.4266 2
      vertex -0.881678 16.2135 0
      vertex -0.463525 16.4266 0
    endloop
  endfacet
  facet normal 0.454059 -0.890972 0
    outer loop
      vertex -0.881678 16.2135 9
      vertex -0.463525 16.4266 11
      vertex -0.881678 16.2135 11
    endloop
  endfacet
  facet normal 0.454059 -0.890972 0
    outer loop
      vertex -0.463525 16.4266 11
      vertex -0.881678 16.2135 9
      vertex -0.463525 16.4266 9
    endloop
  endfacet
  facet normal -0.454059 0.890972 0
    outer loop
      vertex 0.881678 13.7865 0
      vertex 0.463525 13.5734 2
      vertex 0.881678 13.7865 2
    endloop
  endfacet
  facet normal -0.454059 0.890972 0
    outer loop
      vertex 0.463525 13.5734 2
      vertex 0.881678 13.7865 0
      vertex 0.463525 13.5734 0
    endloop
  endfacet
  facet normal -0.454059 0.890972 0
    outer loop
      vertex 0.881678 13.7865 9
      vertex 0.463525 13.5734 11
      vertex 0.881678 13.7865 11
    endloop
  endfacet
  facet normal -0.454059 0.890972 0
    outer loop
      vertex 0.463525 13.5734 11
      vertex 0.881678 13.7865 9
      vertex 0.463525 13.5734 9
    endloop
  endfacet
  facet normal -0.891027 0.453951 0
    outer loop
      vertex 1.21352 14.1183 0
      vertex 1.42658 14.5365 2
      vertex 1.42658 14.5365 0
    endloop
  endfacet
  facet normal -0.891027 0.453951 0
    outer loop
      vertex 1.42658 14.5365 2
      vertex 1.21352 14.1183 0
      vertex 1.21352 14.1183 2
    endloop
  endfacet
  facet normal -0.891027 0.453951 0
    outer loop
      vertex 1.21352 14.1183 9
      vertex 1.42658 14.5365 11
      vertex 1.42658 14.5365 9
    endloop
  endfacet
  facet normal -0.891027 0.453951 0
    outer loop
      vertex 1.42658 14.5365 11
      vertex 1.21352 14.1183 9
      vertex 1.21352 14.1183 11
    endloop
  endfacet
  facet normal 0.454059 0.890972 -0
    outer loop
      vertex -0.463525 13.5734 0
      vertex -0.881678 13.7865 2
      vertex -0.463525 13.5734 2
    endloop
  endfacet
  facet normal 0.454059 0.890972 0
    outer loop
      vertex -0.881678 13.7865 2
      vertex -0.463525 13.5734 0
      vertex -0.881678 13.7865 0
    endloop
  endfacet
  facet normal 0.454059 0.890972 -0
    outer loop
      vertex -0.463525 13.5734 9
      vertex -0.881678 13.7865 11
      vertex -0.463525 13.5734 11
    endloop
  endfacet
  facet normal 0.454059 0.890972 0
    outer loop
      vertex -0.881678 13.7865 11
      vertex -0.463525 13.5734 9
      vertex -0.881678 13.7865 9
    endloop
  endfacet
  facet normal 0.891027 0.453951 0
    outer loop
      vertex -1.21352 14.1183 2
      vertex -1.42658 14.5365 0
      vertex -1.42658 14.5365 2
    endloop
  endfacet
  facet normal 0.891027 0.453951 0
    outer loop
      vertex -1.42658 14.5365 0
      vertex -1.21352 14.1183 2
      vertex -1.21352 14.1183 0
    endloop
  endfacet
  facet normal 0.891027 0.453951 0
    outer loop
      vertex -1.21352 14.1183 11
      vertex -1.42658 14.5365 9
      vertex -1.42658 14.5365 11
    endloop
  endfacet
  facet normal 0.891027 0.453951 0
    outer loop
      vertex -1.42658 14.5365 9
      vertex -1.21352 14.1183 11
      vertex -1.21352 14.1183 9
    endloop
  endfacet
  facet normal -0.156403 -0.987693 0
    outer loop
      vertex 0 16.5 0
      vertex 0.463525 16.4266 2
      vertex 0 16.5 2
    endloop
  endfacet
  facet normal -0.156403 -0.987693 -0
    outer loop
      vertex 0.463525 16.4266 2
      vertex 0 16.5 0
      vertex 0.463525 16.4266 0
    endloop
  endfacet
  facet normal -0.156403 -0.987693 0
    outer loop
      vertex 0 16.5 9
      vertex 0.463525 16.4266 11
      vertex 0 16.5 11
    endloop
  endfacet
  facet normal -0.156403 -0.987693 -0
    outer loop
      vertex 0.463525 16.4266 11
      vertex 0 16.5 9
      vertex 0.463525 16.4266 9
    endloop
  endfacet
  facet normal -0.454059 -0.890972 0
    outer loop
      vertex 0.463525 16.4266 0
      vertex 0.881678 16.2135 2
      vertex 0.463525 16.4266 2
    endloop
  endfacet
  facet normal -0.454059 -0.890972 -0
    outer loop
      vertex 0.881678 16.2135 2
      vertex 0.463525 16.4266 0
      vertex 0.881678 16.2135 0
    endloop
  endfacet
  facet normal -0.454059 -0.890972 0
    outer loop
      vertex 0.463525 16.4266 9
      vertex 0.881678 16.2135 11
      vertex 0.463525 16.4266 11
    endloop
  endfacet
  facet normal -0.454059 -0.890972 -0
    outer loop
      vertex 0.881678 16.2135 11
      vertex 0.463525 16.4266 9
      vertex 0.881678 16.2135 9
    endloop
  endfacet
  facet normal 0.891027 -0.453951 0
    outer loop
      vertex -1.42658 15.4635 2
      vertex -1.21352 15.8817 0
      vertex -1.21352 15.8817 2
    endloop
  endfacet
  facet normal 0.891027 -0.453951 0
    outer loop
      vertex -1.21352 15.8817 0
      vertex -1.42658 15.4635 2
      vertex -1.42658 15.4635 0
    endloop
  endfacet
  facet normal 0.891027 -0.453951 0
    outer loop
      vertex -1.42658 15.4635 11
      vertex -1.21352 15.8817 9
      vertex -1.21352 15.8817 11
    endloop
  endfacet
  facet normal 0.891027 -0.453951 0
    outer loop
      vertex -1.21352 15.8817 9
      vertex -1.42658 15.4635 11
      vertex -1.42658 15.4635 9
    endloop
  endfacet
  facet normal 0.987685 -0.156453 0
    outer loop
      vertex -1.5 15 2
      vertex -1.42658 15.4635 0
      vertex -1.42658 15.4635 2
    endloop
  endfacet
  facet normal 0.987685 -0.156453 0
    outer loop
      vertex -1.42658 15.4635 0
      vertex -1.5 15 2
      vertex -1.5 15 0
    endloop
  endfacet
  facet normal 0.987685 -0.156453 0
    outer loop
      vertex -1.5 15 11
      vertex -1.42658 15.4635 9
      vertex -1.42658 15.4635 11
    endloop
  endfacet
  facet normal 0.987685 -0.156453 0
    outer loop
      vertex -1.42658 15.4635 9
      vertex -1.5 15 11
      vertex -1.5 15 9
    endloop
  endfacet
  facet normal 0.987685 0.156453 0
    outer loop
      vertex -1.42658 14.5365 2
      vertex -1.5 15 0
      vertex -1.5 15 2
    endloop
  endfacet
  facet normal 0.987685 0.156453 0
    outer loop
      vertex -1.5 15 0
      vertex -1.42658 14.5365 2
      vertex -1.42658 14.5365 0
    endloop
  endfacet
  facet normal 0.987685 0.156453 0
    outer loop
      vertex -1.42658 14.5365 11
      vertex -1.5 15 9
      vertex -1.5 15 11
    endloop
  endfacet
  facet normal 0.987685 0.156453 0
    outer loop
      vertex -1.5 15 9
      vertex -1.42658 14.5365 11
      vertex -1.42658 14.5365 9
    endloop
  endfacet
  facet normal -0.707062 0.707152 0
    outer loop
      vertex 0.881678 13.7865 0
      vertex 1.21352 14.1183 2
      vertex 1.21352 14.1183 0
    endloop
  endfacet
  facet normal -0.707062 0.707152 0
    outer loop
      vertex 1.21352 14.1183 2
      vertex 0.881678 13.7865 0
      vertex 0.881678 13.7865 2
    endloop
  endfacet
  facet normal -0.707062 0.707152 0
    outer loop
      vertex 0.881678 13.7865 9
      vertex 1.21352 14.1183 11
      vertex 1.21352 14.1183 9
    endloop
  endfacet
  facet normal -0.707062 0.707152 0
    outer loop
      vertex 1.21352 14.1183 11
      vertex 0.881678 13.7865 9
      vertex 0.881678 13.7865 11
    endloop
  endfacet
  facet normal 0.156403 0.987693 -0
    outer loop
      vertex 0 13.5 0
      vertex -0.463525 13.5734 2
      vertex 0 13.5 2
    endloop
  endfacet
  facet normal 0.156403 0.987693 0
    outer loop
      vertex -0.463525 13.5734 2
      vertex 0 13.5 0
      vertex -0.463525 13.5734 0
    endloop
  endfacet
  facet normal 0.156403 0.987693 -0
    outer loop
      vertex 0 13.5 9
      vertex -0.463525 13.5734 11
      vertex 0 13.5 11
    endloop
  endfacet
  facet normal 0.156403 0.987693 0
    outer loop
      vertex -0.463525 13.5734 11
      vertex 0 13.5 9
      vertex -0.463525 13.5734 9
    endloop
  endfacet
  facet normal 0.707062 0.707152 0
    outer loop
      vertex -0.881678 13.7865 2
      vertex -1.21352 14.1183 0
      vertex -1.21352 14.1183 2
    endloop
  endfacet
  facet normal 0.707062 0.707152 0
    outer loop
      vertex -1.21352 14.1183 0
      vertex -0.881678 13.7865 2
      vertex -0.881678 13.7865 0
    endloop
  endfacet
  facet normal 0.707062 0.707152 0
    outer loop
      vertex -0.881678 13.7865 11
      vertex -1.21352 14.1183 9
      vertex -1.21352 14.1183 11
    endloop
  endfacet
  facet normal 0.707062 0.707152 0
    outer loop
      vertex -1.21352 14.1183 9
      vertex -0.881678 13.7865 11
      vertex -0.881678 13.7865 9
    endloop
  endfacet
  facet normal -0.987685 0.156453 0
    outer loop
      vertex 1.42658 14.5365 0
      vertex 1.5 15 2
      vertex 1.5 15 0
    endloop
  endfacet
  facet normal -0.987685 0.156453 0
    outer loop
      vertex 1.5 15 2
      vertex 1.42658 14.5365 0
      vertex 1.42658 14.5365 2
    endloop
  endfacet
  facet normal -0.987685 0.156453 0
    outer loop
      vertex 1.42658 14.5365 9
      vertex 1.5 15 11
      vertex 1.5 15 9
    endloop
  endfacet
  facet normal -0.987685 0.156453 0
    outer loop
      vertex 1.5 15 11
      vertex 1.42658 14.5365 9
      vertex 1.42658 14.5365 11
    endloop
  endfacet
endsolid OpenSCAD_Model
